<svg width="54" height="54" viewBox="0 0 54 54" fill="none" xmlns="http://www.w3.org/2000/svg">
<path fill-rule="evenodd" clip-rule="evenodd" d="M20.5013 9.15479C20.5013 8.87864 20.7252 8.65479 21.0013 8.65479C22.1413 8.65479 22.9312 8.91309 23.4215 9.43555C23.909 9.95504 23.995 10.6263 23.995 11.1875V11.2042C23.995 11.4545 23.995 11.7372 23.9589 12.0045C23.9213 12.2825 23.8405 12.5821 23.6517 12.8514C23.2552 13.4172 22.5339 13.6546 21.4731 13.6546C20.8711 13.6546 20.5793 13.767 20.4265 13.9114C20.2805 14.0494 20.1534 14.3205 20.1534 14.925C20.1534 15.3159 20.2319 15.5815 20.3339 15.7654C20.435 15.9477 20.5742 16.077 20.7395 16.1734C21.092 16.3792 21.5364 16.4256 21.9215 16.4596C22.1966 16.484 22.3999 16.7267 22.3755 17.0018C22.3512 17.2768 22.1085 17.4801 21.8334 17.4558C21.8252 17.455 21.8167 17.4543 21.8082 17.4535C21.4463 17.4217 20.7963 17.3645 20.2354 17.0371C19.9373 16.8631 19.6595 16.6112 19.4594 16.2505C19.2603 15.8914 19.1534 15.4521 19.1534 14.925C19.1534 14.2181 19.2959 13.604 19.7396 13.1846C20.1766 12.7717 20.7946 12.6546 21.4731 12.6546C22.4343 12.6546 22.7238 12.433 22.8328 12.2775C22.8968 12.1862 22.9423 12.0595 22.9679 11.8704C22.9942 11.6764 22.995 11.4576 22.995 11.1875C22.995 10.6995 22.9125 10.3544 22.6923 10.1199C22.475 9.88826 22.018 9.65479 21.0013 9.65479C20.7252 9.65479 20.5013 9.43093 20.5013 9.15479ZM27.9823 9.15479C27.9823 8.87864 28.2062 8.65479 28.4823 8.65479C29.6223 8.65479 30.4122 8.91309 30.9025 9.43555C31.39 9.95504 31.476 10.6263 31.476 11.1875V11.2041C31.476 11.4545 31.476 11.7372 31.4398 12.0045C31.4022 12.2825 31.3214 12.5821 31.1327 12.8514C30.7362 13.4172 30.0148 13.6546 28.9541 13.6546C28.352 13.6546 28.0602 13.767 27.9075 13.9114C27.7615 14.0494 27.6344 14.3205 27.6344 14.925C27.6344 15.3159 27.7129 15.5815 27.8149 15.7654C27.916 15.9477 28.0552 16.077 28.2205 16.1734C28.573 16.3792 29.0173 16.4256 29.4025 16.4596C29.6776 16.484 29.8808 16.7267 29.8565 17.0018C29.8322 17.2768 29.5895 17.4801 29.3144 17.4558L29.2891 17.4535C28.9273 17.4217 28.2772 17.3645 27.7163 17.0371C27.4183 16.8631 27.1405 16.6112 26.9404 16.2505C26.7412 15.8914 26.6344 15.4521 26.6344 14.925C26.6344 14.2181 26.7768 13.604 27.2206 13.1846C27.6575 12.7717 28.2756 12.6546 28.9541 12.6546C29.9152 12.6546 30.2048 12.433 30.3138 12.2775C30.3777 12.1862 30.4233 12.0595 30.4489 11.8704C30.4751 11.6764 30.476 11.4576 30.476 11.1875C30.476 10.6995 30.3934 10.3544 30.1733 10.1199C29.9559 9.88826 29.499 9.65479 28.4823 9.65479C28.2062 9.65479 27.9823 9.43093 27.9823 9.15479ZM6.95474 20.8693H7.45474H40.6136H41.1136V21.3693V26.1938C41.9784 26.2134 43.2556 26.317 44.4013 26.865C45.1095 27.2037 45.7786 27.7168 46.2676 28.4891C46.7567 29.2614 47.0444 30.2592 47.0444 31.5327C47.0444 33.6091 46.1695 34.9836 45.0529 35.8337C43.9587 36.6667 42.6578 36.9796 41.7799 37.0157L41.7696 37.0161H41.7593H41.7561H41.753H41.7497H41.7465H41.7432H41.74H41.7367H41.7333H41.73H41.7266H41.7233H41.7198H41.7164H41.713H41.7095H41.706H41.7025H41.6989H41.6954H41.6918H41.6882H41.6846H41.681H41.6773H41.6736H41.6699H41.6662H41.6624H41.6587H41.6549H41.6511H41.6472H41.6434H41.6395H41.6356H41.6317H41.6278H41.6238H41.6199H41.6159H41.6119H41.6078H41.6038H41.5997H41.5956H41.5915H41.5873H41.5832H41.579H41.5748H41.5706H41.5664H41.5621H41.5578H41.5535H41.5492H41.5449H41.5405H41.5361H41.5317H41.5273H41.5229H41.5184H41.514H41.5095H41.505H41.5004H41.4959H41.4913H41.4867H41.4821H41.4775H41.4728H41.4682H41.4635H41.4588H41.454H41.4493H41.4445H41.4397H41.4349H41.4301H41.4253H41.4204H41.4156H41.4107H41.4057H41.4008H41.3959H41.3909H41.3859H41.3809H41.3759H41.3708H41.3657H41.3607H41.3556H41.3504H41.3453H41.3401H41.335H41.3298H41.3246H41.3193H41.3141H41.3088H41.3035H41.2982H41.2929H41.2876H41.2822H41.2769H41.2715H41.2661H41.2606H41.2552H41.2497H41.2442H41.2387H41.2332H41.2277H41.2221H41.2166H41.211H41.2054H41.1998H41.1941H41.1885H41.1828H41.1771H41.1714H41.1657H41.1599H41.1542H41.1484H41.1426H41.1368H41.131H41.1251H41.1193H41.1134H41.1075H41.1016H41.0956H41.0897H41.0837H41.0778H41.0718H41.0658H41.0597H41.0537H41.0476H41.0415H41.0355H41.0293H41.0232H41.0171H41.0109H41.0047H40.9985H40.9923H40.9861H40.9799H40.9736H40.9673H40.9611H40.9548H40.9484H40.9421H40.9357H40.9294H40.923H40.9166H40.9102H40.9037H40.8973H40.8908H40.8844H40.8779H40.8714H40.8648H40.8583H40.8517H40.8452H40.8386H40.832H40.8254H40.8187H40.8121H40.8054H40.7987H40.7921H40.7853H40.7786H40.7719H40.7651H40.7584H40.7516H40.7448H40.738H40.7312H40.7243H40.7175H40.7106H40.7037H40.6968H40.6899H40.683H40.676H40.6691H40.6621H40.6551H40.6481H40.6411H40.634H40.627H40.6199H40.6129H40.6058H40.5987H40.5916H40.5844H40.5773H40.5701H40.563H40.5558H40.5486H40.5414H40.5342H40.5269H40.5197H40.5124H40.5051H40.4978H40.4905H40.4832H40.4759H40.4685H40.4611H40.4538H40.4464H40.439H40.4316H40.4241H40.4167H40.4092H40.4018H40.3943H40.3868H40.3793H40.3718H40.3642H40.3567H40.3491H40.3416H40.334H40.3264H40.3188H40.3111H40.3035H40.2959H40.2882H40.2805H40.2728H40.2651H40.2574H40.2497H40.242H40.2342H40.2265H40.2187H40.2109H40.2031H40.1953H40.1875H40.1796H40.1718H40.1639H40.1561H40.1482H40.1403H40.1324H40.1245H40.1165H40.1086H40.1006H40.0927H40.0847H40.0767H40.0687H40.0607H40.0527H40.0446H40.0366H40.0285H40.0205H40.0124H40.0043H39.9962H39.9881H39.9799H39.9718H39.9637H39.9555H39.9473H39.9391H39.931H39.9227H39.9145H39.9063H39.8981H39.8898H39.8816H39.8733H39.865H39.8567H39.8484H39.8401H39.8318H39.8235H39.8151H39.8068H39.7984H39.79H39.7816H39.7732H39.7648H39.7564H39.748H39.7396H39.7311H39.7227H39.7142H39.7057H39.6972H39.6887H39.6802H39.6717H39.6632H39.6546H39.6461H39.6375H39.629H39.6204H39.6118H39.6032H39.5946H39.586H39.5774H39.5687H39.5601H39.5514H39.5428H39.5341H39.5254H39.5167H39.508H39.4993H39.4906H39.4819H39.4731H39.4644H39.4556H39.4469H39.4381H39.4293H39.4205H39.4117H39.4029H39.3941H39.3853H39.3764H39.3676H39.3587H39.3499H39.341H39.3321H39.3233H39.3144H39.3055H39.2965H39.2876H39.2787H39.2698H39.2608H39.2519H39.2429H39.2339H39.225H39.216H39.207H39.198H39.189H39.1799H39.1709H39.1619H39.1528H39.1438H39.1347H39.1257H39.1166H39.1075H39.0984H39.0893H39.0802H39.0711H39.062H39.0529H39.0437H39.0346H39.0255H39.0163H39.0071H38.998H38.9888H38.9796H38.9704H38.9612H38.952H38.9428H38.9336H38.9244H38.9151H38.9059H38.8966H38.8874H38.8781H38.8688H38.8596H38.8503H38.841H38.8317H38.8224H38.8131H38.8038H38.7945H38.7851H38.7758H38.7665H38.7571H38.7478H38.7384H38.729H38.7197H38.7103H38.7009H38.6915H38.6821H38.6727H38.6633H38.6539H38.6445H38.6351H38.6256H38.6162H38.6067H38.5973H38.5878H38.5784H38.5689H38.5594H38.55H38.5405H38.531H38.5215H38.512H38.5025H38.493H38.4835H38.474H38.4644H38.4549H38.4454H38.4358H38.4263H38.4167H38.4072H38.3976H38.388H38.3785H38.37C36.5478 40.379 33.6343 43.5587 29.1354 45.3096L29.0479 45.3436H28.9541H28.9313H28.9086H28.8858H28.863H28.8403H28.8175H28.7947H28.7719H28.7492H28.7264H28.7036H28.6808H28.658H28.6352H28.6123H28.5895H28.5667H28.5439H28.5211H28.4982H28.4754H28.4526H28.4297H28.4069H28.3841H28.3612H28.3384H28.3155H28.2927H28.2698H28.247H28.2241H28.2013H28.1784H28.1556H28.1327H28.1099H28.087H28.0641H28.0413H28.0184H27.9956H27.9727H27.9498H27.927H27.9041H27.8812H27.8584H27.8355H27.8127H27.7898H27.767H27.7441H27.7212H27.6984H27.6755H27.6527H27.6298H27.607H27.5841H27.5613H27.5385H27.5156H27.4928H27.47H27.4471H27.4243H27.4015H27.3787H27.3558H27.333H27.3102H27.2874H27.2646H27.2418H27.219H27.1962H27.1734H27.1506H27.1279H27.1051H27.0823H27.0596H27.0368H27.014H26.9913H26.9685H26.9458H26.9231H26.9003H26.8776H26.8549H26.8322H26.8095H26.7868H26.7641H26.7414H26.7187H26.6961H26.6734H26.6508H26.6281H26.6055H26.5828H26.5602H26.5376H26.515H26.4924H26.4698H26.4472H26.4246H26.402H26.3795H26.3569H26.3344H26.3118H26.2893H26.2668H26.2443H26.2218H26.1993H26.1768H26.1543H26.1319H26.1094H26.087H26.0646H26.0421H26.0197H25.9973H25.975H25.9526H25.9302H25.9079H25.8855H25.8632H25.8409H25.8186H25.7963H25.774H25.7517H25.7294H25.7072H25.685H25.6627H25.6405H25.6183H25.5961H25.574H25.5518H25.5297H25.5075H25.4854H25.4633H25.4412H25.4191H25.3971H25.375H25.353H25.331H25.309H25.287H25.265H25.243H25.2211H25.1992H25.1772H25.1553H25.1335H25.1116H25.0897H25.0679H25.0461H25.0243H25.0025H24.9807H24.959H24.9372H24.9155H24.8938H24.8721H24.8504H24.8288H24.8071H24.7855H24.7639H24.7423H24.7208H24.6992H24.6777H24.6562H24.6347H24.6132H24.5917H24.5703H24.5489H24.5275H24.5061H24.4847H24.4634H24.4421H24.4208H24.3995H24.3782H24.357H24.3358H24.3145H24.2934H24.2722H24.2511H24.2299H24.2088H24.1878H24.1667H24.1457H24.1246H24.1036H24.0827H24.0617H24.0408H24.0199H23.999H23.9781H23.9573H23.9365H23.9157H23.8949H23.8742H23.8534H23.8327H23.812H23.7914H23.7708H23.7501H23.7296H23.709H23.6885H23.6679H23.6474H23.627H23.6065H23.5861H23.5657H23.5454H23.525H23.5047H23.4844H23.4641H23.4439H23.4237H23.4035H23.3833H23.3632H23.3431H23.323H23.3029H23.2829H23.2629H23.2429H23.2229H23.203H23.1831H23.1632H23.1434H23.1236H23.1038H23.084H23.0643H23.0446H23.0249H23.0052H22.9856H22.966H22.9465H22.9269H22.9074H22.8879H22.8685H22.8491H22.8297H22.8103H22.791H22.7717H22.7524H22.7332H22.7139H22.6948H22.6756H22.6565H22.6374H22.6183H22.5993H22.5803H22.5613H22.5424H22.5235H22.5046H22.4858H22.4669H22.4482H22.4294H22.4107H22.392H22.3734H22.3547H22.3362H22.3176H22.2991H22.2806H22.2621H22.2437H22.2253H22.207H22.1886H22.1704H22.1521H22.1339H22.1157H22.0975H22.0794H22.0613H22.0433H22.0253H22.0073H21.9893H21.9714H21.9536H21.9357H21.9179H21.9001H21.8824H21.8647H21.847H21.8294H21.8118H21.7943H21.7767H21.7593H21.7418H21.7244H21.707H21.6897H21.6724H21.6552H21.6379H21.6207H21.6036H21.5865H21.5694H21.5524H21.5354H21.5184H21.5015H21.4846H21.4678H21.451H21.4342H21.4175H21.4008H21.3842H21.3675H21.351H21.3345H21.318H21.3015H21.2851H21.2687H21.2524H21.2361H21.2199H21.2037H21.1875H21.1714H21.1553H21.1392H21.1232H21.1073H21.0914H21.0755H21.0596H21.0438H21.0281H21.0124H20.9967H20.9811H20.9655H20.95H20.9345H20.919H20.9036H20.8882H20.8729H20.8576H20.8424H20.8272H20.812H20.7969H20.7818H20.7668H20.7518H20.7369H20.722H20.7072H20.6924H20.6776H20.6629H20.6483H20.6336H20.6191H20.6045H20.59H20.5756H20.5612H20.5469H20.5326H20.5183H20.5041H20.49H20.4758H20.4618H20.4478H20.4338H20.4199H20.406H20.3921H20.3784H20.3646H20.3509H20.3373H20.3237H20.3101H20.2966H20.2832H20.2698H20.2564H20.2431H20.2299H20.2167H20.2035H20.1904H20.1774H20.1643H20.1514H20.1385H20.1256H20.1128H20.1H20.0873H20.0747H20.0621H20.0495H20.037H20.0245H20.0121H19.9998H19.9875H19.9752H19.963H19.9509H19.9388H19.9267H19.9147H19.9028H19.8909H19.8791H19.8673H19.8555H19.8438H19.8322H19.8206H19.8091H19.7976H19.7862H19.7749H19.7636H19.7523H19.7411H19.73H19.7189H19.7078H19.6968H19.6859H19.675H19.6642H19.6534H19.6427H19.6321H19.6215H19.6109H19.6004H19.59H19.5796H19.5693H19.559H19.5488H19.5386H19.5285H19.5185H19.5085H19.4986H19.4887H19.4789H19.4691H19.4594H19.4498H19.4402H19.4306H19.4212H19.4117H19.4024H19.3931H19.3838H19.2989L19.2188 45.3156C15.3979 43.9796 9.16081 39.2694 7.41858 30.9799C7.12065 29.5623 6.95474 28.0419 6.95474 26.4182V26.4038V26.3894V26.3749V26.3605V26.3461V26.3318V26.3174V26.3031V26.2887V26.2744V26.2601V26.2458V26.2315V26.2172V26.2029V26.1887V26.1744V26.1602V26.146V26.1318V26.1176V26.1034V26.0893V26.0751V26.061V26.0469V26.0328V26.0187V26.0046V25.9905V25.9765V25.9624V25.9484V25.9344V25.9204V25.9064V25.8924V25.8785V25.8645V25.8506V25.8367V25.8228V25.8089V25.795V25.7811V25.7673V25.7534V25.7396V25.7258V25.712V25.6982V25.6844V25.6707V25.6569V25.6432V25.6295V25.6158V25.6021V25.5885V25.5748V25.5612V25.5475V25.5339V25.5203V25.5067V25.4932V25.4796V25.4661V25.4525V25.439V25.4255V25.4121V25.3986V25.3851V25.3717V25.3583V25.3449V25.3315V25.3181V25.3047V25.2914V25.278V25.2647V25.2514V25.2381V25.2249V25.2116V25.1984V25.1851V25.1719V25.1587V25.1455V25.1324V25.1192V25.1061V25.093V25.0798V25.0668V25.0537V25.0406V25.0276V25.0146V25.0015V24.9885V24.9756V24.9626V24.9496V24.9367V24.9238V24.9109V24.898V24.8851V24.8723V24.8594V24.8466V24.8338V24.821V24.8083V24.7955V24.7828V24.77V24.7573V24.7446V24.732V24.7193V24.7067V24.694V24.6814V24.6688V24.6562V24.6437V24.6311V24.6186V24.6061V24.5936V24.5811V24.5687V24.5562V24.5438V24.5314V24.519V24.5066V24.4943V24.4819V24.4696V24.4573V24.445V24.4327V24.4205V24.4082V24.396V24.3838V24.3716V24.3594V24.3473V24.3352V24.323V24.3109V24.2989V24.2868V24.2747V24.2627V24.2507V24.2387V24.2267V24.2148V24.2028V24.1909V24.179V24.1671V24.1552V24.1434V24.1315V24.1197V24.1079V24.0962V24.0844V24.0726V24.0609V24.0492V24.0375V24.0259V24.0142V24.0026V23.9909V23.9793V23.9678V23.9562V23.9447V23.9331V23.9216V23.9101V23.8987V23.8872V23.8758V23.8644V23.853V23.8416V23.8303V23.8189V23.8076V23.7963V23.785V23.7738V23.7625V23.7513V23.7401V23.7289V23.7177V23.7066V23.6955V23.6843V23.6733V23.6622V23.6511V23.6401V23.6291V23.6181V23.6071V23.5962V23.5852V23.5743V23.5634V23.5526V23.5417V23.5309V23.52V23.5092V23.4985V23.4877V23.477V23.4663V23.4556V23.4449V23.4342V23.4236V23.413V23.4024V23.3918V23.3812V23.3707V23.3602V23.3497V23.3392V23.3288V23.3183V23.3079V23.2975V23.2871V23.2768V23.2665V23.2561V23.2458V23.2356V23.2253V23.2151V23.2049V23.1947V23.1845V23.1744V23.1643V23.1542V23.1441V23.134V23.124V23.1139V23.1039V23.094V23.084V23.0741V23.0641V23.0543V23.0444V23.0345V23.0247V23.0149V23.0051V22.9953V22.9856V22.9759V22.9662V22.9565V22.9468V22.9372V22.9276V22.918V22.9084V22.8988V22.8893V22.8798V22.8703V22.8609V22.8514V22.842V22.8326V22.8232V22.8139V22.8045V22.7952V22.7859V22.7767V22.7674V22.7582V22.749V22.7398V22.7307V22.7215V22.7124V22.7033V22.6943V22.6852V22.6762V22.6672V22.6582V22.6493V22.6404V22.6315V22.6226V22.6137V22.6049V22.5961V22.5873V22.5785V22.5698V22.561V22.5523V22.5436V22.535V22.5264V22.5178V22.5092V22.5006V22.4921V22.4835V22.4751V22.4666V22.4581V22.4497V22.4413V22.4329V22.4246V22.4163V22.408V22.3997V22.3914V22.3832V22.375V22.3668V22.3586V22.3505V22.3424V22.3343V22.3262V22.3182V22.3101V22.3021V22.2942V22.2862V22.2783V22.2704V22.2625V22.2547V22.2468V22.239V22.2313V22.2235V22.2158V22.2081V22.2004V22.1927V22.1851V22.1775V22.1699V22.1623V22.1548V22.1473V22.1398V22.1323V22.1249V22.1175V22.1101V22.1027V22.0954V22.0881V22.0808V22.0735V22.0663V22.0591V22.0519V22.0447V22.0376V22.0305V22.0234V22.0163V22.0093V22.0023V21.9953V21.9884V21.9814V21.9745V21.9676V21.9608V21.9539V21.9471V21.9403V21.9336V21.9269V21.9202V21.9135V21.9068V21.9002V21.8936V21.887V21.8805V21.8739V21.8674V21.861V21.8545V21.8481V21.8417V21.8353V21.829V21.8227V21.8164V21.8101V21.8039V21.7977V21.7915V21.7853V21.7792V21.7731V21.767V21.761V21.7549V21.7489V21.743V21.737V21.7311V21.7252V21.7193V21.7135V21.7077V21.7019V21.6961V21.6904V21.6847V21.679V21.6734V21.6677V21.6621V21.6566V21.651V21.6455V21.64V21.6346V21.6291V21.6237V21.6183V21.613V21.6077V21.6024V21.5971V21.5918V21.5866V21.5814V21.5763V21.5711V21.566V21.561V21.5559V21.5509V21.5459V21.5409V21.536V21.5311V21.5262V21.5213V21.5165V21.5117V21.507V21.5022V21.4975V21.4928V21.4881V21.4835V21.4789V21.4743V21.4698V21.4653V21.4608V21.4563V21.4519V21.4475V21.4431V21.4388V21.4345V21.4302V21.4259V21.4217V21.4175V21.4133V21.4091V21.405V21.4009V21.3969V21.3929V21.3889V21.3849V21.3809V21.377V21.3731V21.3693V20.8693ZM38.8782 36.0161H38.8874H38.8966H38.9059H38.9151H38.9244H38.9336H38.9428H38.952H38.9612H38.9704H38.9796H38.9888H38.998H39.0071H39.0163H39.0255H39.0346H39.0437H39.0529H39.062H39.0711H39.0802H39.0893H39.0984H39.1075H39.1166H39.1257H39.1347H39.1438H39.1528H39.1619H39.1709H39.1799H39.189H39.198H39.207H39.216H39.225H39.2339H39.2429H39.2519H39.2608H39.2698H39.2787H39.2876H39.2965H39.3055H39.3144H39.3233H39.3321H39.341H39.3499H39.3587H39.3676H39.3764H39.3853H39.3941H39.4029H39.4117H39.4205H39.4293H39.4381H39.4469H39.4556H39.4644H39.4731H39.4819H39.4906H39.4993H39.508H39.5167H39.5254H39.5341H39.5428H39.5514H39.5601H39.5687H39.5774H39.586H39.5946H39.6032H39.6118H39.6204H39.629H39.6375H39.6461H39.6546H39.6632H39.6717H39.6802H39.6887H39.6972H39.7057H39.7142H39.7227H39.7311H39.7396H39.748H39.7564H39.7648H39.7732H39.7816H39.79H39.7984H39.8068H39.8151H39.8235H39.8318H39.8401H39.8484H39.8567H39.865H39.8733H39.8816H39.8898H39.8981H39.9063H39.9145H39.9227H39.931H39.9391H39.9473H39.9555H39.9637H39.9718H39.9799H39.9881H39.9962H40.0043H40.0124H40.0205H40.0285H40.0366H40.0446H40.0527H40.0607H40.0687H40.0767H40.0847H40.0927H40.1006H40.1086H40.1165H40.1245H40.1324H40.1403H40.1482H40.1561H40.1639H40.1718H40.1796H40.1875H40.1953H40.2031H40.2109H40.2187H40.2265H40.2342H40.242H40.2497H40.2574H40.2651H40.2728H40.2805H40.2882H40.2959H40.3035H40.3111H40.3188H40.3264H40.334H40.3416H40.3491H40.3567H40.3642H40.3718H40.3793H40.3868H40.3943H40.4018H40.4092H40.4167H40.4241H40.4316H40.439H40.4464H40.4538H40.4611H40.4685H40.4759H40.4832H40.4905H40.4978H40.5051H40.5124H40.5197H40.5269H40.5342H40.5414H40.5486H40.5558H40.563H40.5701H40.5773H40.5844H40.5916H40.5987H40.6058H40.6129H40.6199H40.627H40.634H40.6411H40.6481H40.6551H40.6621H40.6691H40.676H40.683H40.6899H40.6968H40.7037H40.7106H40.7175H40.7243H40.7312H40.738H40.7448H40.7516H40.7584H40.7651H40.7719H40.7786H40.7853H40.7921H40.7987H40.8054H40.8121H40.8187H40.8254H40.832H40.8386H40.8452H40.8517H40.8583H40.8648H40.8714H40.8779H40.8844H40.8908H40.8973H40.9037H40.9102H40.9166H40.923H40.9294H40.9357H40.9421H40.9484H40.9548H40.9611H40.9673H40.9736H40.9799H40.9861H40.9923H40.9985H41.0047H41.0109H41.0171H41.0232H41.0293H41.0355H41.0415H41.0476H41.0537H41.0597H41.0658H41.0718H41.0778H41.0837H41.0897H41.0956H41.1016H41.1075H41.1134H41.1193H41.1251H41.131H41.1368H41.1426H41.1484H41.1542H41.1599H41.1657H41.1714H41.1771H41.1828H41.1885H41.1941H41.1998H41.2054H41.211H41.2166H41.2221H41.2277H41.2332H41.2387H41.2442H41.2497H41.2552H41.2606H41.2661H41.2715H41.2769H41.2822H41.2876H41.2929H41.2982H41.3035H41.3088H41.3141H41.3193H41.3246H41.3298H41.335H41.3401H41.3453H41.3504H41.3556H41.3607H41.3657H41.3708H41.3759H41.3809H41.3859H41.3909H41.3959H41.4008H41.4057H41.4107H41.4156H41.4204H41.4253H41.4301H41.4349H41.4397H41.4445H41.4493H41.454H41.4588H41.4635H41.4682H41.4728H41.4775H41.4821H41.4867H41.4913H41.4959H41.5004H41.505H41.5095H41.514H41.5184H41.5229H41.5273H41.5317H41.5361H41.5405H41.5449H41.5492H41.5535H41.5578H41.5621H41.5664H41.5706H41.5748H41.579H41.5832H41.5873H41.5915H41.5956H41.5997H41.6038H41.6078H41.6119H41.6159H41.6199H41.6238H41.6278H41.6317H41.6356H41.6395H41.6434H41.6472H41.6511H41.6549H41.6587H41.6624H41.6662H41.6699H41.6736H41.6773H41.681H41.6846H41.6882H41.6918H41.6954H41.6989H41.7025H41.706H41.7095H41.713H41.7164H41.7198H41.7233H41.7266H41.73H41.7333H41.7367H41.74H41.7432H41.7465H41.7487C42.4659 35.9846 43.5517 35.7197 44.4471 35.038C45.3244 34.3701 46.0444 33.2857 46.0444 31.5327C46.0444 30.413 45.793 29.6087 45.4228 29.0241C45.0525 28.4394 44.5421 28.0409 43.9698 27.7671C43.0126 27.3092 41.9143 27.2137 41.101 27.1942C41.0572 28.286 40.9018 29.5845 40.5932 30.9847C40.2425 32.5755 39.6925 34.3049 38.8782 36.0161ZM7.95474 21.8693V21.8739V21.8805V21.887V21.8936V21.9002V21.9068V21.9135V21.9202V21.9269V21.9336V21.9403V21.9471V21.9539V21.9608V21.9676V21.9745V21.9814V21.9884V21.9953V22.0023V22.0093V22.0163V22.0234V22.0305V22.0376V22.0447V22.0519V22.0591V22.0663V22.0735V22.0808V22.0881V22.0954V22.1027V22.1101V22.1175V22.1249V22.1323V22.1398V22.1473V22.1548V22.1623V22.1699V22.1775V22.1851V22.1927V22.2004V22.2081V22.2158V22.2235V22.2313V22.239V22.2468V22.2547V22.2625V22.2704V22.2783V22.2862V22.2942V22.3021V22.3101V22.3182V22.3262V22.3343V22.3424V22.3505V22.3586V22.3668V22.375V22.3832V22.3914V22.3997V22.408V22.4163V22.4246V22.4329V22.4413V22.4497V22.4581V22.4666V22.4751V22.4835V22.4921V22.5006V22.5092V22.5178V22.5264V22.535V22.5436V22.5523V22.561V22.5698V22.5785V22.5873V22.5961V22.6049V22.6137V22.6226V22.6315V22.6404V22.6493V22.6582V22.6672V22.6762V22.6852V22.6943V22.7033V22.7124V22.7215V22.7307V22.7398V22.749V22.7582V22.7674V22.7767V22.7859V22.7952V22.8045V22.8139V22.8232V22.8326V22.842V22.8514V22.8609V22.8703V22.8798V22.8893V22.8988V22.9084V22.918V22.9276V22.9372V22.9468V22.9565V22.9662V22.9759V22.9856V22.9953V23.0051V23.0149V23.0247V23.0345V23.0444V23.0543V23.0641V23.0741V23.084V23.094V23.1039V23.1139V23.124V23.134V23.1441V23.1542V23.1643V23.1744V23.1845V23.1947V23.2049V23.2151V23.2253V23.2356V23.2458V23.2561V23.2665V23.2768V23.2871V23.2975V23.3079V23.3183V23.3288V23.3392V23.3497V23.3602V23.3707V23.3812V23.3918V23.4024V23.413V23.4236V23.4342V23.4449V23.4556V23.4663V23.477V23.4877V23.4985V23.5092V23.52V23.5309V23.5417V23.5526V23.5634V23.5743V23.5852V23.5962V23.6071V23.6181V23.6291V23.6401V23.6511V23.6622V23.6733V23.6843V23.6955V23.7066V23.7177V23.7289V23.7401V23.7513V23.7625V23.7738V23.785V23.7963V23.8076V23.8189V23.8303V23.8416V23.853V23.8644V23.8758V23.8872V23.8987V23.9101V23.9216V23.9331V23.9447V23.9562V23.9678V23.9793V23.9909V24.0026V24.0142V24.0259V24.0375V24.0492V24.0609V24.0726V24.0844V24.0962V24.1079V24.1197V24.1315V24.1434V24.1552V24.1671V24.179V24.1909V24.2028V24.2148V24.2267V24.2387V24.2507V24.2627V24.2747V24.2868V24.2989V24.3109V24.323V24.3352V24.3473V24.3594V24.3716V24.3838V24.396V24.4082V24.4205V24.4327V24.445V24.4573V24.4696V24.4819V24.4943V24.5066V24.519V24.5314V24.5438V24.5562V24.5687V24.5811V24.5936V24.6061V24.6186V24.6311V24.6437V24.6562V24.6688V24.6814V24.694V24.7067V24.7193V24.732V24.7446V24.7573V24.77V24.7828V24.7955V24.8083V24.821V24.8338V24.8466V24.8594V24.8723V24.8851V24.898V24.9109V24.9238V24.9367V24.9496V24.9626V24.9756V24.9885V25.0015V25.0146V25.0276V25.0406V25.0537V25.0668V25.0798V25.093V25.1061V25.1192V25.1324V25.1455V25.1587V25.1719V25.1851V25.1984V25.2116V25.2249V25.2381V25.2514V25.2647V25.278V25.2914V25.3047V25.3181V25.3315V25.3449V25.3583V25.3717V25.3851V25.3986V25.4121V25.4255V25.439V25.4525V25.4661V25.4796V25.4932V25.5067V25.5203V25.5339V25.5475V25.5612V25.5748V25.5885V25.6021V25.6158V25.6295V25.6432V25.6569V25.6707V25.6844V25.6982V25.712V25.7258V25.7396V25.7534V25.7673V25.7811V25.795V25.8089V25.8228V25.8367V25.8506V25.8645V25.8785V25.8924V25.9064V25.9204V25.9344V25.9484V25.9624V25.9765V25.9905V26.0046V26.0187V26.0328V26.0469V26.061V26.0751V26.0893V26.1034V26.1176V26.1318V26.146V26.1602V26.1744V26.1887V26.2029V26.2172V26.2315V26.2458V26.2601V26.2744V26.2887V26.3031V26.3174V26.3318V26.3461V26.3605V26.3749V26.3894V26.4038V26.4182C7.95474 27.8219 8.08416 29.1411 8.31792 30.377H39.6996C39.9831 28.9751 40.104 27.7029 40.1136 26.6846C40.1144 26.5954 40.1144 26.5082 40.1136 26.4231L40.1136 26.4182V21.8693H7.95474ZM39.4741 31.377H8.53375C10.3468 38.8378 16.0073 43.0987 19.4698 44.3436H19.4789H19.4887H19.4986H19.5085H19.5185H19.5285H19.5386H19.5488H19.559H19.5693H19.5796H19.59H19.6004H19.6109H19.6215H19.6321H19.6427H19.6534H19.6642H19.675H19.6859H19.6968H19.7078H19.7189H19.73H19.7411H19.7523H19.7636H19.7749H19.7862H19.7976H19.8091H19.8206H19.8322H19.8438H19.8555H19.8673H19.8791H19.8909H19.9028H19.9147H19.9267H19.9388H19.9509H19.963H19.9752H19.9875H19.9998H20.0121H20.0245H20.037H20.0495H20.0621H20.0747H20.0873H20.1H20.1128H20.1256H20.1385H20.1514H20.1643H20.1774H20.1904H20.2035H20.2167H20.2299H20.2431H20.2564H20.2698H20.2832H20.2966H20.3101H20.3237H20.3373H20.3509H20.3646H20.3784H20.3921H20.406H20.4199H20.4338H20.4478H20.4618H20.4758H20.49H20.5041H20.5183H20.5326H20.5469H20.5612H20.5756H20.59H20.6045H20.6191H20.6336H20.6483H20.6629H20.6776H20.6924H20.7072H20.722H20.7369H20.7518H20.7668H20.7818H20.7969H20.812H20.8272H20.8424H20.8576H20.8729H20.8882H20.9036H20.919H20.9345H20.95H20.9655H20.9811H20.9967H21.0124H21.0281H21.0438H21.0596H21.0755H21.0914H21.1073H21.1232H21.1392H21.1553H21.1714H21.1875H21.2037H21.2199H21.2361H21.2524H21.2687H21.2851H21.3015H21.318H21.3345H21.351H21.3675H21.3842H21.4008H21.4175H21.4342H21.451H21.4678H21.4846H21.5015H21.5184H21.5354H21.5524H21.5694H21.5865H21.6036H21.6207H21.6379H21.6552H21.6724H21.6897H21.707H21.7244H21.7418H21.7593H21.7767H21.7943H21.8118H21.8294H21.847H21.8647H21.8824H21.9001H21.9179H21.9357H21.9536H21.9714H21.9893H22.0073H22.0253H22.0433H22.0613H22.0794H22.0975H22.1157H22.1339H22.1521H22.1704H22.1886H22.207H22.2253H22.2437H22.2621H22.2806H22.2991H22.3176H22.3362H22.3547H22.3734H22.392H22.4107H22.4294H22.4482H22.4669H22.4858H22.5046H22.5235H22.5424H22.5613H22.5803H22.5993H22.6183H22.6374H22.6565H22.6756H22.6948H22.7139H22.7332H22.7524H22.7717H22.791H22.8103H22.8297H22.8491H22.8685H22.8879H22.9074H22.9269H22.9465H22.966H22.9856H23.0052H23.0249H23.0446H23.0643H23.084H23.1038H23.1236H23.1434H23.1632H23.1831H23.203H23.2229H23.2429H23.2629H23.2829H23.3029H23.323H23.3431H23.3632H23.3833H23.4035H23.4237H23.4439H23.4641H23.4844H23.5047H23.525H23.5454H23.5657H23.5861H23.6065H23.627H23.6474H23.6679H23.6885H23.709H23.7296H23.7501H23.7708H23.7914H23.812H23.8327H23.8534H23.8742H23.8949H23.9157H23.9365H23.9573H23.9781H23.999H24.0199H24.0408H24.0617H24.0827H24.1036H24.1246H24.1457H24.1667H24.1878H24.2088H24.2299H24.2511H24.2722H24.2934H24.3145H24.3358H24.357H24.3782H24.3995H24.4208H24.4421H24.4634H24.4847H24.5061H24.5275H24.5489H24.5703H24.5917H24.6132H24.6347H24.6562H24.6777H24.6992H24.7208H24.7423H24.7639H24.7855H24.8071H24.8288H24.8504H24.8721H24.8938H24.9155H24.9372H24.959H24.9807H25.0025H25.0243H25.0461H25.0679H25.0897H25.1116H25.1335H25.1553H25.1772H25.1992H25.2211H25.243H25.265H25.287H25.309H25.331H25.353H25.375H25.3971H25.4191H25.4412H25.4633H25.4854H25.5075H25.5297H25.5518H25.574H25.5961H25.6183H25.6405H25.6627H25.685H25.7072H25.7294H25.7517H25.774H25.7963H25.8186H25.8409H25.8632H25.8855H25.9079H25.9302H25.9526H25.975H25.9973H26.0197H26.0421H26.0646H26.087H26.1094H26.1319H26.1543H26.1768H26.1993H26.2218H26.2443H26.2668H26.2893H26.3118H26.3344H26.3569H26.3795H26.402H26.4246H26.4472H26.4698H26.4924H26.515H26.5376H26.5602H26.5828H26.6055H26.6281H26.6508H26.6734H26.6961H26.7187H26.7414H26.7641H26.7868H26.8095H26.8322H26.8549H26.8776H26.9003H26.9231H26.9458H26.9685H26.9913H27.014H27.0368H27.0596H27.0823H27.1051H27.1279H27.1506H27.1734H27.1962H27.219H27.2418H27.2646H27.2874H27.3102H27.333H27.3558H27.3787H27.4015H27.4243H27.4471H27.47H27.4928H27.5156H27.5385H27.5613H27.5841H27.607H27.6298H27.6527H27.6755H27.6984H27.7212H27.7441H27.767H27.7898H27.8127H27.8355H27.8584H27.8812H27.9041H27.927H27.9498H27.9727H27.9956H28.0184H28.0413H28.0641H28.087H28.1099H28.1327H28.1556H28.1784H28.2013H28.2241H28.247H28.2698H28.2927H28.3155H28.3384H28.3612H28.3841H28.4069H28.4297H28.4526H28.4754H28.4982H28.5211H28.5439H28.5667H28.5895H28.6123H28.6352H28.658H28.6808H28.7036H28.7264H28.7492H28.7719H28.7947H28.8175H28.8403H28.8595C33.1568 42.6445 35.9138 39.5575 37.6268 36.2843C38.4866 34.6412 39.0819 32.9535 39.4741 31.377Z" fill="url(#paint0_linear_629_2857)"/>
<defs>
<linearGradient id="paint0_linear_629_2857" x1="50.8828" y1="45.3436" x2="-24.6099" y2="42.157" gradientUnits="userSpaceOnUse">
<stop offset="0.0146078" stop-color="#B45805"/>
<stop offset="0.438451" stop-color="#E38101"/>
<stop offset="1" stop-color="#FBF157"/>
</linearGradient>
</defs>
</svg>
