<svg width="64" height="64" viewBox="0 0 64 64" fill="none" xmlns="http://www.w3.org/2000/svg">
<circle cx="32" cy="32" r="31.5" stroke="white"/>
<path fill-rule="evenodd" clip-rule="evenodd" d="M27.6357 21.0623C28.7708 21.0124 29.137 21 32.0041 21C34.8704 21 35.2379 21.0124 36.3775 21.0665C37.5417 21.1179 38.3567 21.3076 39.0776 21.586C39.838 21.8725 40.5306 22.3237 41.1028 22.9039L41.0996 22.9008L40.7837 23.2241L41.1058 22.907L41.1028 22.9039C41.6887 23.4771 42.1357 24.166 42.426 24.9332C42.705 25.6512 42.8946 26.4706 42.9459 27.6344C42.9959 28.7707 43 29.1384 43 32.0021C43 34.8686 42.9876 35.2348 42.9377 36.3697C42.8863 37.5352 42.6961 38.3506 42.4174 39.072C41.8232 40.6083 40.6083 41.8231 39.0717 42.4173C38.3534 42.6966 37.5335 42.8864 36.3686 42.9377C35.2334 42.9878 34.8671 43 32.0001 43C29.1331 43 28.7666 42.9878 27.6316 42.9377C26.4668 42.8864 25.6518 42.6967 24.9307 42.4182C24.17 42.1316 23.4772 41.6801 22.9048 41.0997L22.9073 41.1022L23.2245 40.7801L22.9024 41.0972L22.9048 41.0997C22.3247 40.5279 21.8733 39.8396 21.5824 39.071C21.3034 38.3531 21.1136 37.5337 21.0623 36.3698C21.0124 35.2349 21 34.8686 21 32.0021C21 29.1363 21.0124 28.7689 21.0665 27.6295C21.1179 26.4654 21.3077 25.6508 21.5862 24.9299C21.8728 24.1697 22.3239 23.4773 22.9042 22.9051L22.9011 22.9082L23.2245 23.2241L22.9073 22.902L22.9042 22.9051C23.4776 22.3193 24.1666 21.8724 24.9341 21.5821C25.652 21.3034 26.4716 21.1136 27.6357 21.0623ZM32.0001 26.7895C29.1235 26.7895 26.7895 29.1233 26.7895 32C26.7895 34.8767 29.1235 37.2105 32.0001 37.2105C34.8768 37.2105 37.2106 34.8767 37.2106 32C37.2106 29.1233 34.8768 26.7895 32.0001 26.7895ZM38.3683 23.3158C37.0895 23.3158 36.0526 24.3524 36.0526 25.6316C36.0526 26.9105 37.0895 27.9474 38.3683 27.9474C39.6473 27.9474 40.6842 26.9105 40.6842 25.6316C40.6842 24.3524 39.6472 23.3158 38.3683 23.3158Z" fill="white"/>
</svg>
