<svg width="134" height="70" viewBox="0 0 134 70" fill="none" xmlns="http://www.w3.org/2000/svg">
<path d="M14.1024 69.7208H9.26482L8.91327 0.878906L12.2654 5.39968L12.4387 10.3485L17.8854 27.4861L17.6229 30.8637L20.0591 44.8965L18.9896 46.1619L18.6578 49.5067V50.8286L17.8804 53.3688V59.4138L15.7909 61.9823L14.1024 69.7208ZM9.93823 69.0763H13.5528L15.1472 61.7236L17.1971 59.2115V53.2559L17.9596 50.758V49.4925L18.3211 45.9267L19.3114 44.7366L16.9347 30.9155L17.1922 27.5755L11.7455 10.4332L11.5772 5.61137L9.59657 2.92055L9.93823 69.0763Z" fill="#2A4635"/>
<path d="M9.19931 69.4001H5.1886L0.360901 39.7445L1.91567 38.3521L1.82654 32.453L2.60393 29.4234L2.43062 27.1278L2.95053 26.0646L2.77723 23.5243L5.10443 19.1023L5.96599 11.6508L5.53521 9.59975L5.88181 8.20729L5.45103 7.38875L5.70851 5.17776L7.25833 2.31287L8.03571 2.06355L8.39222 0.341797L8.91213 0.384135L9.19931 69.4001Z" fill="#2A4635"/>
<path d="M9.53657 69.7216H4.90198L0 39.6285L1.57457 38.2173L1.48545 32.4216L2.25788 29.3968L2.08458 27.0729L2.57973 26.0051L2.40643 23.4601L4.74848 19.0098L5.62489 11.6665L5.18916 9.59665L5.52091 8.25124L5.10004 7.44682L5.40703 5.03354L7.02122 2.04635L7.74413 1.82054L8.11549 0L9.24444 0.0893806L9.53657 69.7216ZM5.4813 69.0771H8.85822L8.57598 1.12431L8.32841 2.30978L7.49656 2.57322L6.01111 5.27346L5.77344 7.32921L6.21412 8.17127L5.85761 9.60606L6.28344 11.6336L5.40703 19.2498L3.11944 23.5918L3.29274 26.1274L2.77284 27.1905L2.9709 29.4533L2.16875 32.4922L2.25293 38.4901L0.722918 39.8638L5.4813 69.0771Z" fill="#2A4635"/>
<path d="M9.9115 2.7832L12.105 10.4182L11.9317 5.50696L9.9115 2.7832Z" fill="#2A4635"/>
<path d="M12.5398 13.1704L9.07379 1.11816L12.2626 5.41314L12.5398 13.1704ZM10.7474 4.46288L11.6684 7.68529L11.5991 5.61072L10.7474 4.46288Z" fill="#2A4635"/>
<path d="M5.10443 19.1016L2.77723 23.5235L2.95053 26.0638L2.43062 27.127L2.60393 29.4227L1.82654 32.4522L1.91567 38.3513L0.360901 39.7438L3.20306 56.4674L5.10443 19.1016Z" fill="#2A4635"/>
<path d="M3.38658 59.5548L-0.000244141 39.6276L1.57433 38.2164L1.4852 32.4207L2.25764 29.3959L2.08433 27.072L2.57948 26.0041L2.40618 23.4591L5.49591 17.5977L3.38658 59.5548ZM0.722674 39.8628L3.02017 53.3828L4.68882 20.6131L3.1192 23.5909L3.2925 26.1264L2.79735 27.1896L2.97065 29.4523L2.16851 32.4913L2.25268 38.4892L0.722674 39.8628Z" fill="#2A4635"/>
<path d="M72.5426 26.3006C71.5523 26.5452 65.1451 26.5311 64.239 26.263C64.4767 26.0889 64.6846 25.929 64.8975 25.7926C65.192 25.6084 65.4339 25.3577 65.6015 25.063C65.7692 24.7683 65.8573 24.4387 65.8581 24.1037C65.8581 21.0083 65.8581 17.9177 65.8581 14.8223C65.8509 14.4697 65.7576 14.1235 65.5858 13.8108C65.414 13.4982 65.1682 13.2277 64.8678 13.0205C64.6599 12.8653 64.4618 12.7006 64.135 12.4419L70.8096 11.2894V13.999L71.0473 14.079C71.2949 13.8297 71.5424 13.5756 71.795 13.3263C73.2309 11.915 74.9293 11.0965 77.0782 11.2611C79.4005 11.4399 81.1038 12.9406 81.2028 15.1516C81.2969 17.2496 81.2424 19.3524 81.2573 21.4505C81.2573 21.921 81.2573 22.3914 81.2573 22.89C81.2919 24.8799 81.3811 25.0493 82.9358 26.2677C82.1931 26.5358 75.776 26.5782 74.6223 26.3241C74.6223 26.2912 74.6223 26.2395 74.6223 26.2253C76.0731 25.4586 76.3751 24.226 76.3305 22.763C76.2662 20.6649 76.3305 18.5621 76.3008 16.4593C76.303 15.8726 76.2197 15.2885 76.0532 14.7235C75.6225 13.3592 74.3846 12.7618 73.0427 13.3592C72.3405 13.7316 71.7054 14.208 71.1612 14.7705C70.9888 15.0086 70.9099 15.2966 70.9384 15.5843C70.9384 18.2375 70.9384 20.8907 70.9384 23.5439C70.9384 24.5647 71.2602 25.4256 72.2505 25.9666C72.3445 26.028 72.4265 26.1044 72.4931 26.1924C72.4931 26.1924 72.4931 26.2583 72.5179 26.2912" fill="#2A4635"/>
<path d="M45.7125 5.14782C45.9254 7.18005 46.1185 9.08056 46.3166 10.9811L46.1482 11.0705C45.97 10.8729 45.7868 10.6847 45.6184 10.4824C44.5588 9.21699 43.5586 7.8998 42.4198 6.71903C41.7809 6.07789 41.0408 5.53511 40.2262 5.11018C39.529 4.70121 38.7043 4.53399 37.892 4.63688C37.0798 4.73977 36.33 5.10644 35.7699 5.67469C34.942 6.45762 34.3106 7.40796 33.923 8.4549C33.315 10.0502 32.9629 11.7232 32.8782 13.4179C32.6157 16.1678 32.8842 18.9403 33.6705 21.5986C34.0247 22.848 34.6732 24.0045 35.5669 24.9809C37.0523 26.5615 38.7606 26.7826 40.6521 25.6348C42.0637 24.7161 43.287 23.5603 44.2617 22.2242C44.8856 21.4339 45.4649 20.6201 46.1581 19.8345C46.2423 21.8055 45.8363 23.7296 45.7274 25.7712C45.0886 25.9359 44.4746 26.1287 43.8408 26.2416C41.6363 26.6725 39.3861 26.8557 37.1365 26.7873C32.185 26.6086 28.5061 23.866 27.2781 19.3217C26.4926 16.5608 26.6031 13.639 27.595 10.9387C28.2747 9.04187 29.539 7.38298 31.2238 6.17749C32.9085 4.972 34.9358 4.2756 37.0424 4.17874C39.9683 4.0608 42.8953 4.38795 45.7125 5.14782Z" fill="#2A4635"/>
<path d="M117.843 16.5461C117.843 15.4735 117.887 14.4809 117.843 13.493C117.793 12.6792 117.476 11.95 116.55 11.7148C116.133 11.6043 115.69 11.6232 115.284 11.7687C114.879 11.9143 114.533 12.1788 114.297 12.524C113.589 13.456 113.109 14.5263 112.891 15.657C112.787 16.0804 112.698 16.5037 112.574 17.0447L108.994 15.0219C109.281 14.6053 109.59 14.2033 109.92 13.8176C111.272 12.3606 113.17 11.464 115.208 11.3197C116.403 11.2039 117.61 11.2562 118.788 11.4749C121.343 11.9877 122.611 13.5824 122.641 16.1791C122.641 17.8727 122.561 19.5709 122.517 21.2644C122.517 22.0406 122.482 22.8121 122.467 23.5883C122.467 24.0588 122.497 24.5292 123.002 24.7174C123.507 24.9055 123.898 24.6515 124.245 24.3316C124.379 24.2046 124.502 24.0588 124.641 23.9082C124.488 25.3995 122.814 26.6978 120.997 26.759C119.18 26.8201 118.184 25.9969 117.714 23.7577L116.991 24.4633C115.906 25.6397 114.426 26.4227 112.802 26.679C111.595 26.8836 110.351 26.6321 109.336 25.9781C108.907 25.7036 108.544 25.3448 108.274 24.9258C108.003 24.5069 107.83 24.0376 107.767 23.5497C107.703 23.0618 107.751 22.5666 107.906 22.0977C108.062 21.6288 108.321 21.197 108.668 20.8316C109.388 20.0146 110.278 19.3469 111.282 18.87C113.059 18.0656 114.951 17.4963 116.793 16.8377C117.085 16.7343 117.387 16.6684 117.818 16.5508M117.783 17.0212C116.797 17.1944 115.86 17.5596 115.03 18.0938C112.951 19.331 112.658 21.4996 113.168 23.2308C113.252 23.5759 113.447 23.8874 113.727 24.1213C114.007 24.3551 114.357 24.4995 114.728 24.5339C115.464 24.5837 116.191 24.3583 116.755 23.9056C117.318 23.453 117.673 22.809 117.744 22.1112C117.773 20.9351 117.788 19.7591 117.803 18.5783C117.803 18.075 117.803 17.5716 117.803 17.0071" fill="#2A4635"/>
<path d="M125.493 4.77195L132.099 3.65234C132.099 4.06161 132.148 4.4897 132.148 4.91778V21.8531C132.148 22.2623 132.148 22.6669 132.148 23.0715C132.109 24.3981 132.361 25.5882 133.876 26.1998C133.084 26.5432 126.692 26.6043 125.484 26.3268C127.127 24.8261 127.127 24.8261 127.127 22.5117C127.127 18.121 127.127 13.7304 127.127 9.33977C127.127 8.78938 127.127 8.23428 127.093 7.68388C127.111 7.19895 126.999 6.71759 126.767 6.2854C126.534 5.85321 126.19 5.48449 125.766 5.21415C125.602 5.12007 125.419 5.05421 125.271 4.97424L125.498 4.77195" fill="#2A4635"/>
<path d="M63.1152 17.2134H52.9795C52.5983 19.7819 53.7421 22.007 55.8514 22.9667C57.1288 23.5323 58.5694 23.6732 59.9413 23.3666C60.7237 23.2113 61.2832 23.3007 63.1647 21.0568C62.4567 25.7281 58.6589 27.1723 55.2424 26.7019C53.8095 26.4967 52.4582 25.9382 51.3234 25.0821C50.1885 24.2259 49.3098 23.1021 48.7747 21.8227C48.2396 20.5433 48.067 19.1529 48.2739 17.7903C48.4809 16.4277 49.0602 15.1404 49.9542 14.0569C50.5893 13.2287 51.4149 12.549 52.3682 12.0697C53.3215 11.5904 54.3773 11.324 55.4553 11.2908C56.5737 11.2151 57.6977 11.304 58.7876 11.5542C60.0719 11.8966 61.1976 12.6395 61.9835 13.6635C62.7694 14.6875 63.1698 15.9329 63.1202 17.1993M58.6143 16.7289C58.68 15.3907 58.387 14.0585 57.7627 12.8573C57.6042 12.4874 57.3332 12.1707 56.9844 11.9478C56.6356 11.7248 56.2247 11.6058 55.8044 11.6058C55.384 11.6058 54.9731 11.7248 54.6243 11.9478C54.2755 12.1707 54.0045 12.4874 53.846 12.8573C53.2048 14.0492 52.9156 15.3839 53.0092 16.7195L58.6143 16.7289Z" fill="#2A4635"/>
<path d="M103.608 26.3923H94.8341C94.8341 26.2841 94.8341 26.2323 94.8341 26.2229C96.2304 25.4561 96.4929 24.2236 96.4681 22.8217C96.4285 20.5731 96.4681 18.3245 96.4681 16.0711C96.4681 14.6599 96.2898 13.3239 94.5172 12.4724L101.286 11.2916L101.439 13.6014C103.752 11.2493 105.292 10.7224 107.297 11.6445C107.089 13.1969 106.881 14.7869 106.634 16.6592C106.203 16.137 105.975 15.8077 105.693 15.5255C105.128 14.9704 104.564 14.4153 103.95 13.9166C103.746 13.7119 103.472 13.5816 103.178 13.5481C102.883 13.5145 102.585 13.58 102.336 13.7331C102.064 13.8746 101.838 14.0849 101.684 14.3406C101.531 14.5964 101.454 14.8876 101.464 15.182C101.494 17.3225 101.464 19.4629 101.464 21.5986C101.464 22.1914 101.464 22.7794 101.464 23.3721C101.464 24.5529 101.9 25.442 103.093 25.9218C103.295 26.0167 103.492 26.1219 103.682 26.237L103.608 26.3923Z" fill="#2A4635"/>
<path d="M84.9523 12.1948L83.4669 12.0913C85.8337 10.6565 87.9678 9.31584 89.8196 7.5V11.5456L93.8947 11.6162C93.1668 11.9737 93.1668 11.9737 91.8794 11.9737H89.9632C89.9286 12.3924 89.879 12.7123 89.879 13.0322C89.8526 15.8547 89.8378 18.6914 89.8345 21.5422C89.828 22.0177 89.8863 22.4921 90.0078 22.9534C90.0682 23.264 90.206 23.5562 90.4098 23.8057C90.6136 24.0552 90.8774 24.2547 91.179 24.3874C91.4806 24.5201 91.8113 24.5821 92.1434 24.5684C92.4755 24.5546 92.7993 24.4654 93.0876 24.3083C93.3649 24.1859 93.6224 24.0166 94.0779 23.7767C94.0169 24.0021 93.9323 24.2212 93.8254 24.4306C93.412 25.0369 92.8674 25.5527 92.228 25.9437C91.5886 26.3346 90.8688 26.5918 90.1167 26.698C87.8192 27.032 85.0563 26.0488 84.9721 22.6759C84.9127 20.1356 84.9721 17.5953 84.9721 15.0503V12.1948" fill="#2A4635"/>
<path d="M41.4786 56.4928C41.6024 56.3658 41.642 56.2858 41.7014 56.2623C43.2562 55.6743 43.7811 54.5641 43.7266 53.0211C43.6523 50.7725 43.7266 48.5238 43.7266 46.2752C43.7266 46.0212 43.6969 45.7718 43.6771 45.4567H34.9724C34.9426 45.753 34.8931 46.04 34.8882 46.3222C34.8882 48.4627 34.8882 50.5984 34.8882 52.7388C34.8882 53.0305 34.9228 53.3269 34.9228 53.6232C34.8927 54.1438 35.0357 54.6602 35.3316 55.0992C35.6276 55.5382 36.0614 55.8777 36.5717 56.0694C36.7321 56.1452 36.8875 56.23 37.0371 56.3235C37.0437 56.3735 37.0437 56.424 37.0371 56.474C37.0371 56.5069 36.9926 56.5587 36.9678 56.5587L27.7778 56.6151C27.5946 56.6151 27.4114 56.5775 26.946 56.5305C27.4758 56.2106 27.7778 56.0271 28.0898 55.853C28.4364 55.6819 28.7288 55.426 28.9368 55.1118C29.1448 54.7976 29.2609 54.4364 29.2732 54.0654C29.3029 53.4774 29.3623 52.8894 29.3673 52.3013C29.3673 47.8354 29.3673 43.3743 29.3673 38.9178C29.3673 38.5132 29.3376 38.1039 29.3376 37.6994C29.3809 37.161 29.2412 36.6236 28.9391 36.1663C28.6369 35.709 28.1882 35.3559 27.659 35.1591C27.4928 35.0752 27.3367 34.9742 27.1936 34.858C27.1936 34.858 27.1936 34.7921 27.1936 34.6887H37.359C36.8094 35.0132 36.4826 35.2202 36.1409 35.4084C35.8076 35.5665 35.5257 35.8074 35.3252 36.1057C35.1247 36.4039 35.013 36.7482 35.0021 37.1019C35.0021 39.3035 35.0021 41.5098 35.0021 43.7914H43.6078C43.6572 43.6381 43.6903 43.4805 43.7068 43.3209C43.7068 41.4392 43.7068 39.5575 43.7068 37.6758C43.7494 37.157 43.6187 36.6386 43.3334 36.1944C43.048 35.7501 42.6225 35.4027 42.1174 35.2014C41.9143 35.112 41.7262 34.9897 41.4885 34.858C42.2659 34.5663 49.4109 34.4817 51.6143 34.7357C51.3236 34.934 51.021 35.1162 50.7082 35.2814C50.3046 35.4678 49.962 35.7549 49.7169 36.1121C49.4719 36.4692 49.3336 36.8829 49.3168 37.3089C49.2822 37.7135 49.2673 38.118 49.2673 38.5226V52.6871C49.2673 52.9835 49.2673 53.2751 49.2673 53.5715C49.2348 54.0918 49.3731 54.6088 49.6632 55.0512C49.9532 55.4936 50.3806 55.8395 50.8864 56.0412C51.1023 56.1467 51.3122 56.2629 51.5153 56.3893C50.7082 56.6622 43.1374 56.7327 41.4638 56.4881" fill="#2A4635"/>
<path d="M79.7193 56.5675H71.0146C71.2077 56.3606 71.277 56.2429 71.381 56.1865C72.4703 55.6267 72.807 54.7 72.807 53.5945C72.807 50.6057 72.807 47.6185 72.807 44.6329C72.807 42.7182 72.807 40.7989 72.807 38.8843C72.807 37.3601 72.6981 35.8971 70.8264 34.9845L77.7585 33.8037C77.7585 34.1659 77.8229 34.5846 77.8229 35.008C77.8229 40.7221 77.8229 46.4362 77.8229 52.1503C77.8229 52.743 77.8674 53.331 77.8674 53.9191C77.8403 54.3642 77.9469 54.8075 78.1749 55.1973C78.4028 55.5871 78.7427 55.9073 79.1548 56.1206C79.3479 56.265 79.5299 56.4222 79.6995 56.5911" fill="#2A4635"/>
<path d="M70.1992 56.5294H61.7223C61.9129 56.3623 62.1129 56.2053 62.3214 56.0589C62.7063 55.8405 63.0215 55.5269 63.2334 55.1516C63.4453 54.7763 63.5459 54.3533 63.5246 53.9279C63.5246 53.4575 63.5642 52.9871 63.5692 52.5166V39.6788C63.5692 39.1284 63.5246 38.578 63.5246 38.0229C63.5739 37.4682 63.4613 36.9113 63.1993 36.4133C62.9372 35.9154 62.5358 35.4957 62.0392 35.2003C61.955 35.1533 61.9154 35.0357 61.8411 34.9322L68.5454 33.7891C68.5454 34.1325 68.595 34.5135 68.595 34.8993C68.595 40.4973 68.595 46.0969 68.595 51.6981C68.595 52.1403 68.6197 52.5825 68.595 53.0247C68.5108 54.436 68.7683 55.6779 70.2141 56.52" fill="#2A4635"/>
<path d="M91.6383 42.2965C91.772 43.7783 91.8958 45.1566 92.0146 46.5303L91.8215 46.6103C91.6532 46.3892 91.5046 46.1398 91.3264 45.9423C90.44 44.9214 89.6032 43.8536 88.6327 42.908C88.1027 42.43 87.464 42.0743 86.766 41.8684C86.5077 41.7834 86.2319 41.7574 85.9609 41.7924C85.69 41.8274 85.4315 41.9224 85.2064 42.0699C84.9813 42.2174 84.7959 42.4131 84.6652 42.6412C84.5344 42.8693 84.4619 43.1235 84.4537 43.3831C84.3906 43.8052 84.4494 44.2356 84.6238 44.6283C84.7982 45.0211 85.0817 45.3614 85.444 45.613C86.1917 46.1351 87.0235 46.5538 87.8158 46.996C89.0112 47.6027 90.1685 48.275 91.2818 49.0094C92.082 49.5807 92.6614 50.3869 92.93 51.303C93.1985 52.2191 93.1413 53.1938 92.7672 54.0759C92.0839 55.7694 90.6381 56.6068 88.8704 56.8655C86.3449 57.1675 83.7804 56.8215 81.4432 55.8635C81.2649 54.3346 81.0916 52.8481 80.8886 51.0981C81.2253 51.4697 81.3838 51.6391 81.5521 51.8273C82.4681 52.9186 83.3099 54.0806 84.315 55.092C84.9602 55.6709 85.6991 56.1474 86.5036 56.5033C87.791 57.1431 89.4993 56.1363 89.2269 54.3158C89.1797 53.9664 89.0567 53.6301 88.8658 53.3281C88.6749 53.0261 88.4202 52.7649 88.1178 52.5611C87.3008 52.0013 86.4343 51.5121 85.5876 50.9946C84.5973 50.3784 83.5129 49.8327 82.5672 49.1364C82.0741 48.7762 81.6698 48.318 81.3825 47.794C81.0951 47.2699 80.9316 46.6925 80.9035 46.1022C80.7648 44.1782 81.6462 42.6916 83.5079 41.9531C84.2247 41.6791 84.9809 41.5094 85.751 41.4497C87.7552 41.3497 89.7596 41.6444 91.6383 42.3153" fill="#2A4635"/>
<path d="M60.9444 56.5407H52.5714C54.3094 54.9977 54.344 54.9271 54.3539 52.6503C54.3539 50.7686 54.3539 48.8869 54.3539 47.0052C54.3539 46.4172 54.2945 45.8291 54.2599 45.2411C54.258 44.7993 54.1402 44.3649 53.9171 43.9772C53.6941 43.5895 53.3728 43.2608 52.9824 43.0207C52.8111 42.9319 52.6341 42.8534 52.4526 42.7855L52.6457 42.5973L59.3104 41.4307V51.8459C59.3104 52.1799 59.3104 52.5092 59.3104 52.8432C59.3104 54.2827 59.3946 55.6657 61.1424 56.376L60.9444 56.5407Z" fill="#2A4635"/>
<path d="M59.0461 37.2003C59.0309 37.8334 58.7595 38.4365 58.2882 38.8842C57.817 39.332 57.1822 39.5898 56.5158 39.6042C55.8314 39.6171 55.1688 39.3755 54.6693 38.9308C54.1698 38.4861 53.8729 37.8736 53.842 37.2239C53.8917 36.6005 54.1873 36.0179 54.6698 35.5929C55.1523 35.1678 55.786 34.9316 56.4441 34.9316C57.1021 34.9316 57.7358 35.1678 58.2183 35.5929C58.7008 36.0179 58.9964 36.6005 59.0461 37.2239" fill="#2A4635"/>
<path d="M33.1329 67.3454H31.9049V69.928H31.2959V67.3454H30.0629L28.2507 69.928H27.5228L29.5529 67.0255L27.6763 64.3018H28.3547L30.053 66.8232H31.2959V64.3018H31.9049V66.8232H33.1329L34.8411 64.3018H35.5195L33.6429 67.0255L35.673 69.928H34.9451L33.1329 67.3454Z" fill="#2A4635"/>
<path d="M37.0934 64.3018H37.7124V68.9637L41.5003 64.3018H42.0697V69.928H41.4508V65.2708L37.6579 69.928H37.0934V64.3018Z" fill="#2A4635"/>
<path d="M48.3674 64.8145H46.2828V69.928H45.6688V64.8145H43.5842V64.3018H48.3674V64.8145Z" fill="#2A4635"/>
<path d="M54.2258 64.3018V69.9468H53.6069V64.8145H50.7499L50.6806 66.6962C50.6682 67.3275 50.6019 67.9568 50.4825 68.5779C50.4158 68.9667 50.2453 69.3327 49.9874 69.6411C49.8818 69.7558 49.7505 69.8466 49.6031 69.9069C49.4557 69.9671 49.296 69.9952 49.1357 69.9892C48.9688 69.9899 48.8025 69.971 48.6406 69.9327L48.6901 69.4012C48.7823 69.4234 48.8772 69.4345 48.9723 69.4341C49.0895 69.4367 49.2056 69.4124 49.3108 69.3633C49.4159 69.3141 49.5071 69.2416 49.5764 69.1518C49.7622 68.8911 49.8825 68.5934 49.928 68.2815C50.021 67.7637 50.0739 67.2402 50.0864 66.715L50.1706 64.3065L54.2258 64.3018Z" fill="#2A4635"/>
<path d="M57.6493 69.6223C57.1863 69.3836 56.801 69.0289 56.5352 68.5968C56.2692 68.1506 56.1294 67.6465 56.1294 67.1338C56.1294 66.621 56.2692 66.1169 56.5352 65.6707C56.801 65.2386 57.1863 64.8839 57.6493 64.6452C58.1414 64.4035 58.6873 64.2773 59.2412 64.2773C59.7952 64.2773 60.3411 64.4035 60.8331 64.6452C61.2948 64.884 61.6785 65.2388 61.9423 65.6707C62.2082 66.1186 62.348 66.6242 62.348 67.1385C62.348 67.6527 62.2082 68.1583 61.9423 68.6062C61.6785 69.0382 61.2948 69.3929 60.8331 69.6317C60.3411 69.8734 59.7952 69.9996 59.2412 69.9996C58.6873 69.9996 58.1414 69.8734 57.6493 69.6317M60.5162 69.1613C60.8873 68.9672 61.1941 68.6789 61.4026 68.3286C61.6136 67.9623 61.7243 67.5514 61.7243 67.1338C61.7243 66.7161 61.6136 66.3052 61.4026 65.9389C61.1943 65.5873 60.8875 65.2975 60.5162 65.1015C60.1244 64.9038 59.6874 64.8004 59.2437 64.8004C58.8 64.8004 58.3631 64.9038 57.9712 65.1015C57.5971 65.2971 57.287 65.5868 57.075 65.9389C56.8608 66.3042 56.7483 66.7155 56.7483 67.1338C56.7483 67.552 56.8608 67.9633 57.075 68.3286C57.2873 68.6793 57.5974 68.9674 57.9712 69.1613C58.3631 69.359 58.8 69.4624 59.2437 69.4624C59.6874 69.4624 60.1244 69.359 60.5162 69.1613Z" fill="#2A4635"/>
<path d="M68.7168 67.4947C68.9388 67.7508 69.0535 68.0758 69.0386 68.4073C69.0504 68.6226 69.007 68.8374 68.9122 69.0333C68.8173 69.2291 68.6738 69.4001 68.494 69.5316C68.018 69.8242 67.4553 69.9628 66.8897 69.9268H64.2654V64.2817H66.7411C67.2647 64.2514 67.7848 64.3799 68.2266 64.6486C68.4022 64.7714 68.543 64.9336 68.6363 65.1208C68.7296 65.308 68.7726 65.5143 68.7613 65.7212C68.7703 66.0067 68.6817 66.2873 68.5088 66.5209C68.3257 66.7417 68.0775 66.9055 67.7958 66.9913C68.1559 67.0438 68.4872 67.2094 68.7366 67.4618M64.9041 66.8126H66.7164C67.0873 66.837 67.4562 66.7444 67.7661 66.5491C67.8825 66.4533 67.9758 66.3348 68.0398 66.2017C68.1038 66.0686 68.1369 65.924 68.1369 65.7776C68.1369 65.6313 68.1038 65.4867 68.0398 65.3536C67.9758 65.2205 67.8825 65.102 67.7661 65.0061C67.4562 64.8109 67.0873 64.7183 66.7164 64.7427H64.9041V66.8126ZM68.4395 68.332C68.4395 67.6264 67.9295 67.2736 66.9095 67.2736H64.9289V69.4187H66.9095C67.9295 69.4187 68.4395 69.0565 68.4395 68.332Z" fill="#2A4635"/>
<path d="M71.037 64.3018H71.651V68.9637L75.4439 64.3018H76.0083V69.928H75.3894V65.2708L71.6015 69.928H71.037V64.3018Z" fill="#2A4635"/>
<path d="M78.4257 64.3005H79.0447V68.9624L82.8325 64.3005H83.402V69.9456H82.783V65.2931L78.9902 69.9456H78.4257V64.3005ZM79.9112 63.6184C79.7898 63.5273 79.6925 63.4106 79.6272 63.2774C79.5618 63.1443 79.5302 62.9984 79.5349 62.8516H80.0003C79.9991 62.9494 80.0218 63.0461 80.0664 63.1342C80.1111 63.2224 80.1766 63.2995 80.2578 63.3596C80.4535 63.4792 80.6812 63.5427 80.9138 63.5427C81.1465 63.5427 81.3742 63.4792 81.5699 63.3596C81.652 63.3002 81.7181 63.2233 81.7629 63.135C81.8076 63.0467 81.8297 62.9495 81.8274 62.8516H82.2928C82.2975 62.9984 82.2659 63.1443 82.2005 63.2774C82.1352 63.4106 82.0379 63.5273 81.9165 63.6184C81.6157 63.7964 81.2683 63.8908 80.9138 63.8908C80.5594 63.8908 80.212 63.7964 79.9112 63.6184Z" fill="#2A4635"/>
<path d="M90.4236 67.3454H89.0719V69.928H88.4628V64.3018H89.0719V66.8232H90.4236L92.429 64.3018H93.1073L90.9039 67.0349L93.2311 69.928H92.5131L90.4236 67.3454Z" fill="#2A4635"/>
<path d="M99.0689 67.4947C99.2909 67.7508 99.4056 68.0758 99.3907 68.4073C99.4025 68.6226 99.3592 68.8374 99.2643 69.0333C99.1694 69.2291 99.0259 69.4001 98.8461 69.5316C98.3704 69.8248 97.8075 69.9635 97.2418 69.9268H94.6175V64.2817H97.0932C97.6168 64.2514 98.137 64.3799 98.5787 64.6486C98.7527 64.7725 98.8921 64.9351 98.9845 65.1221C99.0769 65.3091 99.1194 65.5149 99.1085 65.7212C99.1175 66.0067 99.0289 66.2873 98.856 66.5209C98.6729 66.7417 98.4246 66.9055 98.143 66.9913C98.5035 67.0427 98.8351 67.2085 99.0837 67.4618M95.2513 66.8126H97.0487C97.4211 66.8362 97.7914 66.7437 98.1033 66.5491C98.2183 66.4525 98.3104 66.3337 98.3734 66.2007C98.4365 66.0677 98.4691 65.9235 98.4691 65.7776C98.4691 65.6318 98.4365 65.4876 98.3734 65.3546C98.3104 65.2216 98.2183 65.1028 98.1033 65.0061C97.7914 64.8115 97.4211 64.719 97.0487 64.7427H95.2364L95.2513 66.8126ZM98.7866 68.332C98.7866 67.6264 98.2766 67.2736 97.2566 67.2736H95.276V69.4187H97.2566C98.2766 69.4187 98.7866 69.0565 98.7866 68.332Z" fill="#2A4635"/>
<path d="M105.166 68.422H101.868L101.155 69.9273H100.511L103.22 64.2822H103.834L106.542 69.9273H105.884L105.166 68.422ZM104.938 67.9515L103.517 64.9173L102.096 67.9421L104.938 67.9515Z" fill="#2A4635"/>
<path d="M112.086 64.8133C112.289 64.9945 112.451 65.2132 112.561 65.4559C112.671 65.6986 112.728 65.9602 112.728 66.2246C112.728 66.489 112.671 66.7506 112.561 66.9933C112.451 67.236 112.289 67.4547 112.086 67.6359C111.576 67.9996 110.946 68.1796 110.309 68.1439H108.719V69.9221H108.091V64.277H110.309C110.947 64.2406 111.578 64.4225 112.086 64.7898M111.636 67.236C111.792 67.1105 111.916 66.952 111.997 66.7732C112.078 66.5943 112.113 66.4001 112.101 66.2058C112.114 66.0087 112.079 65.8114 111.998 65.6294C111.917 65.4474 111.793 65.2856 111.636 65.1567C111.248 64.8886 110.773 64.7587 110.294 64.7898H108.719V67.6123H110.294C110.773 67.6434 111.248 67.5135 111.636 67.2454" fill="#2A4635"/>
<path d="M118.121 64.8145H116.041V69.928H115.422V64.8145H113.342V64.3018H118.121V64.8145Z" fill="#2A4635"/>
<path d="M123.143 68.422H119.825L119.117 69.9273H118.464L121.172 64.2822H121.806L124.51 69.9273H123.851L123.143 68.422ZM122.91 67.9515L121.489 64.9173L120.068 67.9421L122.91 67.9515Z" fill="#2A4635"/>
<path d="M130.721 64.3018V69.9468H130.102V64.8145H127.254L127.185 66.6962C127.175 67.3276 127.109 67.9571 126.987 68.5779C126.918 68.9661 126.748 69.3316 126.492 69.6411C126.385 69.7554 126.253 69.8459 126.105 69.9061C125.957 69.9662 125.796 69.9946 125.635 69.9892C125.468 69.9899 125.302 69.971 125.14 69.9327L125.195 69.4012C125.285 69.4234 125.378 69.4345 125.472 69.4341C125.589 69.4367 125.705 69.4124 125.81 69.3633C125.916 69.3141 126.007 69.2416 126.076 69.1518C126.262 68.8911 126.382 68.5934 126.428 68.2815C126.52 67.7636 126.575 67.2402 126.591 66.715L126.675 64.3065L130.721 64.3018Z" fill="#2A4635"/>
</svg>
