<svg width="208" height="208" viewBox="0 0 208 208" fill="none" xmlns="http://www.w3.org/2000/svg">
<path d="M101.554 47.8292C100.169 47.4363 98.8358 47.462 97.5999 47.7905C96.791 48.0031 96.0468 48.2736 95.3026 48.5377C94.3514 48.8662 93.4519 49.2204 92.5136 49.5489C92.3906 49.6004 92.2612 49.6391 92.1318 49.6842C90.5852 50.193 88.9351 50.5537 87.0908 50.734C85.4924 50.8886 83.8747 50.9079 82.1728 50.5794C80.4126 50.2316 79.5002 49.5296 79.552 48.5377C79.5779 48.2672 79.5973 47.9838 79.6167 47.6553C79.6167 47.6553 76.2841 49.8709 79.7396 52.0737C79.772 52.0931 79.7979 52.1059 79.8044 52.1253C80.7038 52.6341 81.7845 52.9755 82.9364 53.2782C83.1758 53.3297 83.4023 53.3941 83.6158 53.4521C82.4446 53.5036 81.3057 53.4714 80.1473 53.1429C79.552 52.9819 79.0537 52.7629 78.9178 52.37C78.879 52.2605 78.7237 52.1832 78.646 52.0866C78.646 52.0866 78.0507 53.0012 80.5485 54.1541V54.167C81.0274 54.3087 81.4933 54.4247 81.9981 54.5213C83.5058 54.7982 84.9942 54.8369 86.4502 54.7209C89.0257 54.5148 91.2711 53.948 93.3225 53.1816C93.5231 53.1107 93.7366 53.0463 93.9372 52.9819C93.9696 53.0656 93.9178 53.1107 93.8725 53.1429C92.5265 54.1348 90.9476 54.9593 89.0386 55.5969C87.0455 56.2474 84.8971 56.6854 82.4187 56.7241C80.6391 56.7498 78.9955 56.4986 77.6365 55.5776C77.5201 55.4874 77.3065 55.4359 77.1059 55.365C76.8018 55.5969 76.9118 55.8223 77.1189 56.0156C77.3648 56.2603 77.6689 56.4858 78.0442 56.6725C79.1702 57.22 80.4256 57.5872 81.7845 57.7933C82.6258 57.9156 83.4799 57.9929 84.3471 58.096C84.5671 58.5082 84.9942 58.8045 85.6995 59.017C86.8902 59.3777 88.0744 59.5967 89.3363 59.6354C90.1516 59.6354 98.2534 59.3842 99.9553 54.8047C101.651 50.2316 101.476 51.2235 101.476 51.2235C101.476 51.2235 101.651 53.8385 102.388 55.0881C102.421 55.0494 102.46 55.0108 102.498 54.985C102.537 54.9464 102.576 54.9142 102.621 54.9013C102.162 52.5375 101.605 50.1479 101.56 47.8292H101.554ZM93.7172 56.7627C93.7172 56.7627 90.844 58.3987 89.9381 57.001C89.6145 56.4922 94.9661 55.101 94.9661 55.101L93.7172 56.7563V56.7627Z" fill="#0A0D18"/>
<path d="M126.403 85.6249C126.403 71.4935 124.708 65.819 123.388 63.5325C122.255 64.2153 121.026 64.6597 119.725 64.9495C118.45 65.2265 117.156 65.336 115.856 65.4326C114.322 65.5356 112.859 65.22 111.526 64.4149C110.271 63.6613 109.307 62.6179 108.517 61.3941C108.427 61.2524 108.336 61.1172 108.207 60.924C107.844 61.1816 107.488 61.3877 107.191 61.6582C106.57 62.2379 105.871 62.6244 105.016 62.6952C104.829 62.7145 104.654 62.824 104.447 62.9078C104.531 62.9786 104.551 63.0044 104.576 63.0172C104.674 63.0495 104.771 63.0881 104.868 63.1203C106.453 63.5905 107.663 64.5502 108.479 65.9736C109.475 67.6998 109.702 69.5612 109.352 71.5128C109.093 72.9491 108.336 74.0248 107.126 74.8106C106.744 75.0682 106.337 75.2936 105.929 75.5062C104.699 76.1245 103.392 76.4981 102.053 76.8137H102.059C102.253 76.7879 102.551 76.891 102.9 77.0971C102.907 77.0971 102.913 77.0971 102.92 77.1035C104.719 77.8958 108.459 80.1694 108.854 81.8118C109.113 82.8939 107.443 84.1885 105.709 85.2899C105.644 85.3737 105.586 85.4638 105.528 85.5476C105.541 85.5411 105.56 85.5411 105.579 85.5347C105.793 85.4767 106.013 85.4445 106.233 85.4381C107.113 85.3801 107.974 85.496 108.828 85.7021C110.472 86.1015 112.115 86.5201 113.772 86.9259C116.477 87.5829 119.221 87.6795 121.977 87.248C123.511 87.0097 125.025 86.6554 126.507 86.2432L126.41 85.6377L126.403 85.6249ZM114.4 66.096C115.137 66.2055 115.681 66.5855 116.224 67.0428C117.855 68.4019 119.188 70.0121 120.256 71.8349C121.065 73.2132 121.518 74.7333 121.848 76.2984C121.932 76.6913 122.003 77.0906 122.081 77.49C122.048 77.5157 122.01 77.5415 121.977 77.5673C121.356 77.0069 120.715 76.4788 120.12 75.8862C118.658 74.4177 117.383 72.8074 116.27 71.0491C115.293 69.4904 114.283 67.9317 113.079 66.5404C112.782 66.1991 112.458 65.877 112.115 65.497C112.918 65.716 113.649 65.9801 114.4 66.096ZM123.213 81.8054C120.612 80.762 118.004 79.725 115.416 78.6558C114.167 78.1405 112.957 77.5415 111.844 76.7493C110.271 75.6543 109.592 74.1471 109.753 72.2535C109.818 71.5257 109.902 70.7979 109.967 70.0121C110.316 70.7141 110.62 71.3518 110.944 71.9894C112.387 74.8041 114.581 76.9296 117.266 78.5527C118.347 79.2097 119.499 79.7443 120.618 80.3304C121.531 80.7942 122.443 81.2579 123.446 81.7732C123.291 81.799 123.246 81.8247 123.207 81.8054H123.213ZM125.795 80.5237C125.756 80.4657 125.705 80.427 125.679 80.3691C125.193 79.506 124.65 78.6687 124.242 77.7734C123.77 76.7171 123.44 75.6028 123.226 74.4563C122.857 72.5305 122.288 70.6562 121.382 68.8978C121.007 68.1635 120.508 67.4808 119.861 66.9333C119.796 66.8754 119.706 66.856 119.628 66.8238C119.654 66.7852 119.686 66.7465 119.712 66.7143C119.919 66.7014 120.139 66.6757 120.398 66.6499C120.709 67.0815 121.052 67.4937 121.356 67.9445C122.773 69.9992 123.886 72.1891 124.482 74.6238C124.935 76.4916 125.394 78.3659 125.847 80.2274C125.866 80.3111 125.866 80.3948 125.879 80.4786C125.853 80.485 125.821 80.4979 125.802 80.5108L125.795 80.5237Z" fill="#0A0D18"/>
<path d="M101.605 76.931C101.605 76.931 101.612 76.9636 101.612 76.9831C101.854 76.8789 102.011 76.8138 102.011 76.8138C101.88 76.8398 101.749 76.8919 101.605 76.931Z" fill="#0A0D18"/>
<path d="M127.606 86.1782C127.955 86.7836 128.065 87.4535 128.02 88.1491C128.007 88.3616 127.949 88.5935 128.162 88.7738C128.563 88.5742 128.738 88.1942 128.945 87.8464C130.634 85.0961 132.122 82.2363 133.344 79.2606C133.623 78.5714 133.855 77.8436 133.998 77.1158C134.205 76.0337 134.302 74.9259 134.451 73.8309C134.47 73.7279 134.457 73.6184 134.457 73.4058C133.234 74.7391 131.973 75.8469 130.491 76.7036C130.556 76.987 130.627 77.2317 130.666 77.4829C130.692 77.6826 130.705 77.8951 130.653 78.0884C130.53 78.5328 130.394 78.9772 130.213 79.3959C129.708 80.5488 129.184 81.6953 128.647 82.8353C128.298 83.5696 127.91 84.2845 127.541 85.0059C127.541 85.0059 127.541 85.0059 127.541 85.0123C127.276 85.4181 127.386 85.7917 127.619 86.1846L127.606 86.1782Z" fill="#0A0D18"/>
<path d="M96.9862 93.7467C97.4716 94.0044 97.9828 94.2105 98.4228 94.5325C98.9987 94.9512 99.5294 95.4471 100.054 95.9366C100.765 96.5936 101.497 97.1991 102.487 97.3859C103.58 97.5855 104.564 98.0557 105.509 98.6161C105.716 98.7384 105.929 98.8608 106.162 98.9123C106.615 99.0218 107.036 99.17 107.418 99.4598C107.689 99.6659 107.987 99.5371 108.013 99.2022C108.026 99.0218 107.961 98.79 107.845 98.6483C107.573 98.3198 107.256 98.0364 106.952 97.7337C106.693 97.4825 106.466 97.2184 106.492 96.7611C106.699 96.774 106.881 96.7675 107.062 96.7997C107.871 96.9479 108.667 97.1282 109.482 97.257C109.935 97.3279 110.401 97.3987 110.847 97.1926C111.184 97.0316 111.52 96.877 111.863 96.7289C112.252 96.5614 112.349 96.336 112.148 95.9624C112.096 95.8594 112.012 95.7692 111.934 95.679C111.404 95.0542 110.744 94.6098 110.019 94.2427C109.391 93.9271 108.77 93.605 108.149 93.283C108.058 93.2379 107.948 93.1993 107.89 93.1284C107.838 93.064 107.812 92.9416 107.838 92.8579C107.851 92.8064 107.974 92.742 108.039 92.7484C108.259 92.7742 108.472 92.8386 108.692 92.8643C109.268 92.9223 109.851 92.9996 110.427 93.006C110.705 93.006 111.003 92.9094 111.255 92.787C111.591 92.6196 111.579 92.3619 111.236 92.1816C111.074 92.0979 110.88 92.0592 110.698 92.0141C109.754 91.7758 108.809 91.5568 107.864 91.2992C107.314 91.151 106.771 91.0351 106.195 91.048C105.748 91.0609 105.302 91.0609 104.855 91.048C104.24 91.0222 103.994 90.7582 103.981 90.1527C103.981 90.0561 103.969 89.953 103.962 89.8693C103.626 89.6568 103.386 89.8435 103.147 90.0046C102.765 90.2622 102.377 90.5134 102.001 90.7839C101.665 91.0287 101.335 91.0287 100.947 90.9192C98.5199 90.2236 96.4685 88.9547 94.9478 86.9322C93.8801 85.5152 92.8512 84.066 91.8417 82.6039C91.0005 81.3866 89.9068 80.6073 88.412 80.4205C87.8879 80.3561 87.3702 80.2723 86.846 80.195C88.1143 80.0083 89.3762 80.0791 90.6316 80.2595C90.8516 80.2917 91.0263 80.2595 91.214 80.1628C93.6342 78.8811 96.0026 77.5092 98.2481 75.944C98.7075 75.6284 98.9728 75.2291 99.0634 74.7009C99.1217 74.366 99.1605 74.0182 99.1346 73.6833C98.9987 71.8734 98.0151 70.4693 96.9086 69.0973C96.585 69.2519 96.2938 69.3872 95.9832 69.5353C95.7891 69.0072 95.6208 68.4919 95.6402 67.938C95.6532 67.5451 95.8602 67.4163 96.2226 67.5708C96.3909 67.6417 96.5527 67.7512 96.7015 67.8671C97.6786 68.6594 98.5457 69.5547 99.1734 70.6496C99.9435 71.9764 100.28 73.3934 100.054 74.9264C100.002 75.2742 99.9306 75.622 99.8594 76.0084C99.9823 76.0084 100.066 76.0213 100.144 76.0084C102.325 75.6349 104.376 74.8942 106.272 73.7541C106.68 73.5094 107.075 73.2195 107.405 72.8782C108.692 71.5127 109.061 69.9347 108.395 68.157C107.877 66.7657 106.893 65.7223 105.755 64.827C105.276 64.447 104.726 64.1572 104.201 63.848C103.904 63.6741 103.567 63.6677 103.263 63.8158C102.72 64.067 102.176 64.3117 101.658 64.6145C101.186 64.885 100.752 65.2328 100.299 65.5291C99.5099 66.0443 98.7334 66.5725 97.821 66.8623C97.258 67.0427 96.695 67.1329 96.1062 66.9718C95.582 66.8301 95.2067 67.0556 95.1355 67.5902C95.0319 68.3631 95.1808 69.078 95.7955 69.6641C95.6532 69.7479 95.5043 69.8252 95.3555 69.9153C93 71.2679 90.6251 72.5948 88.2891 73.986C86.173 75.2484 84.1023 76.5881 82.2515 78.2241C81.7209 78.6943 81.2679 79.2676 80.8085 79.815C80.5302 80.1435 80.4267 80.5622 80.5949 80.968C80.7567 81.3737 80.9444 81.7859 81.2032 82.1338C81.5203 82.5524 81.9021 82.926 82.2904 83.2867C86.626 87.3058 91.3952 90.7195 96.5785 93.5793C96.7144 93.6501 96.8633 93.7016 96.9992 93.7725L96.9862 93.7467Z" fill="#0A0D18"/>
<path d="M98.8612 163.579C98.447 163.141 98.1041 162.652 97.8582 162.104C97.3275 160.925 96.8099 159.734 96.2857 158.549C96.2339 158.426 96.208 158.252 96.111 158.188C95.6709 157.898 95.6256 157.434 95.5415 156.984C95.438 156.449 95.3086 155.927 95.1921 155.393C95.1338 155.129 95.0562 154.858 95.0627 154.594C95.0756 154.169 95.1792 153.75 95.205 153.325C95.2309 152.868 95.2309 152.404 95.205 151.947C95.1856 151.696 95.0821 151.444 94.9785 151.058C94.7844 151.296 94.7003 151.451 94.5644 151.554C94.092 151.915 93.6326 152.307 93.1149 152.591C91.9889 153.203 90.8823 153.1 89.8275 152.372C89.6658 152.256 89.4911 152.159 89.3228 152.056C89.0898 152.404 89.051 152.539 89.0381 152.952C89.0122 153.666 89.0381 154.388 88.9475 155.096C88.7922 156.224 88.5916 157.351 88.3521 158.465C87.9703 160.256 88.2874 161.917 89.2063 163.482C89.4199 163.85 89.6593 164.204 89.8664 164.577C90.2999 165.363 90.7141 166.162 91.1347 166.954C91.1024 166.973 91.07 166.993 91.0376 167.012C90.9341 166.864 90.8241 166.722 90.74 166.574C89.9376 165.202 89.1416 163.83 88.3392 162.458C88.2421 162.291 88.1968 162.072 87.9121 162.027C87.9121 162.394 88.0998 162.664 88.2421 162.941C89.1481 164.719 90.0605 166.497 90.9859 168.262C91.2383 168.745 91.5036 169.234 91.8336 169.666C92.2348 170.194 92.6748 170.703 93.1666 171.147C93.8655 171.778 94.7391 172.055 95.6839 171.991C97.1722 171.894 98.4794 171.25 99.7542 170.542C99.8448 170.49 99.9225 170.419 100 170.355C101.107 169.498 101.443 168.32 100.938 167.025C100.447 165.769 99.8189 164.571 98.8741 163.573L98.8612 163.579Z" fill="#0A0D18"/>
<path d="M136.097 160.442C135.585 158.941 134.757 157.685 133.269 156.964C132.945 156.809 132.609 156.668 132.311 156.475C131.897 156.21 131.496 155.914 131.114 155.605C130.816 155.367 130.642 155.083 130.745 154.639C130.868 154.104 130.596 153.821 130.04 153.724C129.936 153.705 129.833 153.711 129.736 153.692C129.431 153.634 129.134 153.499 129.056 153.209C128.946 152.784 128.655 152.649 128.293 152.571C128.027 152.513 127.904 152.365 127.846 152.095C127.749 151.663 127.62 151.238 127.451 150.832C127.296 150.465 127.173 150.137 127.244 149.718C127.354 149.093 127.057 148.758 126.422 148.668C125.982 148.61 125.62 148.475 125.575 147.94C125.361 148.005 125.18 148.056 124.999 148.108C123.239 148.604 121.478 148.823 119.712 148.14C119.434 148.03 119.272 148.088 119.207 148.378C119.142 148.668 119.129 148.99 119.168 149.28C119.227 149.679 119.265 150.046 119.058 150.42C118.974 150.562 118.942 150.749 118.935 150.916C118.89 151.927 118.974 152.926 119.291 153.892C119.349 154.066 119.427 154.246 119.544 154.394C119.654 154.536 119.815 154.652 119.977 154.729C120.281 154.877 120.618 154.967 120.909 155.128C122.022 155.753 122.999 156.552 123.886 157.466C124.805 158.407 125.711 159.36 126.655 160.275C127.846 161.421 129.153 162.407 130.752 162.928C130.764 162.928 130.764 162.967 130.777 162.999C129.38 162.948 128.183 162.535 127.18 161.498C125.995 160.268 124.733 159.109 123.446 157.982C122.469 157.132 121.407 156.371 120.372 155.592C120.107 155.392 119.783 155.277 119.408 155.077C119.304 155.682 119.343 156.198 119.382 156.726C119.434 157.383 119.751 157.743 120.391 157.892C121.601 158.175 122.65 158.78 123.575 159.592C124.268 160.204 124.895 160.88 125.575 161.511C126.086 161.988 126.61 162.458 127.173 162.877C127.891 163.411 128.713 163.753 129.619 163.862C130.939 164.01 132.246 163.952 133.547 163.656C134.084 163.534 134.621 163.379 135.055 163.038C136.013 162.291 136.459 161.486 136.103 160.442H136.097Z" fill="#0A0D18"/>
<path d="M110.674 54.5296C110.641 54.5038 110.615 54.4779 110.615 54.4779V53.8065L110.674 54.5296Z" fill="#0A0D18"/>
<path d="M116.11 46.0452C116.058 45.9422 116.013 45.8069 115.916 45.7296C115.767 45.6072 115.611 45.691 115.463 45.7618C115.256 45.8649 115.049 45.9615 114.848 46.071C115.133 46.0066 115.437 45.9744 115.709 46.0774C115.883 46.1483 116.013 46.232 116.2 46.1805C116.168 46.129 116.142 46.0839 116.11 46.0388V46.0452ZM116.11 46.0452C116.058 45.9422 116.013 45.8069 115.916 45.7296C115.767 45.6072 115.611 45.691 115.463 45.7618C115.256 45.8649 115.049 45.9615 114.848 46.071C115.133 46.0066 115.437 45.9744 115.709 46.0774C115.883 46.1483 116.013 46.232 116.2 46.1805C116.168 46.129 116.142 46.0839 116.11 46.0388V46.0452ZM116.11 46.0452C116.058 45.9422 116.013 45.8069 115.916 45.7296C115.767 45.6072 115.611 45.691 115.463 45.7618C115.256 45.8649 115.049 45.9615 114.848 46.071C115.133 46.0066 115.437 45.9744 115.709 46.0774C115.883 46.1483 116.013 46.232 116.2 46.1805C116.168 46.129 116.142 46.0839 116.11 46.0388V46.0452ZM116.11 46.0452C116.058 45.9422 116.013 45.8069 115.916 45.7296C115.767 45.6072 115.611 45.691 115.463 45.7618C115.256 45.8649 115.049 45.9615 114.848 46.071C115.133 46.0066 115.437 45.9744 115.709 46.0774C115.883 46.1483 116.013 46.232 116.2 46.1805C116.168 46.129 116.142 46.0839 116.11 46.0388V46.0452ZM116.11 46.0452C116.058 45.9422 116.013 45.8069 115.916 45.7296C115.767 45.6072 115.611 45.691 115.463 45.7618C115.256 45.8649 115.049 45.9615 114.848 46.071C115.133 46.0066 115.437 45.9744 115.709 46.0774C115.883 46.1483 116.013 46.232 116.2 46.1805C116.168 46.129 116.142 46.0839 116.11 46.0388V46.0452ZM122.173 53.2462C122.167 53.1818 122.167 53.2462 122.147 53.2784C122.134 53.2977 122.115 53.317 122.096 53.3428C122.044 53.3879 121.992 53.4265 121.934 53.4523C122.031 53.4201 122.134 53.4072 122.218 53.3879C122.199 53.3428 122.186 53.2913 122.167 53.2462H122.173ZM122.173 53.2462C122.167 53.1818 122.167 53.2462 122.147 53.2784C122.134 53.2977 122.115 53.317 122.096 53.3428C122.044 53.3879 121.992 53.4265 121.934 53.4523C122.031 53.4201 122.134 53.4072 122.218 53.3879C122.199 53.3428 122.186 53.2913 122.167 53.2462H122.173ZM116.11 46.0452C116.058 45.9422 116.013 45.8069 115.916 45.7296C115.767 45.6072 115.611 45.691 115.463 45.7618C115.256 45.8649 115.049 45.9615 114.848 46.071C115.133 46.0066 115.437 45.9744 115.709 46.0774C115.883 46.1483 116.013 46.232 116.2 46.1805C116.168 46.129 116.142 46.0839 116.11 46.0388V46.0452ZM116.11 46.0452C116.058 45.9422 116.013 45.8069 115.916 45.7296C115.767 45.6072 115.611 45.691 115.463 45.7618C115.256 45.8649 115.049 45.9615 114.848 46.071C115.133 46.0066 115.437 45.9744 115.709 46.0774C115.883 46.1483 116.013 46.232 116.2 46.1805C116.168 46.129 116.142 46.0839 116.11 46.0388V46.0452ZM122.173 53.2462C122.167 53.1818 122.167 53.2462 122.147 53.2784C122.134 53.2977 122.115 53.317 122.096 53.3428C122.044 53.3879 121.992 53.4265 121.934 53.4523C122.031 53.4201 122.134 53.4072 122.218 53.3879C122.199 53.3428 122.186 53.2913 122.167 53.2462H122.173ZM122.173 53.2462C122.167 53.1818 122.167 53.2462 122.147 53.2784C122.134 53.2977 122.115 53.317 122.096 53.3428C122.044 53.3879 121.992 53.4265 121.934 53.4523C122.031 53.4201 122.134 53.4072 122.218 53.3879C122.199 53.3428 122.186 53.2913 122.167 53.2462H122.173ZM116.11 46.0452C116.058 45.9422 116.013 45.8069 115.916 45.7296C115.767 45.6072 115.611 45.691 115.463 45.7618C115.256 45.8649 115.049 45.9615 114.848 46.071C115.133 46.0066 115.437 45.9744 115.709 46.0774C115.883 46.1483 116.013 46.232 116.2 46.1805C116.168 46.129 116.142 46.0839 116.11 46.0388V46.0452ZM122.031 45.7683C121.863 45.5879 121.772 45.2981 121.707 45.0404C121.617 44.6347 121.584 44.2031 121.513 43.7845C121.513 43.7845 121.52 40.287 119.313 39.308H119.306C118.646 38.7155 117.915 38.2259 117.08 37.891C116.835 37.7944 116.686 37.6656 116.576 37.4273C116.394 37.0151 116.142 36.6157 115.728 36.4289C114.964 36.094 114.188 35.7526 113.385 35.5465C111.981 35.1987 110.571 35.2438 109.16 35.6174C109.16 35.6174 103.006 36.9571 102.042 41.1694C101.686 41.6847 101.414 42.2644 101.213 42.8827C101.071 43.295 100.987 43.7329 101.162 44.2418C102.851 42.9665 104.455 41.6396 106.287 40.6349C105.297 41.6847 104.287 42.7024 103.265 43.7072C103.006 43.9519 102.734 44.1967 102.43 44.377C102.087 44.596 101.712 44.7764 101.33 44.9052C100.851 45.0598 100.696 45.1757 100.793 45.6652C100.909 46.2127 100.773 46.7408 100.734 47.2754V47.2883C100.722 50.2254 102.365 54.1608 102.863 55.2879C102.941 55.4618 102.98 55.5649 102.999 55.5971C103.155 55.7066 103.297 55.8032 103.459 55.8998C104.371 56.4473 105.316 56.9368 106.332 57.246C106.507 57.3039 106.694 57.3361 106.869 57.3555C106.869 57.3555 107.484 57.4521 108.137 57.6775C108.791 57.9094 109.49 58.2765 109.645 58.8562C109.755 59.2362 109.865 59.5969 109.962 59.9769C110.079 60.4407 109.988 60.9044 109.788 61.3295C109.742 61.4326 109.69 61.5292 109.626 61.6773C109.859 61.7546 110.053 61.8255 110.24 61.877C112.117 62.4567 114.026 62.8109 115.993 62.7852C117.695 62.7594 119.326 62.4309 120.847 61.6387C121.028 61.5549 121.19 61.4454 121.435 61.2973C121.228 61.1363 121.08 61.0268 120.937 60.9173C120.523 60.6339 120.18 60.2796 120.057 59.7708C119.889 59.0881 119.869 58.386 119.928 57.6453L115.094 60.0091L109.859 57.2009L109.652 56.1832C109.593 56.0866 109.529 56.0029 109.477 55.9191C109.529 55.9771 109.574 56.0351 109.632 56.0802L109.445 55.1849C109.91 55.5005 113.036 57.4392 119.928 57.6389C120.148 57.6131 120.348 57.5938 120.542 57.5616C120.963 57.4843 121.397 57.4328 121.798 57.2911C122.898 56.9046 123.577 55.7324 123.467 54.5923C123.396 53.9804 123.39 53.3621 123.37 52.7502C123.332 51.3847 123.332 50.0128 123.254 48.6602C123.202 47.5653 122.814 46.5669 122.037 45.7425L122.031 45.7683ZM114.913 37.6656C114.576 37.6334 114.395 37.5303 114.24 37.2856C114.065 37.0086 113.787 36.7832 113.554 36.5384C113.45 36.4289 113.34 36.3388 113.198 36.2035C113.806 36.2937 114.136 36.5642 114.913 37.672V37.6656ZM103.155 39.9972C102.721 40.3192 102.359 40.6993 102.061 41.1244C102.365 40.6155 105.005 36.4354 109.419 35.9523C109.969 35.9523 110.506 36.0038 111.043 36.152C111.962 36.4032 112.745 36.8798 113.34 37.6269C113.275 37.7107 113.256 37.7558 113.23 37.7558C112.848 37.8717 112.479 37.9941 112.065 38.1165C111.586 37.6785 111.036 37.453 110.415 37.4402C110.02 37.4337 109.619 37.4208 109.231 37.4724C106.966 37.7429 104.954 38.6317 103.148 39.9972H103.155ZM106.054 45.6072C105.025 46.4059 103.925 47.0951 102.753 47.7005C102.54 47.81 102.32 47.8938 102.087 47.9517C101.932 47.9904 101.757 47.9711 101.543 47.9775C101.537 47.7392 101.53 47.5846 101.537 47.4365C103.271 47.1659 104.695 46.2642 106.105 45.356C106.086 45.4398 106.08 45.5299 106.06 45.6137L106.054 45.6072ZM106.707 50.4186L106.785 51.082C106.785 51.082 104.429 49.8389 103.31 51.4814C103.355 51.3268 103.782 50.0386 104.941 50.103C106.164 50.1738 106.707 50.4186 106.707 50.4186ZM107.995 56.8273C107.995 56.8273 105.439 57.2267 104.061 55.494C102.695 53.755 102.229 51.9644 102.229 51.9644C102.171 51.8227 102.113 51.6875 102.055 51.5522C101.854 51.0756 101.951 50.6054 102.165 50.1674C102.352 49.7681 102.637 49.446 103.019 49.2335C103.362 49.0402 103.724 48.8857 104.074 48.7118C104.643 48.4348 105.206 48.1643 105.827 47.8744C105.821 47.926 105.821 47.9775 105.821 48.029C105.737 48.2094 105.652 48.3704 105.64 48.5314C105.627 48.744 105.769 48.9565 105.86 49.2399C105.64 49.2142 105.439 49.227 105.251 49.1884C104.384 49.0274 103.666 49.3365 103.051 49.9162C102.559 50.38 102.359 50.9661 102.443 51.6295C102.546 52.4797 102.896 53.1946 103.523 53.7679C103.53 53.7679 103.536 53.7679 103.536 53.7808C103.879 54.0191 106.371 55.5134 107.743 55.6229L108.299 55.5585C108.39 55.5456 108.882 56.9561 108.882 56.9561L108.001 56.8273H107.995ZM106.487 43.8617C106.19 44.1838 105.879 44.5187 105.549 44.8794C105.549 44.8794 101.563 46.8052 101.362 46.4832C101.162 46.1483 101.259 45.3882 101.259 45.3882C101.608 45.311 104.41 44.6475 107.872 40.4352C107.872 40.4352 109.179 38.7283 110.875 38.5802C108.422 39.7847 107.147 41.8522 106.487 43.8553V43.8617ZM116.666 46.0645C116.666 46.0645 116.666 46.0839 116.666 46.0903C116.634 46.3673 116.472 46.612 116.149 46.612C115.922 46.612 115.76 46.4446 115.547 46.4124C115.327 46.3737 115.061 46.4188 114.841 46.4639C114.369 46.5476 113.903 46.7086 113.483 46.9405C113.282 47.05 113.088 47.1853 112.907 47.327C112.751 47.4493 112.602 47.6168 112.395 47.649C112.318 47.6554 112.318 47.3334 112.324 47.2883C112.395 46.8375 112.777 46.5025 113.14 46.2707C113.593 45.9937 114.078 45.7811 114.55 45.5428C114.77 45.4333 114.977 45.3238 115.197 45.2208C115.366 45.1435 115.566 45.0147 115.747 45.0791C116.019 45.1757 116.045 45.5235 116.207 45.7232C116.343 45.8971 116.511 45.7876 116.543 45.6008C116.576 45.4076 116.479 45.1564 116.42 44.9696C116.349 44.7313 116.259 44.493 116.149 44.2675C116.09 44.1387 116.077 44.0872 115.929 44.1001C115.825 44.1001 115.709 44.1387 115.605 44.158C114.738 44.3448 113.884 44.6733 113.159 45.2015C112.505 45.6845 112.046 46.2964 111.638 46.992C111.638 47.0049 111.574 46.8246 111.593 46.7859C111.858 45.9422 112.467 45.2723 113.159 44.7377C113.58 44.4286 114.033 44.1709 114.505 43.9648C114.977 43.7587 115.469 43.5526 115.974 43.4431C115.993 43.4431 116.006 43.4624 116.013 43.4817C116.343 44.1387 116.615 44.8859 116.686 45.6137C116.692 45.7425 116.712 45.9164 116.673 46.071L116.666 46.0645ZM119.649 42.5092C119.688 42.477 119.792 42.8248 119.734 42.8956C119.442 43.2177 119.268 43.6556 119.294 44.1001C119.326 44.5252 119.617 44.9181 119.902 45.2208C120.174 45.5106 120.497 45.7489 120.84 45.9615C121.157 46.1676 121.429 46.3866 121.545 46.7602C121.558 46.8117 121.604 47.2303 121.558 47.1788C121.533 47.1531 121.545 47.1015 121.526 47.0758C121.5 47.0114 121.435 46.9534 121.377 46.9019C121.08 46.6442 120.711 46.4639 120.407 46.2191C119.805 45.7489 119.358 45.1306 119.203 44.3641C119.074 43.7136 119.125 42.9665 119.656 42.5027L119.649 42.5092ZM119.792 52.6021C119.792 52.6021 119.734 52.4475 119.727 52.4346C119.714 52.396 119.695 52.2865 119.727 52.2543C120.038 52.0159 120.368 51.8034 120.73 51.6553C121.099 51.5136 121.474 51.4169 121.863 51.359C121.882 51.359 121.895 51.462 121.882 51.4685C121.494 51.5844 121.125 51.7454 120.775 51.9451C120.432 52.1448 120.096 52.3573 119.785 52.6085L119.792 52.6021ZM122.141 53.6262C122.031 53.7164 121.888 53.7679 121.753 53.7936C121.617 53.8194 121.468 53.8258 121.332 53.8323C121.293 53.8516 121.241 53.8645 121.203 53.8838C121.034 53.9482 120.866 54.0384 120.685 54.0706C120.601 54.0899 120.517 54.0964 120.445 54.1092C120.4 54.1092 120.342 54.135 120.303 54.1157C120.245 54.0964 120.18 53.9804 120.148 53.9482C120.096 53.8838 120.077 53.7808 120.07 53.7035C120.057 53.6197 120.051 53.5231 120.07 53.4523C120.096 53.3943 120.115 53.2526 120.174 53.214C120.212 53.1946 120.264 53.1882 120.297 53.1753C120.381 53.1495 120.458 53.1238 120.542 53.1045C120.711 53.0658 120.905 53.0723 121.08 53.0594C121.17 53.0594 121.261 53.0529 121.351 53.0401C121.435 53.0401 121.526 53.0207 121.604 53.0529C121.701 53.0916 121.785 53.1624 121.888 53.1496C121.986 53.1496 122.089 53.1109 122.18 53.0916C122.212 53.0916 122.231 53.214 122.231 53.2333C122.257 53.375 122.251 53.5167 122.141 53.6197V53.6262ZM121.804 47.7392C121.727 47.9582 121.623 48.1643 121.526 48.3833C121.423 48.5894 121.319 48.8148 121.164 48.9952C121.021 49.1755 120.86 49.3365 120.698 49.4911C120.62 49.5555 120.536 49.6521 120.445 49.6972C120.407 49.7165 120.335 49.7359 120.297 49.7423C120.212 49.7552 120.187 49.6779 120.128 49.6264C120.07 49.5748 120.057 49.4525 120.051 49.3752C120.038 49.2914 120.031 49.1948 120.051 49.1175C120.089 49.0145 120.083 48.9372 120.167 48.8663C120.212 48.8341 120.258 48.7762 120.31 48.7504C120.387 48.6924 120.484 48.6667 120.568 48.6216C120.73 48.5314 120.898 48.4348 121.047 48.3189C121.183 48.2158 121.325 48.145 121.455 48.0483C121.597 47.9389 121.694 47.81 121.785 47.6683C121.791 47.6683 121.804 47.7263 121.798 47.7456L121.804 47.7392ZM122.147 53.2719C122.147 53.2719 122.115 53.3106 122.096 53.3363C122.044 53.3814 121.992 53.4201 121.934 53.4458C122.031 53.4136 122.134 53.4007 122.218 53.3814C122.199 53.3363 122.186 53.2848 122.167 53.2397C122.16 53.1753 122.16 53.2397 122.141 53.2719H122.147ZM115.916 45.7296C115.767 45.6072 115.611 45.691 115.463 45.7618C115.256 45.8649 115.049 45.9615 114.848 46.071C115.133 46.0066 115.437 45.9744 115.709 46.0774C115.883 46.1483 116.013 46.232 116.2 46.1805C116.168 46.129 116.142 46.0839 116.11 46.0388C116.058 45.9357 116.013 45.8005 115.916 45.7232V45.7296ZM116.11 46.0452C116.058 45.9422 116.013 45.8069 115.916 45.7296C115.767 45.6072 115.611 45.691 115.463 45.7618C115.256 45.8649 115.049 45.9615 114.848 46.071C115.133 46.0066 115.437 45.9744 115.709 46.0774C115.883 46.1483 116.013 46.232 116.2 46.1805C116.168 46.129 116.142 46.0839 116.11 46.0388V46.0452ZM122.173 53.2462C122.167 53.1818 122.167 53.2462 122.147 53.2784C122.134 53.2977 122.115 53.317 122.096 53.3428C122.044 53.3879 121.992 53.4265 121.934 53.4523C122.031 53.4201 122.134 53.4072 122.218 53.3879C122.199 53.3428 122.186 53.2913 122.167 53.2462H122.173ZM122.173 53.2462C122.167 53.1818 122.167 53.2462 122.147 53.2784C122.134 53.2977 122.115 53.317 122.096 53.3428C122.044 53.3879 121.992 53.4265 121.934 53.4523C122.031 53.4201 122.134 53.4072 122.218 53.3879C122.199 53.3428 122.186 53.2913 122.167 53.2462H122.173ZM116.11 46.0452C116.058 45.9422 116.013 45.8069 115.916 45.7296C115.767 45.6072 115.611 45.691 115.463 45.7618C115.256 45.8649 115.049 45.9615 114.848 46.071C115.133 46.0066 115.437 45.9744 115.709 46.0774C115.883 46.1483 116.013 46.232 116.2 46.1805C116.168 46.129 116.142 46.0839 116.11 46.0388V46.0452ZM116.11 46.0452C116.058 45.9422 116.013 45.8069 115.916 45.7296C115.767 45.6072 115.611 45.691 115.463 45.7618C115.256 45.8649 115.049 45.9615 114.848 46.071C115.133 46.0066 115.437 45.9744 115.709 46.0774C115.883 46.1483 116.013 46.232 116.2 46.1805C116.168 46.129 116.142 46.0839 116.11 46.0388V46.0452ZM122.173 53.2462C122.167 53.1818 122.167 53.2462 122.147 53.2784C122.134 53.2977 122.115 53.317 122.096 53.3428C122.044 53.3879 121.992 53.4265 121.934 53.4523C122.031 53.4201 122.134 53.4072 122.218 53.3879C122.199 53.3428 122.186 53.2913 122.167 53.2462H122.173ZM122.173 53.2462C122.167 53.1818 122.167 53.2462 122.147 53.2784C122.134 53.2977 122.115 53.317 122.096 53.3428C122.044 53.3879 121.992 53.4265 121.934 53.4523C122.031 53.4201 122.134 53.4072 122.218 53.3879C122.199 53.3428 122.186 53.2913 122.167 53.2462H122.173ZM116.11 46.0452C116.058 45.9422 116.013 45.8069 115.916 45.7296C115.767 45.6072 115.611 45.691 115.463 45.7618C115.256 45.8649 115.049 45.9615 114.848 46.071C115.133 46.0066 115.437 45.9744 115.709 46.0774C115.883 46.1483 116.013 46.232 116.2 46.1805C116.168 46.129 116.142 46.0839 116.11 46.0388V46.0452ZM116.11 46.0452C116.058 45.9422 116.013 45.8069 115.916 45.7296C115.767 45.6072 115.611 45.691 115.463 45.7618C115.256 45.8649 115.049 45.9615 114.848 46.071C115.133 46.0066 115.437 45.9744 115.709 46.0774C115.883 46.1483 116.013 46.232 116.2 46.1805C116.168 46.129 116.142 46.0839 116.11 46.0388V46.0452ZM116.11 46.0452C116.058 45.9422 116.013 45.8069 115.916 45.7296C115.767 45.6072 115.611 45.691 115.463 45.7618C115.256 45.8649 115.049 45.9615 114.848 46.071C115.133 46.0066 115.437 45.9744 115.709 46.0774C115.883 46.1483 116.013 46.232 116.2 46.1805C116.168 46.129 116.142 46.0839 116.11 46.0388V46.0452ZM116.11 46.0452C116.058 45.9422 116.013 45.8069 115.916 45.7296C115.767 45.6072 115.611 45.691 115.463 45.7618C115.256 45.8649 115.049 45.9615 114.848 46.071C115.133 46.0066 115.437 45.9744 115.709 46.0774C115.883 46.1483 116.013 46.232 116.2 46.1805C116.168 46.129 116.142 46.0839 116.11 46.0388V46.0452ZM116.11 46.0452C116.058 45.9422 116.013 45.8069 115.916 45.7296C115.767 45.6072 115.611 45.691 115.463 45.7618C115.256 45.8649 115.049 45.9615 114.848 46.071C115.133 46.0066 115.437 45.9744 115.709 46.0774C115.883 46.1483 116.013 46.232 116.2 46.1805C116.168 46.129 116.142 46.0839 116.11 46.0388V46.0452Z" fill="#0A0D18"/>
<path d="M102.686 47.2433C98.9267 48.261 94.9341 49.3044 91.0514 48.2738C90.1649 48.042 89.2718 47.707 88.4953 47.2111C88.1459 46.9857 87.8223 46.7151 87.5764 46.3802C87.0911 45.7104 87.3952 44.9632 87.8223 44.3706C88.9095 42.8635 90.812 41.9746 92.6239 41.7299C92.7274 41.717 92.7015 41.1309 92.6109 41.1309C90.592 41.2082 88.2429 42.1099 87.3305 44.0486C86.5863 45.6331 87.104 47.4687 88.5536 48.4349C90.3784 49.6457 92.8698 49.8519 94.9988 49.723C97.639 49.562 100.195 48.7762 102.706 48.0033C102.868 47.9518 102.758 47.224 102.686 47.2433Z" fill="#0A0D18"/>
<path d="M96.4087 120.85C96.5575 120.953 100.096 123.22 102.128 123.188L102.71 124.225C102.71 124.225 97.6056 122.647 96.0529 121.694L96.4087 120.85Z" fill="#0A0D18"/>
<path d="M126.169 104.432C126.195 99.6209 126.15 94.6421 125.348 89.8823C125.943 90.7325 126.642 91.4667 126.991 92.478C127.301 93.3732 127.392 94.3265 127.431 95.2604C127.534 98.0107 127.437 100.767 127.159 103.505C126.9 106.1 126.486 108.683 125.911 111.221C126.124 108.967 126.156 106.699 126.169 104.432Z" fill="#0A0D18"/>
<path d="M125.192 89.0575C125.243 89.3344 125.295 89.605 125.347 89.8819C125.289 89.8046 125.237 89.7273 125.185 89.6436C125.127 89.5534 125.056 89.2056 125.023 88.8578C125.075 88.7483 125.133 88.7483 125.192 89.051V89.0575Z" fill="#0A0D18"/>
<path d="M125.833 111.917C125.704 113.095 125.523 114.281 125.258 115.44C125.064 116.303 124.869 117.578 124.281 118.261C124.203 118.351 124.138 118.048 124.1 117.694C124.106 117.675 124.113 117.643 124.113 117.623C124.824 115.524 125.426 113.379 125.911 111.215C125.885 111.453 125.859 111.678 125.833 111.917Z" fill="#0A0D18"/>
<path d="M125.349 89.8823C126.151 94.6421 126.196 99.621 126.171 104.432C126.158 106.693 126.132 108.96 125.912 111.221C125.427 113.385 124.825 115.53 124.113 117.63C124.256 116.696 124.379 115.755 124.476 114.815C124.825 113.192 125.187 111.582 125.33 109.894C125.517 107.737 125.562 105.559 125.562 103.395C125.562 98.7063 125.168 94.0496 124.948 89.3735C124.941 89.2253 124.974 88.987 125.025 88.8646C125.051 89.2124 125.129 89.5602 125.187 89.6504C125.239 89.7341 125.291 89.8114 125.349 89.8887V89.8823Z" fill="#0A0D18"/>
<path d="M124.472 114.815C124.375 115.762 124.252 116.696 124.11 117.63C124.104 117.643 124.104 117.655 124.097 117.668C124.058 117.308 124.039 116.895 124.058 116.818C124.181 116.148 124.33 115.478 124.479 114.815H124.472Z" fill="#0A0D18"/>
<path d="M124.113 117.63C124.113 117.63 124.106 117.683 124.1 117.704V117.677C124.1 117.677 124.106 117.65 124.113 117.636V117.63Z" fill="#0A0D18"/>
<path d="M127.735 102.745C127.244 108.715 125.904 114.577 123.854 120.2C123.86 120.019 123.86 119.723 123.789 119.742C123.782 119.742 123.776 119.749 123.77 119.749C123.88 119.06 124.002 118.383 124.099 117.694C124.138 118.048 124.203 118.351 124.281 118.261C124.863 117.572 125.063 116.296 125.258 115.44C125.523 114.28 125.704 113.095 125.833 111.917C125.859 111.678 125.885 111.453 125.911 111.215C126.48 108.677 126.901 106.094 127.16 103.498C127.438 100.767 127.535 98.0042 127.431 95.254C127.399 94.32 127.308 93.3668 126.991 92.4715C126.642 91.4603 125.937 90.7324 125.348 89.8758C125.296 89.5988 125.245 89.3283 125.193 89.0514C125.135 88.7486 125.076 88.7486 125.025 88.8581C124.999 88.5039 125.025 88.1496 125.193 88.1239C126.209 87.9371 126.81 89.3798 127.121 90.185C127.561 91.3121 127.755 92.5295 127.858 93.721C128.124 96.7032 127.975 99.7626 127.735 102.738V102.745Z" fill="#0A0D18"/>
<path d="M123.841 120.329C123.789 120.49 123.731 120.632 123.646 120.761C123.724 120.574 123.789 120.393 123.854 120.206C123.854 120.271 123.848 120.316 123.841 120.329Z" fill="#0A0D18"/>
<path d="M123.59 120.85C123.655 120.483 123.706 120.122 123.771 119.755C123.777 119.755 123.784 119.749 123.79 119.749C123.862 119.729 123.862 120.026 123.855 120.206C123.784 120.393 123.726 120.573 123.648 120.76C123.635 120.786 123.616 120.824 123.59 120.85Z" fill="#0A0D18"/>
<path d="M123.569 120.87C123.505 120.567 123.453 120.258 123.395 119.949C123.511 119.871 123.64 119.807 123.77 119.756C123.705 120.123 123.653 120.483 123.589 120.851L123.569 120.87Z" fill="#0A0D18"/>
<path d="M123.59 120.85C123.59 120.85 123.583 120.893 123.576 120.921C123.576 120.907 123.569 120.893 123.569 120.879L123.59 120.857V120.85Z" fill="#0A0D18"/>
<path d="M123.4 121.053C123.466 120.995 123.518 120.943 123.57 120.871C123.57 120.884 123.577 120.897 123.577 120.91C123.584 120.89 123.584 120.871 123.59 120.845C123.61 120.819 123.629 120.78 123.649 120.754C123.623 120.845 123.584 120.936 123.551 121.027C123.492 121.184 123.44 121.138 123.4 121.047V121.053Z" fill="#0A0D18"/>
<path d="M123.77 119.755C123.64 119.813 123.511 119.871 123.394 119.948L123.355 119.742C123.614 119.053 123.867 118.37 124.099 117.675V117.701C124.002 118.39 123.886 119.066 123.77 119.755Z" fill="#0A0D18"/>
<path d="M123.395 119.948C123.453 120.257 123.505 120.567 123.57 120.869C123.518 120.94 123.466 120.992 123.401 121.05C123.369 120.979 123.343 120.882 123.33 120.844C123.246 120.599 123.259 120.277 123.298 120.006C123.324 119.987 123.362 119.968 123.395 119.948Z" fill="#0A0D18"/>
<path d="M122.327 121.971C122.34 122.035 122.359 122.08 122.353 122.125C121.951 123.832 121.906 125.565 121.829 127.31C121.796 128.18 121.718 129.043 121.447 129.88C121.272 130.421 121.253 130.949 121.388 131.49C122.21 134.627 122.709 137.822 123.356 140.997C123.563 142.009 123.867 143.007 124.165 143.999C124.275 144.347 124.203 144.578 124.003 144.836C123.395 145.59 122.566 145.847 121.654 145.918C120.897 145.97 120.152 145.841 119.415 145.654C119.111 145.577 118.878 145.416 118.755 145.145C118.483 144.578 118.192 144.012 117.972 143.426C117.428 141.976 116.949 140.495 116.386 139.052C115.875 137.745 115.306 136.469 114.749 135.188C113.83 133.081 113.668 130.872 113.94 128.624C114.024 127.903 114.005 127.22 113.798 126.518C113.448 125.301 113.203 124.071 113.112 122.808C113.105 122.686 113.105 122.557 113.105 122.415C113.267 122.396 113.429 122.364 113.578 122.332C114.859 122.724 116.147 122.731 117.435 122.666C118.975 122.576 120.495 122.338 122.003 122.022C122.1 122.003 122.204 121.997 122.314 121.984L122.327 121.971Z" fill="#0A0D18"/>
<path d="M123.347 119.736L123.386 119.942C123.354 119.955 123.315 119.974 123.289 120L123.308 119.852C124.098 115.227 124.939 110.429 123.813 105.785C122.772 101.495 120.527 97.4631 118.333 93.6694C118.314 93.6372 118.34 93.5084 118.34 93.5084C120.882 97.3794 123.321 101.225 124.227 105.836C124.809 108.812 124.771 111.807 124.467 114.802C124.318 115.465 124.175 116.135 124.046 116.805C124.033 116.889 124.046 117.295 124.085 117.655C123.845 118.351 123.6 119.034 123.341 119.723L123.347 119.736Z" fill="#0A0D18"/>
<path d="M123.327 120.844C123.34 120.883 123.359 120.986 123.398 121.05C123.198 121.23 122.945 121.34 122.622 121.417C122.059 121.539 121.457 121.507 120.888 121.411C120.474 121.34 120.137 121.153 119.73 121.044C119.368 120.947 119.012 120.837 118.656 120.702C118.19 120.528 117.737 120.322 117.291 120.084C117.304 119.891 117.284 119.691 117.271 119.562C117.75 119.794 118.255 119.994 118.766 120.155C119.102 120.258 119.432 120.348 119.775 120.419C119.969 120.457 120.125 120.432 120.319 120.425C120.487 120.419 120.649 120.451 120.804 120.477C121.367 120.541 121.955 120.541 122.505 120.393C122.803 120.309 123.042 120.148 123.295 120.007C123.262 120.277 123.243 120.606 123.327 120.844Z" fill="#0A0D18"/>
<path d="M117.271 119.544V119.563C117.09 119.479 116.921 119.389 116.746 119.292C116.85 119.195 116.947 119.105 117.044 119.008C117.194 118.859 117.258 119.466 117.265 119.544H117.271Z" fill="#0A0D18"/>
<path d="M116.736 119.292H116.743L116.729 119.306L116.736 119.292Z" fill="#0A0D18"/>
<path d="M117.275 119.563C117.288 119.685 117.308 119.892 117.295 120.085C117.107 119.989 116.919 119.885 116.731 119.776C116.64 119.724 116.711 119.375 116.731 119.311L116.744 119.298H116.75C116.925 119.395 117.094 119.485 117.275 119.569V119.563Z" fill="#0A0D18"/>
<path d="M113.597 122.327C113.44 122.359 113.283 122.392 113.119 122.411C113.126 122.333 113.126 122.255 113.126 122.164C113.283 122.229 113.44 122.275 113.597 122.327Z" fill="#0A0D18"/>
<path d="M117.291 120.084C117.291 120.251 117.265 120.419 117.181 120.496C116.178 121.417 114.923 122.048 113.59 122.325C113.435 122.274 113.28 122.229 113.125 122.164C113.125 122.254 113.125 122.332 113.118 122.409C111.708 122.609 110.252 122.415 108.971 121.758C108.868 121.707 108.848 121.462 108.855 121.217C108.932 121.069 108.997 120.921 109.055 120.766C111.682 121.604 114.651 121.127 116.728 119.311C116.709 119.375 116.638 119.729 116.728 119.775C116.916 119.884 117.103 119.987 117.291 120.084Z" fill="#0A0D18"/>
<path d="M109.056 120.767C108.991 120.923 108.932 121.073 108.854 121.223C108.867 120.969 108.919 120.734 108.945 120.734C108.978 120.747 109.024 120.754 109.056 120.767Z" fill="#0A0D18"/>
<path d="M102.877 123.865C102.812 124.02 102.78 124.123 102.728 124.207C102.546 124.188 102.371 124.149 102.189 124.11L102.423 124.026C102.546 123.975 102.676 123.936 102.877 123.865Z" fill="#0A0D18"/>
<path d="M102.188 124.109C102.37 124.148 102.544 124.187 102.726 124.206C102.726 124.212 102.725 124.219 102.719 124.225C102.072 125.359 101.535 126.538 101.121 127.768C100.791 128.747 100.325 129.648 99.8006 130.531C97.8916 133.771 96.4744 137.217 95.4844 140.843C94.9796 142.678 94.8567 144.566 94.8631 146.472C94.8696 146.981 94.8567 147.49 94.8308 148.005C94.7402 149.602 93.5107 150.62 91.9188 150.433C91.0905 150.337 90.3204 150.06 89.5957 149.654C89.3433 149.506 89.2203 149.345 89.2268 149.042C89.2656 147.883 89.2656 146.723 89.3174 145.564C89.4145 143.574 89.518 141.583 89.6474 139.593C89.8157 137.049 89.9775 134.492 90.5534 131.987C90.7928 130.969 91.1034 129.983 91.5693 129.043C91.9447 128.283 92.3135 127.51 92.6888 126.744C92.7859 126.55 92.9218 126.364 93.0124 126.215C93.556 126.209 94.0542 126.228 94.546 126.209C96.1638 126.132 97.7104 125.694 99.2376 125.191C100.234 124.863 101.205 124.476 102.188 124.103V124.109Z" fill="#0A0D18"/>
<path d="M114.335 103.73C114.878 102.146 115.312 100.439 116.03 98.9318C116.159 98.642 116.263 99.8915 116.205 100.098C115.752 101.824 115.059 103.518 114.477 105.205C113.92 106.828 113.357 108.451 112.795 110.081C111.707 113.237 110.62 116.393 109.514 119.543C109.365 119.955 109.229 120.361 109.061 120.767C109.028 120.754 108.983 120.747 108.951 120.734C108.925 120.734 108.873 120.973 108.86 121.217C108.562 121.9 108.161 122.525 107.566 123.021C106.692 123.755 105.592 124.148 104.466 124.257C103.884 124.315 103.308 124.29 102.738 124.206C102.79 124.122 102.823 124.019 102.887 123.865C102.687 123.935 102.557 123.974 102.434 124.026L102.201 124.109C100.506 123.762 98.8881 122.905 97.4062 121.99C97.4127 121.913 97.4127 121.836 97.4062 121.771C99.6517 122.725 101.955 123.568 104.44 123.117C105.683 122.898 106.945 122.345 107.805 121.411C108.782 120.348 109.132 118.86 109.585 117.527C110.633 114.442 111.701 111.356 112.769 108.271C113.293 106.758 113.817 105.244 114.341 103.737L114.335 103.73Z" fill="#0A0D18"/>
<path d="M97.3935 121.771C97.4 121.842 97.4 121.919 97.3935 121.99C97.0571 121.79 96.7336 121.578 96.4102 121.378V121.352C96.7401 121.494 97.0636 121.629 97.3935 121.771Z" fill="#0A0D18"/>
<path d="M92.235 118.429C92.3387 118.461 92.3063 118.809 92.2869 118.893C92.2609 119.003 92.2155 119.113 92.1636 119.229C92.0145 119.145 91.8718 119.055 91.7227 118.977C91.781 118.887 91.8329 118.79 91.9042 118.706C91.9885 118.609 92.0923 118.519 92.1831 118.429C92.1896 118.429 92.1961 118.422 92.2026 118.416C92.209 118.422 92.222 118.422 92.235 118.429Z" fill="#0A0D18"/>
<path d="M91.8016 119.801C91.6334 120.039 91.4587 120.277 91.284 120.522C90.9929 120.921 90.7082 121.327 90.3848 121.714C90.5336 121.424 90.5918 121.076 90.5724 120.709C90.76 120.406 90.9606 120.103 91.1676 119.801L91.6722 119.053C91.6722 119.053 91.6981 119.002 91.724 118.976C91.8728 119.053 92.0151 119.144 92.1639 119.227C92.0668 119.427 91.9439 119.62 91.8081 119.801H91.8016Z" fill="#0A0D18"/>
<path d="M91.7184 118.976C91.5567 118.886 91.3885 118.796 91.2268 118.712C90.7027 118.454 90.2757 118.461 89.7258 118.351C89.5964 118.384 89.4929 118.345 89.4023 118.222C89.6417 117.855 89.8811 117.501 90.1334 117.147C90.5992 117.218 91.1297 117.45 91.4144 117.604C92.3977 118.126 93.31 118.783 94.2351 119.408C95.2767 120.11 96.383 120.754 97.334 121.578C97.3599 121.598 97.3728 121.675 97.3858 121.771C97.0558 121.63 96.7323 121.494 96.4024 121.353V121.379C96.7259 121.578 97.0494 121.791 97.3858 121.99C97.3858 122.158 97.3599 122.319 97.3275 122.319C95.4643 121.565 93.8793 120.251 92.1519 119.227C92.2101 119.118 92.2489 119.008 92.2748 118.892C92.2942 118.809 92.3331 118.461 92.2231 118.429C92.2101 118.422 92.1972 118.422 92.1907 118.416C92.1842 118.422 92.1778 118.429 92.1713 118.429C92.0807 118.519 91.9772 118.609 91.8931 118.706C91.8219 118.789 91.7702 118.886 91.712 118.976H91.7184Z" fill="#0A0D18"/>
<path d="M90.5731 120.709C90.5926 121.076 90.5343 121.424 90.3855 121.714C90.3338 121.784 90.2755 121.855 90.2173 121.92C90.1656 121.971 90.1397 121.746 90.1332 121.72C90.1267 121.617 90.1138 121.469 90.1656 121.372C90.2949 121.14 90.4308 120.928 90.5667 120.709H90.5731Z" fill="#0A0D18"/>
<path d="M100.384 98.7838C99.6397 106.217 94.2364 111.337 90.1337 117.14C89.9913 117.121 89.8554 117.115 89.7325 117.134C93.5504 111.208 99.232 105.772 100.306 98.539C100.332 98.3651 100.39 98.7258 100.384 98.7838Z" fill="#0A0D18"/>
<path d="M91.2253 118.712C91.3935 118.795 91.5617 118.886 91.717 118.976C91.6976 119.002 91.6846 119.027 91.6652 119.053L91.1606 119.8C90.96 120.103 90.7595 120.406 90.5654 120.708V120.657C90.5136 120.006 90.2355 119.498 89.8667 118.963C89.7632 118.815 89.6597 118.68 89.5626 118.525C89.4979 118.428 89.4462 118.319 89.3944 118.216C89.485 118.338 89.582 118.383 89.7179 118.345C90.2678 118.454 90.6948 118.448 91.2188 118.705L91.2253 118.712Z" fill="#0A0D18"/>
<path d="M89.6539 124.22C89.6539 124.22 89.6607 124.287 89.6674 124.314C89.6607 124.28 89.6539 124.24 89.6404 124.207V124.186C89.6404 124.186 89.6539 124.207 89.6539 124.22Z" fill="#0A0D18"/>
<path d="M89.6152 124.058C89.6152 124.058 89.629 124.099 89.6359 124.133V124.147C89.6359 124.147 89.6221 124.085 89.6152 124.058Z" fill="#0A0D18"/>
<path d="M89.5957 123.987C89.6158 124.02 89.6292 124.08 89.6359 124.14C89.6292 124.114 89.6225 124.087 89.6158 124.067C89.6158 124.06 89.6091 124.054 89.6091 124.047C89.6024 124.027 89.6024 124.014 89.5957 123.987Z" fill="#0A0D18"/>
<path d="M89.4274 122.66C89.4073 122.72 89.394 122.767 89.3672 122.82C89.3739 122.767 89.3806 122.727 89.3873 122.673C89.394 122.673 89.4074 122.667 89.4207 122.66H89.4274Z" fill="#0A0D18"/>
<path d="M89.4019 118.216C89.376 118.248 89.3501 118.293 89.3243 118.325C89.3178 118.325 89.2078 117.945 89.2854 117.823C89.4342 117.591 89.5701 117.359 89.7318 117.127C89.8548 117.108 89.9971 117.115 90.1329 117.134C89.8806 117.488 89.6413 117.842 89.4019 118.203V118.216Z" fill="#0A0D18"/>
<path d="M89.375 122.682C89.3816 122.623 89.3947 122.571 89.4012 122.512C89.4012 122.571 89.3947 122.616 89.3881 122.675C89.3816 122.682 89.375 122.682 89.375 122.682Z" fill="#0A0D18"/>
<path d="M89.3776 122.68C89.3776 122.68 89.3842 122.68 89.3907 122.673C89.3842 122.725 89.3777 122.764 89.3711 122.816C89.3646 122.829 89.3581 122.848 89.3516 122.868C89.3646 122.803 89.3711 122.751 89.3776 122.686V122.68Z" fill="#0A0D18"/>
<path d="M88.943 122.454C88.9818 122.203 89.053 121.964 89.2082 121.758C89.2147 121.752 89.2277 121.739 89.2406 121.732C89.3053 121.765 89.2988 121.752 89.3441 121.732C89.357 121.739 89.3635 121.745 89.37 121.752C89.3506 121.784 89.3506 121.803 89.37 121.778C89.3829 121.765 89.3959 121.771 89.4023 121.784C89.4282 121.803 89.4411 121.868 89.4541 121.894C89.4864 122.042 89.4929 122.196 89.48 122.351C89.4735 122.46 89.4476 122.557 89.4153 122.654C89.4023 122.66 89.3894 122.666 89.3829 122.666C89.3894 122.608 89.3959 122.563 89.3959 122.505C89.3894 122.563 89.3765 122.615 89.37 122.673C89.2212 122.731 89.0659 122.769 88.9042 122.789C88.9106 122.673 88.9171 122.557 88.9365 122.441L88.943 122.454Z" fill="#0A0D18"/>
<path d="M89.1961 123.306V123.319C89.1961 123.319 89.1893 123.353 89.1758 123.373V123.272C89.1758 123.272 89.1893 123.279 89.1893 123.292C89.1893 123.292 89.1961 123.299 89.1961 123.306Z" fill="#0A0D18"/>
<path d="M89.168 123.241V123.22H89.1751V123.255C89.1751 123.255 89.1751 123.248 89.168 123.241Z" fill="#0A0D18"/>
<path d="M89.168 123.24C89.168 123.24 89.1751 123.247 89.1751 123.255C89.168 123.247 89.168 123.24 89.168 123.24Z" fill="#0A0D18"/>
<path d="M89.178 123.392H89.168L89.178 123.382V123.392Z" fill="#0A0D18"/>
<path d="M89.0332 124.141C89.2407 124.206 89.4483 124.27 89.6493 124.335C89.6558 124.406 89.6558 124.477 89.6558 124.535C89.6558 124.574 89.6493 124.903 89.5585 124.903C89.4807 124.91 89.3769 124.774 89.325 124.716C89.2537 124.626 89.2018 124.529 89.1434 124.432C89.0916 124.342 89.0527 124.238 89.0332 124.141Z" fill="#0A0D18"/>
<path d="M89.1692 123.394H89.1756V123.381H89.1692V123.394ZM89.1692 123.239C89.1692 123.239 89.1692 123.246 89.1756 123.252V123.226H89.1692V123.239ZM88.9363 123.716C88.8845 123.413 88.878 123.098 88.9104 122.795C89.0721 122.776 89.2339 122.731 89.3762 122.679C89.3697 122.743 89.3633 122.795 89.3503 122.859C89.3568 122.846 89.3633 122.827 89.3697 122.808C89.3374 122.982 89.2727 123.143 89.2015 123.317H89.1951V123.304L89.1886 123.291C89.1886 123.278 89.1821 123.272 89.1756 123.265V123.368C89.1756 123.368 89.1951 123.342 89.1951 123.33H89.2015C89.2015 123.33 89.208 123.355 89.2145 123.368C89.2403 123.452 89.2856 123.542 89.3309 123.619C89.3827 123.71 89.4409 123.787 89.5056 123.864C89.5573 123.916 89.5832 123.974 89.6026 124.044C89.6026 124.051 89.6091 124.057 89.6091 124.064C89.6156 124.09 89.6156 124.122 89.6285 124.148C89.6285 124.16 89.635 124.173 89.635 124.186V124.206C89.635 124.206 89.6415 124.257 89.6415 124.276V124.341C89.4409 124.276 89.2403 124.212 89.0269 124.148C88.9751 124.006 88.9492 123.864 88.9298 123.722L88.9363 123.716Z" fill="#0A0D18"/>
<path d="M87.9069 113.894C89.3564 112.477 90.7283 110.996 92.029 109.437C94.6498 106.294 96.7141 102.706 97.0182 98.5582C97.0441 98.2233 97.1476 98.5776 97.1476 98.7128C97.2318 102.848 95.2645 106.596 92.7473 109.765C91.356 111.511 89.7512 113.108 88.0816 114.603C86.5415 115.968 84.7749 117.578 82.8141 118.293C82.8012 118.293 82.7818 118.145 82.8077 118.132C84.5161 116.709 86.3085 115.453 87.9004 113.894H87.9069Z" fill="#0A0D18"/>
<path d="M88.0423 122.706C88.3399 122.796 88.6375 122.821 88.9093 122.796C88.8834 123.098 88.8899 123.414 88.9352 123.717C88.9546 123.858 88.9869 124 89.0322 124.142C87.8289 123.755 86.5867 123.337 85.5257 122.654C85.0081 122.326 84.5294 121.933 84.1218 121.475C83.8436 121.166 83.3907 120.612 83.2225 120.116C85.2604 119.852 86.2568 122.171 88.0359 122.706H88.0423Z" fill="#0A0D18"/>
<path d="M89.6916 124.94C87.8607 124.83 85.8099 124.669 84.3801 123.388C83.4097 122.518 82.9309 121.391 82.8145 120.174L83.015 120.154C83.0862 120.141 83.1638 120.129 83.2285 120.122C83.3967 120.625 83.8496 121.172 84.1278 121.481C84.5289 121.938 85.0141 122.331 85.5317 122.66C86.5927 123.343 87.8284 123.755 89.0382 124.148C89.0576 124.244 89.1029 124.347 89.1481 124.438C89.2064 124.534 89.2581 124.631 89.3293 124.721C89.3811 124.779 89.4846 124.914 89.5622 124.908C89.6528 124.908 89.6592 124.579 89.6592 124.541C89.6592 124.476 89.6592 124.412 89.6528 124.341C89.6592 124.341 89.6657 124.347 89.6722 124.347C89.7822 124.38 89.7692 124.946 89.6916 124.946V124.94Z" fill="#0A0D18"/>
<path d="M83.2296 120.127C83.1576 120.133 83.0791 120.146 83.0137 120.159C83.066 120.01 83.1184 119.873 83.1707 119.723C83.1641 119.847 83.1838 119.983 83.2361 120.12L83.2296 120.127Z" fill="#0A0D18"/>
<path d="M88.9092 122.795C88.6375 122.821 88.3463 122.795 88.0423 122.705C86.2567 122.171 85.2604 119.852 83.2289 120.116C83.1772 119.974 83.1578 119.845 83.1642 119.723C83.1125 119.871 83.0607 120.006 83.009 120.155L82.8084 120.174C82.7696 119.73 82.7696 119.279 82.8084 118.828C82.8149 118.75 82.8278 118.39 82.9637 118.383C85.228 118.171 86.1532 120.779 88.0164 121.514C88.7151 121.791 89.7891 121.694 90.2031 120.973C90.3907 120.638 90.0608 120.374 89.8343 120.058C89.6467 119.787 89.4397 119.523 89.3038 119.227C89.0903 118.75 89.0321 118.113 89.1744 117.604C89.2586 117.308 89.4656 117.166 89.7308 117.14C89.5691 117.372 89.4332 117.604 89.2844 117.836C89.2068 117.952 89.3168 118.338 89.3232 118.338C89.3491 118.306 89.375 118.261 89.4009 118.229C89.4526 118.332 89.5044 118.441 89.5691 118.538C89.6661 118.693 89.7696 118.828 89.8732 118.976C90.2419 119.511 90.5201 120.019 90.5719 120.67V120.721C90.4295 120.94 90.3001 121.159 90.1708 121.385C90.1125 121.481 90.1319 121.63 90.1384 121.733C90.1449 121.758 90.1708 121.984 90.2225 121.932C90.2807 121.861 90.339 121.791 90.3907 121.726C90.2031 122.164 89.8602 122.499 89.4268 122.673C89.4526 122.576 89.485 122.48 89.4915 122.37C89.5044 122.216 89.4979 122.061 89.4656 121.913C89.4591 121.887 89.4462 121.823 89.4138 121.803C89.4073 121.791 89.3944 121.784 89.3815 121.797C89.3621 121.816 89.3621 121.803 89.3815 121.771C89.375 121.765 89.3685 121.758 89.3556 121.752C89.3038 121.771 89.3168 121.784 89.2521 121.752C89.2391 121.758 89.2262 121.771 89.2197 121.778C89.0645 121.977 88.9998 122.222 88.9545 122.473C88.9351 122.589 88.9286 122.705 88.9221 122.821L88.9092 122.795Z" fill="#0A0D18"/>
<path d="M126.177 88.111C125.194 88.1303 117.674 89.9724 113.125 88.7937C113.125 88.7937 123.88 89.9015 125.012 94.5583C126.145 99.2215 127.361 94.2169 127.361 94.2169L126.184 88.111H126.177Z" fill="#0A0D18"/>
<path d="M98.2533 95.0412C95.6325 100.967 90.8439 105.836 85.0911 108.838C82.3085 110.287 79.2865 111.292 76.1933 111.807C74.9897 112.007 72.8672 112.56 71.8059 111.672C70.9129 110.924 71.8577 109.082 72.2912 108.277C72.7377 107.446 73.3266 106.712 73.9608 106.016C74.0773 105.888 73.9608 105.179 73.8961 105.231C72.0906 106.706 70.5376 109.598 71.1847 111.994C71.8512 114.486 76.0574 113.32 77.8046 112.96C83.5768 111.768 88.9414 108.554 92.9276 104.265C95.2377 101.778 97.0626 98.8993 98.3697 95.7819C98.4409 95.6209 98.3244 94.8737 98.2533 95.0347V95.0412Z" fill="#0A0D18"/>
<path d="M85.1249 155.638C78.4403 157.016 70.8432 154.33 66.7147 148.881C66.7147 148.881 66.6758 149.023 66.7082 149.061C70.9079 154.82 78.1297 157.686 85.1379 156.095C85.2285 156.076 85.1767 155.625 85.1249 155.631V155.638Z" fill="#0A0D18"/>
<path d="M77.7199 158.304C76.1348 157.956 74.511 157.331 73.3464 156.159C73.3012 156.114 73.2882 156.307 73.2882 156.32C73.2882 156.397 73.2753 156.533 73.3335 156.604C73.8705 157.286 74.5174 157.834 75.2938 158.227C75.6561 158.413 76.0637 158.523 76.4648 158.607C76.8982 158.69 77.2929 158.684 77.7263 158.626C77.7781 158.62 77.7716 158.31 77.7199 158.304Z" fill="#0A0D18"/>
<path d="M48.5493 132.276C56.9099 125.623 69.2632 127.111 75.8508 135.49C75.8508 135.49 75.8702 135.407 75.8508 135.387C72.8288 131.381 68.2732 128.586 63.2645 127.884C58.0165 127.149 52.6325 128.747 48.5234 132.038C48.4781 132.077 48.5234 132.289 48.5428 132.27L48.5493 132.276Z" fill="#0A0D18"/>
<path d="M62.6445 125.655C64.0095 125.32 65.5687 125.867 66.5197 126.879C66.5327 126.892 66.5715 126.647 66.5327 126.589C66.3127 126.273 66.0604 125.996 65.7304 125.79C65.4393 125.603 65.1158 125.462 64.7794 125.365C64.0742 125.159 63.3108 125.243 62.638 125.52C62.6121 125.533 62.625 125.661 62.638 125.655H62.6445Z" fill="#0A0D18"/>
<path d="M101.754 143.934C103.948 142.936 106.484 142.968 108.769 143.67C111.461 144.501 113.499 146.169 115.505 148.063C119.647 151.966 126.351 151.966 131.521 150.362C131.599 150.336 131.553 149.976 131.515 149.982C128.661 150.613 125.645 150.826 122.74 150.472C121.349 150.304 119.918 150.04 118.605 149.525C117.149 148.952 116.062 147.94 114.949 146.884C111.493 143.586 106.329 141.087 101.748 143.683C101.696 143.715 101.748 143.934 101.748 143.928L101.754 143.934Z" fill="#0A0D18"/>
<path d="M63.0514 119.3C63.0449 119.138 63.0903 118.932 63.1422 118.706C63.1487 118.706 63.1616 118.712 63.1681 118.719C63.1098 118.906 63.0644 119.093 63.0579 119.3C63.0579 119.332 63.0514 119.313 63.0514 119.293V119.3Z" fill="#0A0D18"/>
<path d="M64.465 121.204C64.2903 121.469 63.8633 121.584 63.5786 121.668C63.184 121.784 62.77 121.849 62.3688 121.926C60.9261 122.209 59.477 122.203 58.3707 121.114C58.306 121.05 58.2542 120.992 58.196 120.927C57.2708 119.852 55.8281 117.366 55.8281 117.366C57.659 118.048 59.5546 117.404 61.3919 117.076C62.0195 116.966 63.074 116.754 63.294 117.546C63.4104 117.978 63.281 118.338 63.1775 118.718C63.1711 118.712 63.1581 118.705 63.1517 118.705C63.2681 118.171 63.3975 117.572 62.7635 117.54C62.4012 117.527 62.026 117.649 61.6701 117.707C61.2496 117.771 60.8356 117.836 60.415 117.907C59.1923 118.119 57.9113 118.293 56.7145 117.984C56.9538 118.171 57.1608 118.409 57.3614 118.667C57.5749 118.763 57.8013 118.834 58.0472 118.873C59.0176 119.047 59.794 118.654 60.6997 118.39C61.5731 118.139 62.44 118.274 63.1517 118.712C63.0999 118.931 63.0546 119.143 63.0611 119.304C63.0611 119.324 63.0676 119.343 63.0676 119.311C63.074 119.105 63.1258 118.918 63.1775 118.731C63.611 118.995 63.9927 119.375 64.2709 119.845C64.4779 120.206 64.7367 120.812 64.4714 121.211L64.465 121.204Z" fill="#0A0D18"/>
<path d="M66.4926 120.251C66.3244 120.367 66.1497 120.47 65.9557 120.554C65.781 120.618 65.6063 120.67 65.4252 120.696C65.1793 120.734 64.9141 120.767 64.6747 120.715C64.6553 120.618 64.6294 120.522 64.6035 120.432C64.9141 120.406 65.2181 120.406 65.5287 120.335C65.7227 120.296 65.9104 120.238 66.0915 120.168C66.2597 120.103 66.4215 120.039 66.5832 119.961C66.622 119.942 66.5832 120.064 66.5832 120.077C66.5703 120.129 66.5444 120.219 66.4991 120.251H66.4926Z" fill="#0A0D18"/>
<path d="M85.8825 143.748C85.8825 143.748 86.0521 143.696 85.9934 143.741C85.9608 143.767 85.9216 143.787 85.889 143.819C85.8695 143.826 85.8564 143.819 85.8369 143.819C85.8173 143.819 85.8108 143.806 85.7912 143.806L85.8825 143.754V143.748Z" fill="#0A0D18"/>
<path d="M88.5102 143.967C88.4389 143.986 88.3676 144.019 88.3092 144.045C88.2962 144.051 88.2832 144.057 88.2703 144.064C88.1665 143.974 88.0692 143.896 87.959 143.812C87.9914 143.825 88.0368 143.831 88.0692 143.838C88.0692 143.838 88.0692 143.844 88.0757 143.844C88.2249 143.883 88.3675 143.922 88.5167 143.961L88.5102 143.967Z" fill="#0A0D18"/>
<path d="M88.5163 143.967C88.5163 143.967 88.4063 144.037 88.3286 144.057H88.3221C88.3221 144.057 88.2704 144.07 88.2639 144.07C86.7044 143.657 85.1707 143.136 83.6888 142.479C84.4201 143.013 85.229 143.419 86.1026 143.683C86.1026 143.69 85.9731 143.793 85.8825 143.806C85.9149 143.78 85.9537 143.754 85.9861 143.728C86.0443 143.69 85.8955 143.728 85.8761 143.735C85.8502 143.754 85.8178 143.773 85.7855 143.793C85.8049 143.799 85.8114 143.806 85.8243 143.806C85.8437 143.812 85.8567 143.812 85.8825 143.806C85.2743 144.205 84.6013 144.533 83.8765 144.636C83.0611 144.752 82.3299 144.495 81.6763 144.005C80.9645 143.451 80.3821 142.73 79.7738 142.054C79.0167 141.236 78.1884 140.443 77.5284 139.555H77.5219C77.4895 139.503 77.8001 139.406 77.8454 139.413C79.1008 139.632 80.408 139.658 81.6763 139.561C82.6211 139.49 83.76 139.207 84.5819 139.838C84.9572 140.121 85.2096 140.546 85.3649 140.978C85.4555 141.229 85.5137 141.48 85.5525 141.738C85.5719 141.886 85.5849 142.034 85.6237 142.176C85.6237 142.176 85.4425 142.827 86.7432 143.187C87.3127 143.348 87.7462 143.599 88.0698 143.825C88.0374 143.818 87.9921 143.812 87.9598 143.799C88.0698 143.883 88.1668 143.96 88.2704 144.05C88.2833 144.044 88.2963 144.037 88.3092 144.031C88.3739 144.005 88.4386 143.973 88.5098 143.954H88.5163V143.967Z" fill="#0A0D18"/>
<path d="M80.0803 143.672C80.0803 143.672 79.9691 143.743 79.8906 143.763H79.8841C79.8841 143.763 79.8775 143.75 79.871 143.75C79.799 143.685 79.714 143.62 79.6289 143.554C79.7794 143.594 79.9233 143.633 80.0738 143.672H80.0803Z" fill="#0A0D18"/>
<path d="M123.388 63.5322C123.388 63.5322 130.9 66.2374 126.403 85.6245L123.447 84.8194L126.5 78.8422C126.5 78.8422 126.597 71.667 126.5 71.5318C126.403 71.3965 125.303 67.8991 125.142 67.4611C124.98 67.0231 123.388 63.5322 123.388 63.5322Z" fill="#0A0D18"/>
<path d="M126.176 63.687C126.176 63.687 129.029 68.3567 129.029 69.9991V72.1246L134.424 68.6594C134.424 68.6594 129.669 63.4552 126.176 63.687Z" fill="#0A0D18"/>
<path d="M130.662 78.0758L130.571 77.4896L129.943 73.3932L133.793 70.6172C133.793 70.6172 134.724 72.0471 134.369 74.5784C134.013 77.1096 132.201 78.7843 132.201 78.7843" fill="#0A0D18"/>
</svg>
