<svg width="120" height="185" viewBox="0 0 120 185" fill="none" xmlns="http://www.w3.org/2000/svg">
<path d="M72.2999 17.1957C70.4306 16.6654 68.6312 16.7001 66.9628 17.1435C65.8709 17.4305 64.8664 17.7956 63.8619 18.1521C62.5778 18.5955 61.3637 19.0737 60.0971 19.5171C59.9311 19.5866 59.7564 19.6388 59.5817 19.6997C57.4941 20.3865 55.2666 20.8734 52.7772 21.1168C50.6196 21.3255 48.4359 21.3516 46.1386 20.9082C43.7627 20.4387 42.531 19.491 42.6009 18.1521C42.6359 17.7869 42.6621 17.4044 42.6883 16.961C42.6883 16.961 38.1898 19.9518 42.8542 22.9252C42.8979 22.9513 42.9329 22.9687 42.9416 22.9948C44.1557 23.6816 45.6145 24.1424 47.1693 24.551C47.4925 24.6206 47.7982 24.7075 48.0865 24.7858C46.5055 24.8553 44.9681 24.8119 43.4045 24.3685C42.6009 24.1511 41.9283 23.8555 41.7449 23.3252C41.6925 23.1774 41.4828 23.073 41.378 22.9426C41.378 22.9426 40.5744 24.1772 43.9461 25.7335V25.7508C44.5925 25.9421 45.2214 26.0986 45.9027 26.229C47.938 26.6029 49.947 26.6551 51.9124 26.4986C55.3889 26.2203 58.42 25.4552 61.189 24.4206C61.4597 24.325 61.748 24.2381 62.0188 24.1511C62.0625 24.2641 61.9926 24.325 61.9314 24.3685C60.1146 25.7074 57.9832 26.8202 55.4064 27.681C52.716 28.5591 49.816 29.1503 46.4705 29.2025C44.0684 29.2372 41.8497 28.8982 40.0154 27.6549C39.8581 27.5332 39.5699 27.4636 39.2991 27.368C38.8886 27.681 39.0371 27.9853 39.3166 28.2461C39.6485 28.5765 40.059 28.8808 40.5657 29.1329C42.0856 29.8719 43.7801 30.3675 45.6145 30.6457C46.75 30.8109 47.903 30.9152 49.0735 31.0543C49.3705 31.6108 49.947 32.0107 50.8992 32.2976C52.5064 32.7845 54.1049 33.0801 55.8082 33.1323C56.9088 33.1323 67.845 32.7932 70.1423 26.6116C72.4309 20.4387 72.195 21.7776 72.195 21.7776C72.195 21.7776 72.4309 25.3074 73.4267 26.9941C73.4703 26.942 73.5227 26.8898 73.5752 26.855C73.6276 26.8029 73.68 26.7594 73.7411 26.742C73.1209 23.5512 72.3697 20.3256 72.3086 17.1957H72.2999ZM61.7218 29.2546C61.7218 29.2546 57.8435 31.463 56.6206 29.5763C56.1838 28.8895 63.4076 27.0115 63.4076 27.0115L61.7218 29.2459V29.2546Z" fill="white"/>
<path d="M105.841 68.214C105.841 49.1388 103.553 41.4792 101.771 38.3927C100.242 39.3143 98.5824 39.9142 96.8267 40.3055C95.1059 40.6793 93.3589 40.8271 91.6031 40.9576C89.533 41.0967 87.5588 40.6706 85.7594 39.5839C84.0649 38.5666 82.7633 37.1582 81.6977 35.5063C81.5754 35.315 81.4531 35.1324 81.2784 34.8716C80.7892 35.2194 80.3088 35.4976 79.907 35.8627C79.0685 36.6452 78.1251 37.1669 76.9721 37.2625C76.7187 37.2886 76.4829 37.4364 76.2034 37.5494C76.3169 37.645 76.3431 37.6798 76.3781 37.6972C76.5091 37.7407 76.6401 37.7928 76.7712 37.8363C78.9112 38.471 80.5447 39.7664 81.6453 41.6879C82.9905 44.0179 83.2962 46.5306 82.8245 49.1649C82.4751 51.1037 81.4531 52.5557 79.8197 53.6164C79.3043 53.9641 78.754 54.2684 78.2037 54.5553C76.544 55.39 74.7796 55.8943 72.9714 56.3203H72.9802C73.2422 56.2855 73.644 56.4246 74.1157 56.7028C74.1245 56.7028 74.1332 56.7028 74.1419 56.7115C76.5703 57.7809 81.6191 60.85 82.1519 63.067C82.5013 64.5276 80.2477 66.2752 77.9067 67.7619C77.8194 67.8749 77.7407 67.9966 77.6621 68.1097C77.6796 68.101 77.7058 68.101 77.732 68.0923C78.0203 68.014 78.3172 67.9706 78.6142 67.9619C79.8022 67.8836 80.9639 68.0401 82.117 68.3183C84.3356 68.8574 86.5543 69.4225 88.7905 69.9702C92.4417 70.8571 96.1453 70.9875 99.8664 70.405C101.937 70.0833 103.981 69.6051 105.981 69.0487L105.85 68.2314L105.841 68.214ZM89.6378 41.8531C90.6336 42.0009 91.3673 42.5138 92.101 43.1311C94.3023 44.9656 96.1017 47.1392 97.5429 49.5996C98.6348 51.4602 99.2463 53.512 99.6917 55.6247C99.8053 56.1551 99.9014 56.6941 100.006 57.2332C99.9625 57.268 99.9101 57.3027 99.8664 57.3375C99.0279 56.5811 98.1631 55.8682 97.3595 55.0683C95.3854 53.086 93.6646 50.9125 92.1622 48.5389C90.8432 46.4349 89.4806 44.3309 87.8558 42.453C87.454 41.9922 87.0173 41.5575 86.5543 41.0445C87.6375 41.3401 88.6245 41.6966 89.6378 41.8531ZM101.535 63.0583C98.0234 61.6499 94.5032 60.2501 91.0092 58.8068C89.3233 58.1113 87.6899 57.3027 86.1875 56.2333C84.0649 54.7553 83.1477 52.7209 83.3661 50.1648C83.4534 49.1823 83.567 48.1999 83.6543 47.1392C84.126 48.0868 84.5366 48.9476 84.9733 49.8083C86.9212 53.6077 89.8824 56.4768 93.5074 58.6677C94.9661 59.5545 96.5209 60.2762 98.0321 61.0673C99.2637 61.6933 100.495 62.3193 101.849 63.0148C101.64 63.0496 101.578 63.0844 101.526 63.0583H101.535ZM105.02 61.3282C104.968 61.2499 104.898 61.1977 104.863 61.1195C104.208 59.9545 103.474 58.8242 102.924 57.6157C102.286 56.1899 101.841 54.6858 101.552 53.1382C101.054 50.5386 100.286 48.0086 99.0628 45.6351C98.5562 44.6439 97.8836 43.7223 97.0101 42.9833C96.9227 42.9051 96.8005 42.879 96.6956 42.8355C96.7306 42.7833 96.7743 42.7312 96.8092 42.6877C97.0887 42.6703 97.3857 42.6355 97.7351 42.6008C98.1544 43.1833 98.6173 43.7397 99.0279 44.3483C100.941 47.1218 102.443 50.0778 103.247 53.3642C103.858 55.8856 104.479 58.4156 105.09 60.9282C105.116 61.0413 105.116 61.1543 105.134 61.2673C105.099 61.276 105.055 61.2934 105.029 61.3108L105.02 61.3282Z" fill="white"/>
<path d="M72.3704 56.4788C72.3704 56.4788 72.3792 56.5228 72.3792 56.5491C72.7059 56.4085 72.9179 56.3206 72.9179 56.3206C72.7413 56.3557 72.5646 56.4261 72.3704 56.4788Z" fill="white"/>
<path d="M107.467 68.9609C107.939 69.7782 108.087 70.6824 108.026 71.6213C108.009 71.9082 107.93 72.2212 108.218 72.4647C108.76 72.1952 108.995 71.6822 109.275 71.2127C111.554 67.5003 113.563 63.64 115.213 59.6233C115.589 58.693 115.903 57.7105 116.095 56.7281C116.375 55.2675 116.506 53.7721 116.707 52.294C116.733 52.1549 116.715 52.0071 116.715 51.7202C115.065 53.5199 113.362 55.0153 111.362 56.1717C111.449 56.5542 111.545 56.8846 111.598 57.2237C111.633 57.4932 111.65 57.7801 111.58 58.0409C111.414 58.6408 111.231 59.2407 110.987 59.8059C110.305 61.3621 109.598 62.9097 108.873 64.4486C108.402 65.4397 107.878 66.4048 107.38 67.3785C107.38 67.3785 107.38 67.3785 107.38 67.3872C107.022 67.935 107.17 68.4392 107.485 68.9696L107.467 68.9609Z" fill="white"/>
<path d="M66.1326 79.1773C66.7877 79.5251 67.4778 79.8033 68.0718 80.238C68.8492 80.8031 69.5655 81.4726 70.273 82.1334C71.2338 83.0202 72.2209 83.8374 73.5573 84.0896C75.0336 84.3591 76.3613 84.9938 77.6366 85.7502C77.9161 85.9154 78.2043 86.0806 78.5188 86.1501C79.1303 86.2979 79.698 86.4979 80.2134 86.8891C80.5803 87.1673 80.9821 86.9935 81.017 86.5414C81.0345 86.2979 80.9471 85.9849 80.7899 85.7936C80.423 85.3502 79.995 84.9677 79.5845 84.5591C79.2351 84.22 78.9293 83.8635 78.9643 83.2462C79.2438 83.2636 79.4884 83.2549 79.733 83.2984C80.8248 83.4984 81.8992 83.7418 82.9999 83.9157C83.6113 84.0113 84.2402 84.107 84.8429 83.8288C85.2972 83.6114 85.7514 83.4027 86.2143 83.2028C86.7384 82.9767 86.8694 82.6724 86.5987 82.1681C86.5288 82.029 86.4152 81.9073 86.3104 81.7856C85.5941 80.9423 84.7032 80.3424 83.7249 79.8468C82.8776 79.4208 82.039 78.9861 81.2005 78.5513C81.0782 78.4905 80.9297 78.4383 80.851 78.3427C80.7812 78.2557 80.7462 78.0905 80.7812 77.9775C80.7986 77.908 80.9646 77.821 81.0519 77.8297C81.3489 77.8645 81.6372 77.9514 81.9342 77.9862C82.7116 78.0645 83.4977 78.1688 84.2752 78.1775C84.6508 78.1775 85.0526 78.0471 85.3932 77.8819C85.8475 77.6558 85.83 77.3081 85.367 77.0646C85.1487 76.9516 84.8866 76.8994 84.642 76.8386C83.3667 76.5169 82.0914 76.2213 80.8161 75.8735C80.0736 75.6735 79.3399 75.5171 78.5625 75.5344C77.9598 75.5518 77.3571 75.5518 76.7543 75.5344C75.9245 75.4997 75.5926 75.1432 75.5751 74.3259C75.5751 74.1955 75.5577 74.0564 75.5489 73.9434C75.0947 73.6565 74.7715 73.9086 74.4483 74.126C73.9329 74.4737 73.4089 74.8128 72.9022 75.178C72.448 75.5084 72.0025 75.5084 71.4784 75.3605C68.2028 74.4216 65.4338 72.7088 63.3811 69.9788C61.9398 68.0661 60.551 66.1099 59.1883 64.1363C58.0528 62.4931 56.5766 61.4411 54.5588 61.1889C53.8512 61.102 53.1524 60.989 52.4449 60.8846C54.1569 60.6325 55.8603 60.7281 57.5549 60.9716C57.8519 61.015 58.0877 60.9716 58.341 60.8412C61.6079 59.111 64.8049 57.2591 67.8359 55.1464C68.4561 54.7204 68.8142 54.1814 68.9365 53.4684C69.0152 53.0163 69.0676 52.5469 69.0326 52.0948C68.8492 49.6517 67.5215 47.7563 66.0278 45.9045C65.591 46.1131 65.198 46.2957 64.7787 46.4957C64.5166 45.7827 64.2895 45.0872 64.3157 44.3395C64.3332 43.8091 64.6127 43.6353 65.1019 43.8439C65.329 43.9396 65.5474 44.0874 65.7483 44.2438C67.0673 45.3132 68.2377 46.5217 69.085 47.9998C70.1245 49.7908 70.5787 51.7035 70.273 53.7727C70.2031 54.2422 70.107 54.7117 70.0109 55.2334C70.1769 55.2334 70.2905 55.2508 70.3953 55.2334C73.339 54.7291 76.108 53.7293 78.6673 52.1904C79.2176 51.86 79.7504 51.4688 80.1959 51.008C81.9342 49.1648 82.4321 47.0347 81.5324 44.6351C80.8336 42.7571 79.5059 41.3487 77.9685 40.1402C77.3221 39.6272 76.5796 39.236 75.8721 38.8186C75.4703 38.5839 75.0161 38.5752 74.6055 38.7752C73.8718 39.1142 73.1381 39.4446 72.4393 39.8533C71.8016 40.2184 71.2164 40.6879 70.6049 41.0878C69.5393 41.7834 68.4911 42.4963 67.2594 42.8875C66.4995 43.131 65.7395 43.2527 64.9447 43.0353C64.2371 42.8441 63.7305 43.1484 63.6344 43.87C63.4947 44.9133 63.6955 45.8784 64.5254 46.6695C64.3332 46.7826 64.1323 46.8869 63.9314 47.0086C60.7519 48.8344 57.5461 50.6254 54.3928 52.5034C51.5365 54.2075 48.7413 56.0159 46.2431 58.2242C45.5268 58.8589 44.9153 59.6327 44.2952 60.3717C43.9196 60.8151 43.7798 61.3802 44.0069 61.9279C44.2253 62.4757 44.4786 63.0321 44.828 63.5016C45.256 64.0667 45.7714 64.571 46.2955 65.0579C52.1479 70.4831 58.5856 75.091 65.5823 78.9513C65.7657 79.0469 65.9666 79.1165 66.1501 79.2121L66.1326 79.1773Z" fill="white"/>
<path d="M68.6646 173.44C68.1056 172.849 67.6426 172.188 67.3107 171.449C66.5944 169.858 65.8956 168.25 65.1881 166.65C65.1182 166.485 65.0833 166.25 64.9522 166.163C64.3582 165.772 64.2971 165.146 64.1835 164.537C64.0438 163.816 63.8691 163.111 63.7119 162.39C63.6332 162.033 63.5284 161.668 63.5372 161.312C63.5546 160.738 63.6944 160.173 63.7293 159.599C63.7643 158.982 63.7643 158.356 63.7293 157.738C63.7031 157.399 63.5634 157.06 63.4236 156.539C63.1616 156.86 63.048 157.069 62.8646 157.208C62.2269 157.695 61.6067 158.225 60.9079 158.608C59.388 159.434 57.8944 159.295 56.4706 158.312C56.2522 158.156 56.0163 158.025 55.7892 157.886C55.4748 158.356 55.4224 158.538 55.4049 159.095C55.3699 160.06 55.4049 161.033 55.2826 161.99C55.073 163.511 54.8022 165.033 54.479 166.537C53.9636 168.954 54.3916 171.197 55.632 173.31C55.9203 173.805 56.2435 174.284 56.523 174.788C57.1082 175.848 57.6673 176.927 58.235 177.996C58.1914 178.022 58.1477 178.048 58.104 178.074C57.9642 177.874 57.8157 177.683 57.7022 177.483C56.6191 175.631 55.5447 173.779 54.4615 171.927C54.3305 171.701 54.2693 171.406 53.885 171.345C53.885 171.84 54.1383 172.206 54.3305 172.579C55.5534 174.979 56.785 177.379 58.0341 179.761C58.3748 180.413 58.7329 181.074 59.1784 181.656C59.72 182.369 60.314 183.056 60.9778 183.656C61.9212 184.508 63.1004 184.882 64.3757 184.795C66.3848 184.664 68.1492 183.795 69.87 182.839C69.9923 182.769 70.0971 182.673 70.2019 182.587C71.6956 181.43 72.1498 179.839 71.4685 178.092C70.8047 176.396 69.9574 174.779 68.6821 173.431L68.6646 173.44Z" fill="white"/>
<path d="M118.926 169.206C118.236 167.18 117.118 165.485 115.109 164.511C114.672 164.303 114.218 164.111 113.816 163.85C113.257 163.494 112.716 163.094 112.2 162.677C111.798 162.355 111.563 161.972 111.702 161.373C111.868 160.651 111.501 160.268 110.75 160.138C110.61 160.112 110.471 160.121 110.34 160.095C109.929 160.016 109.527 159.834 109.422 159.442C109.274 158.869 108.881 158.686 108.392 158.582C108.034 158.503 107.868 158.304 107.789 157.938C107.658 157.356 107.483 156.782 107.256 156.234C107.047 155.739 106.881 155.295 106.977 154.73C107.125 153.887 106.723 153.435 105.867 153.313C105.273 153.235 104.784 153.052 104.723 152.331C104.435 152.418 104.19 152.487 103.946 152.557C101.57 153.226 99.1938 153.522 96.8092 152.6C96.4336 152.452 96.2152 152.531 96.1278 152.922C96.0405 153.313 96.023 153.748 96.0754 154.139C96.1541 154.678 96.2064 155.174 95.9269 155.678C95.8134 155.869 95.7697 156.121 95.761 156.347C95.6998 157.712 95.8134 159.06 96.2414 160.364C96.32 160.599 96.4248 160.842 96.5821 161.042C96.7305 161.233 96.9489 161.39 97.1673 161.494C97.5779 161.694 98.0321 161.816 98.4251 162.033C99.9276 162.877 101.247 163.955 102.443 165.189C103.684 166.459 104.906 167.745 106.182 168.98C107.789 170.528 109.554 171.858 111.711 172.562C111.729 172.562 111.729 172.614 111.746 172.658C109.859 172.588 108.243 172.032 106.889 170.632C105.291 168.971 103.588 167.406 101.849 165.885C100.53 164.737 99.0977 163.711 97.7001 162.659C97.342 162.39 96.9053 162.233 96.3986 161.964C96.2589 162.781 96.3113 163.477 96.3637 164.19C96.4336 165.076 96.8616 165.563 97.7263 165.763C99.3598 166.146 100.775 166.963 102.024 168.058C102.959 168.884 103.806 169.797 104.723 170.649C105.413 171.293 106.121 171.927 106.881 172.493C107.85 173.214 108.96 173.675 110.182 173.823C111.964 174.023 113.729 173.944 115.485 173.545C116.21 173.379 116.935 173.171 117.52 172.71C118.813 171.701 119.415 170.615 118.935 169.206H118.926Z" fill="white"/>
<path d="M84.6095 26.2405C84.5658 26.2056 84.5308 26.1708 84.5308 26.1708V25.2644L84.6095 26.2405Z" fill="white"/>
<path d="M91.947 14.7877C91.8772 14.6486 91.816 14.466 91.685 14.3617C91.4841 14.1965 91.2744 14.3095 91.0735 14.4052C90.794 14.5443 90.5145 14.6747 90.2437 14.8225C90.6281 14.7355 91.0386 14.6921 91.4055 14.8312C91.6413 14.9268 91.816 15.0398 92.0693 14.9703C92.0257 14.9007 91.9907 14.8399 91.947 14.779V14.7877ZM91.947 14.7877C91.8772 14.6486 91.816 14.466 91.685 14.3617C91.4841 14.1965 91.2744 14.3095 91.0735 14.4052C90.794 14.5443 90.5145 14.6747 90.2437 14.8225C90.6281 14.7355 91.0386 14.6921 91.4055 14.8312C91.6413 14.9268 91.816 15.0398 92.0693 14.9703C92.0257 14.9007 91.9907 14.8399 91.947 14.779V14.7877ZM91.947 14.7877C91.8772 14.6486 91.816 14.466 91.685 14.3617C91.4841 14.1965 91.2744 14.3095 91.0735 14.4052C90.794 14.5443 90.5145 14.6747 90.2437 14.8225C90.6281 14.7355 91.0386 14.6921 91.4055 14.8312C91.6413 14.9268 91.816 15.0398 92.0693 14.9703C92.0257 14.9007 91.9907 14.8399 91.947 14.779V14.7877ZM91.947 14.7877C91.8772 14.6486 91.816 14.466 91.685 14.3617C91.4841 14.1965 91.2744 14.3095 91.0735 14.4052C90.794 14.5443 90.5145 14.6747 90.2437 14.8225C90.6281 14.7355 91.0386 14.6921 91.4055 14.8312C91.6413 14.9268 91.816 15.0398 92.0693 14.9703C92.0257 14.9007 91.9907 14.8399 91.947 14.779V14.7877ZM91.947 14.7877C91.8772 14.6486 91.816 14.466 91.685 14.3617C91.4841 14.1965 91.2744 14.3095 91.0735 14.4052C90.794 14.5443 90.5145 14.6747 90.2437 14.8225C90.6281 14.7355 91.0386 14.6921 91.4055 14.8312C91.6413 14.9268 91.816 15.0398 92.0693 14.9703C92.0257 14.9007 91.9907 14.8399 91.947 14.779V14.7877ZM100.132 24.5079C100.123 24.4209 100.123 24.5079 100.097 24.5513C100.079 24.5774 100.053 24.6035 100.027 24.6383C99.957 24.6991 99.8871 24.7513 99.8085 24.7861C99.9395 24.7426 100.079 24.7252 100.193 24.6991C100.167 24.6383 100.149 24.5687 100.123 24.5079H100.132ZM100.132 24.5079C100.123 24.4209 100.123 24.5079 100.097 24.5513C100.079 24.5774 100.053 24.6035 100.027 24.6383C99.957 24.6991 99.8871 24.7513 99.8085 24.7861C99.9395 24.7426 100.079 24.7252 100.193 24.6991C100.167 24.6383 100.149 24.5687 100.123 24.5079H100.132ZM91.947 14.7877C91.8772 14.6486 91.816 14.466 91.685 14.3617C91.4841 14.1965 91.2744 14.3095 91.0735 14.4052C90.794 14.5443 90.5145 14.6747 90.2437 14.8225C90.6281 14.7355 91.0386 14.6921 91.4055 14.8312C91.6413 14.9268 91.816 15.0398 92.0693 14.9703C92.0257 14.9007 91.9907 14.8399 91.947 14.779V14.7877ZM91.947 14.7877C91.8772 14.6486 91.816 14.466 91.685 14.3617C91.4841 14.1965 91.2744 14.3095 91.0735 14.4052C90.794 14.5443 90.5145 14.6747 90.2437 14.8225C90.6281 14.7355 91.0386 14.6921 91.4055 14.8312C91.6413 14.9268 91.816 15.0398 92.0693 14.9703C92.0257 14.9007 91.9907 14.8399 91.947 14.779V14.7877ZM100.132 24.5079C100.123 24.4209 100.123 24.5079 100.097 24.5513C100.079 24.5774 100.053 24.6035 100.027 24.6383C99.957 24.6991 99.8871 24.7513 99.8085 24.7861C99.9395 24.7426 100.079 24.7252 100.193 24.6991C100.167 24.6383 100.149 24.5687 100.123 24.5079H100.132ZM100.132 24.5079C100.123 24.4209 100.123 24.5079 100.097 24.5513C100.079 24.5774 100.053 24.6035 100.027 24.6383C99.957 24.6991 99.8871 24.7513 99.8085 24.7861C99.9395 24.7426 100.079 24.7252 100.193 24.6991C100.167 24.6383 100.149 24.5687 100.123 24.5079H100.132ZM91.947 14.7877C91.8772 14.6486 91.816 14.466 91.685 14.3617C91.4841 14.1965 91.2744 14.3095 91.0735 14.4052C90.794 14.5443 90.5145 14.6747 90.2437 14.8225C90.6281 14.7355 91.0386 14.6921 91.4055 14.8312C91.6413 14.9268 91.816 15.0398 92.0693 14.9703C92.0257 14.9007 91.9907 14.8399 91.947 14.779V14.7877ZM99.9396 14.4138C99.7124 14.1704 99.5902 13.7792 99.5028 13.4314C99.3805 12.8837 99.3368 12.3011 99.2407 11.736C99.2407 11.736 99.2495 7.01504 96.2709 5.69352H96.2621C95.3711 4.89365 94.3841 4.23288 93.2573 3.78078C92.9254 3.65037 92.7244 3.47649 92.576 3.1548C92.3314 2.59837 91.9907 2.05932 91.4317 1.80719C90.4009 1.35509 89.3528 0.894295 88.2696 0.616079C86.3741 0.14659 84.4699 0.207449 82.5657 0.711716C82.5657 0.711716 74.2587 2.52012 72.9572 8.20615C72.4768 8.90169 72.1099 9.68418 71.8391 10.5188C71.647 11.0753 71.5334 11.6665 71.7692 12.3533C74.0491 10.6318 76.2153 8.84083 78.6873 7.48453C77.3509 8.90169 75.9882 10.2754 74.6081 11.6317C74.2587 11.9621 73.8918 12.2924 73.4813 12.5359C73.0183 12.8315 72.5117 13.0749 71.9963 13.2488C71.35 13.4575 71.1403 13.614 71.2713 14.2747C71.4286 15.0137 71.2451 15.7267 71.1927 16.4483V16.4657C71.1753 20.4303 73.3939 25.7424 74.0665 27.2639C74.1714 27.4987 74.2238 27.6378 74.25 27.6813C74.4596 27.8291 74.6518 27.9595 74.8702 28.0899C76.1018 28.8289 77.3771 29.4897 78.7485 29.907C78.9843 29.9852 79.2376 30.0287 79.4735 30.0548C79.4735 30.0548 80.3033 30.1852 81.1855 30.4895C82.0678 30.8025 83.0112 31.2981 83.2208 32.0806C83.3693 32.5935 83.5178 33.0804 83.6488 33.5933C83.806 34.2193 83.6838 34.8453 83.413 35.4191C83.3518 35.5583 83.2819 35.6887 83.1946 35.8886C83.5091 35.993 83.7711 36.0886 84.0244 36.1582C86.5576 36.9406 89.1344 37.4188 91.7898 37.384C94.0871 37.3493 96.2883 36.9059 98.341 35.8365C98.5856 35.7234 98.804 35.5756 99.1359 35.3757C98.8564 35.1583 98.6555 35.0105 98.4633 34.8627C97.9043 34.4802 97.4413 34.002 97.2754 33.3151C97.0483 32.3935 97.0221 31.4459 97.1007 30.446L90.5757 33.6368L83.5091 29.8461L83.2295 28.4724C83.1509 28.342 83.0636 28.229 82.9937 28.116C83.0636 28.1942 83.1247 28.2725 83.2033 28.3333L82.95 27.1248C83.5789 27.5508 87.7979 30.1678 97.1007 30.4373C97.3977 30.4026 97.6685 30.3765 97.9305 30.333C98.4983 30.2287 99.0835 30.1591 99.6251 29.9679C101.11 29.4462 102.027 27.8638 101.879 26.325C101.783 25.499 101.774 24.6644 101.748 23.8384C101.695 21.9952 101.695 20.1434 101.59 18.3176C101.521 16.8395 100.996 15.4919 99.9483 14.3791L99.9396 14.4138ZM90.3311 3.47649C89.8769 3.43301 89.6323 3.29391 89.4226 2.96353C89.1868 2.58967 88.8112 2.28537 88.4967 1.95499C88.357 1.80719 88.2085 1.68547 88.0163 1.50289C88.8374 1.62461 89.2829 1.98977 90.3311 3.48518V3.47649ZM74.4596 6.6238C73.8744 7.05851 73.3852 7.57147 72.9834 8.14529C73.3939 7.45845 76.9578 1.81588 82.9151 1.16382C83.6575 1.16382 84.3825 1.23337 85.1075 1.43334C86.3479 1.77241 87.4048 2.41579 88.2085 3.42432C88.1211 3.53735 88.0949 3.5982 88.06 3.5982C87.5446 3.7547 87.0467 3.91989 86.4877 4.08508C85.8413 3.49387 85.0988 3.18958 84.2603 3.17219C83.7274 3.16349 83.1859 3.1461 82.6618 3.21566C79.6045 3.58082 76.8879 4.78062 74.4509 6.6238H74.4596ZM78.3729 14.1965C76.984 15.2746 75.4991 16.2049 73.918 17.0221C73.6298 17.1699 73.3328 17.2829 73.0183 17.3612C72.8087 17.4134 72.5729 17.3873 72.2846 17.396C72.2759 17.0743 72.2671 16.8656 72.2759 16.6657C74.6168 16.3005 76.5385 15.0833 78.4428 13.8574C78.4166 13.9704 78.4078 14.0922 78.3816 14.2052L78.3729 14.1965ZM79.2551 20.6911L79.3599 21.5866C79.3599 21.5866 76.1804 19.9086 74.6692 22.1256C74.7304 21.917 75.3069 20.1781 76.8705 20.2651C78.5214 20.3607 79.2551 20.6911 79.2551 20.6911ZM80.9934 29.3419C80.9934 29.3419 77.5431 29.8809 75.6825 27.5422C73.8394 25.1947 73.2105 22.7777 73.2105 22.7777C73.1319 22.5864 73.0533 22.4039 72.9747 22.2213C72.7039 21.5779 72.8349 20.9432 73.1232 20.352C73.3765 19.813 73.7608 19.3783 74.2762 19.0913C74.7391 18.8305 75.2283 18.6219 75.7 18.3871C76.4687 18.0133 77.2286 17.6481 78.0672 17.2569C78.0584 17.3264 78.0584 17.396 78.0584 17.4655C77.9449 17.709 77.8313 17.9263 77.8138 18.1437C77.7964 18.4306 77.9885 18.7175 78.1108 19.1C77.8138 19.0653 77.5431 19.0827 77.2897 19.0305C76.1193 18.8131 75.1497 19.2305 74.3199 20.0129C73.656 20.6389 73.3852 21.4301 73.4988 22.3256C73.6385 23.4732 74.1102 24.4383 74.9575 25.2121C74.9662 25.2121 74.975 25.2121 74.975 25.2295C75.4379 25.5512 78.8009 27.5682 80.6527 27.716L81.4039 27.6291C81.5262 27.6117 82.1901 29.5158 82.1901 29.5158L81.0021 29.3419H80.9934ZM78.9581 11.8403C78.5563 12.2751 78.137 12.7272 77.6916 13.214C77.6916 13.214 72.3108 15.8136 72.04 15.3789C71.7692 14.9268 71.9003 13.9009 71.9003 13.9009C72.3719 13.7966 76.1542 12.901 80.8274 7.21501C80.8274 7.21501 82.5919 4.91104 84.8804 4.71107C81.5699 6.33689 79.8491 9.12774 78.9581 11.8317V11.8403ZM92.6982 14.8138C92.6982 14.8138 92.6982 14.8399 92.6982 14.8486C92.6546 15.2224 92.4362 15.5528 91.9994 15.5528C91.6937 15.5528 91.4754 15.3267 91.1871 15.2833C90.8901 15.2311 90.532 15.292 90.235 15.3528C89.5973 15.4658 88.9684 15.6832 88.4006 15.9962C88.1299 16.144 87.8678 16.3266 87.6232 16.5179C87.4136 16.683 87.2127 16.9091 86.9332 16.9526C86.8283 16.9613 86.8283 16.5265 86.8371 16.4657C86.9332 15.8571 87.4485 15.405 87.9377 15.092C88.5491 14.7181 89.2043 14.4312 89.8419 14.1095C90.1389 13.9617 90.4184 13.8139 90.7154 13.6748C90.9425 13.5705 91.2133 13.3966 91.4579 13.4836C91.8247 13.614 91.8597 14.0835 92.0781 14.353C92.2615 14.5877 92.4886 14.4399 92.5323 14.1878C92.576 13.927 92.4449 13.5879 92.3663 13.3358C92.2702 13.0141 92.1479 12.6924 91.9994 12.3881C91.9208 12.2142 91.9034 12.1446 91.7025 12.162C91.5627 12.162 91.4055 12.2142 91.2657 12.2403C90.0952 12.4924 88.9422 12.9358 87.9639 13.6488C87.0817 14.3008 86.4615 15.1268 85.9112 16.0658C85.9112 16.0831 85.8238 15.8397 85.85 15.7875C86.2082 14.6486 87.0292 13.7444 87.9639 13.0228C88.5317 12.6054 89.1431 12.2577 89.7808 11.9795C90.4184 11.7012 91.0823 11.423 91.7636 11.2752C91.7898 11.2752 91.8073 11.3013 91.816 11.3274C92.2615 12.2142 92.6284 13.2227 92.7244 14.2052C92.7332 14.3791 92.7594 14.6138 92.707 14.8225L92.6982 14.8138ZM96.7251 10.0146C96.7775 9.97109 96.9172 10.4406 96.8386 10.5362C96.4456 10.9709 96.2097 11.5621 96.2446 12.162C96.2883 12.7359 96.6814 13.2662 97.0657 13.6748C97.4326 14.0661 97.8693 14.3878 98.3323 14.6747C98.7603 14.9529 99.1272 15.2485 99.2844 15.7528C99.3019 15.8223 99.363 16.3874 99.3019 16.3179C99.2669 16.2831 99.2844 16.2136 99.2582 16.1788C99.2233 16.0918 99.1359 16.0136 99.0573 15.944C98.6555 15.5963 98.1576 15.3528 97.7471 15.0224C96.9347 14.3878 96.332 13.5531 96.1224 12.5185C95.9477 11.6404 96.0175 10.6318 96.7338 10.0059L96.7251 10.0146ZM96.9172 23.6384C96.9172 23.6384 96.8386 23.4298 96.8299 23.4124C96.8124 23.3602 96.7862 23.2124 96.8299 23.1689C97.2492 22.8473 97.6947 22.5604 98.1838 22.3604C98.6817 22.1691 99.1883 22.0387 99.7124 21.9604C99.7386 21.9604 99.7561 22.0996 99.7386 22.1083C99.2145 22.2647 98.7167 22.4821 98.245 22.7516C97.782 23.0211 97.3278 23.3081 96.9085 23.6471L96.9172 23.6384ZM100.088 25.0208C99.9395 25.1425 99.7474 25.2121 99.5639 25.2469C99.3805 25.2817 99.1796 25.2903 98.9962 25.299C98.9438 25.3251 98.8739 25.3425 98.8215 25.3686C98.5944 25.4555 98.3673 25.5773 98.1227 25.6207C98.0091 25.6468 97.8956 25.6555 97.7995 25.6729C97.7383 25.6729 97.6597 25.7077 97.6073 25.6816C97.5287 25.6555 97.4413 25.499 97.3977 25.4555C97.3278 25.3686 97.3016 25.2295 97.2929 25.1252C97.2754 25.0121 97.2666 24.8817 97.2929 24.7861C97.3278 24.7078 97.354 24.5166 97.4326 24.4644C97.485 24.4383 97.5549 24.4296 97.5986 24.4122C97.7121 24.3774 97.8169 24.3427 97.9305 24.3166C98.1576 24.2644 98.4197 24.2731 98.6555 24.2557C98.7778 24.2557 98.9001 24.247 99.0224 24.2296C99.1359 24.2296 99.2582 24.2036 99.363 24.247C99.4941 24.2992 99.6076 24.3948 99.7474 24.3775C99.8784 24.3775 100.018 24.3253 100.14 24.2992C100.184 24.2992 100.21 24.4644 100.21 24.4905C100.245 24.6817 100.237 24.873 100.088 25.0121V25.0208ZM99.6338 17.0743C99.529 17.3699 99.3892 17.6481 99.2582 17.9437C99.1185 18.2219 98.9787 18.5262 98.7691 18.7697C98.5769 19.0131 98.3585 19.2305 98.1401 19.4391C98.0353 19.5261 97.9218 19.6565 97.7995 19.7173C97.7471 19.7434 97.651 19.7695 97.5986 19.7782C97.485 19.7956 97.4501 19.6913 97.3715 19.6217C97.2928 19.5521 97.2754 19.387 97.2666 19.2826C97.2492 19.1696 97.2404 19.0392 97.2666 18.9349C97.3191 18.7957 97.3103 18.6914 97.4239 18.5958C97.485 18.5523 97.5462 18.4741 97.616 18.4393C97.7209 18.361 97.8519 18.3263 97.9654 18.2654C98.1838 18.1437 98.4109 18.0133 98.6118 17.8568C98.7953 17.7177 98.9874 17.622 99.1621 17.4916C99.3543 17.3438 99.4853 17.1699 99.6076 16.9786C99.6164 16.9786 99.6338 17.0569 99.6251 17.083L99.6338 17.0743ZM100.097 24.5426C100.097 24.5426 100.053 24.5948 100.027 24.6296C99.957 24.6904 99.8871 24.7426 99.8085 24.7774C99.9395 24.7339 100.079 24.7165 100.193 24.6904C100.167 24.6296 100.149 24.56 100.123 24.4992C100.114 24.4122 100.114 24.4992 100.088 24.5426H100.097ZM91.685 14.3617C91.4841 14.1965 91.2744 14.3095 91.0735 14.4052C90.794 14.5443 90.5145 14.6747 90.2437 14.8225C90.6281 14.7355 91.0386 14.6921 91.4055 14.8312C91.6413 14.9268 91.816 15.0398 92.0693 14.9703C92.0257 14.9007 91.9907 14.8399 91.947 14.779C91.8772 14.6399 91.816 14.4573 91.685 14.353V14.3617ZM91.947 14.7877C91.8772 14.6486 91.816 14.466 91.685 14.3617C91.4841 14.1965 91.2744 14.3095 91.0735 14.4052C90.794 14.5443 90.5145 14.6747 90.2437 14.8225C90.6281 14.7355 91.0386 14.6921 91.4055 14.8312C91.6413 14.9268 91.816 15.0398 92.0693 14.9703C92.0257 14.9007 91.9907 14.8399 91.947 14.779V14.7877ZM100.132 24.5079C100.123 24.4209 100.123 24.5079 100.097 24.5513C100.079 24.5774 100.053 24.6035 100.027 24.6383C99.957 24.6991 99.8871 24.7513 99.8085 24.7861C99.9395 24.7426 100.079 24.7252 100.193 24.6991C100.167 24.6383 100.149 24.5687 100.123 24.5079H100.132ZM100.132 24.5079C100.123 24.4209 100.123 24.5079 100.097 24.5513C100.079 24.5774 100.053 24.6035 100.027 24.6383C99.957 24.6991 99.8871 24.7513 99.8085 24.7861C99.9395 24.7426 100.079 24.7252 100.193 24.6991C100.167 24.6383 100.149 24.5687 100.123 24.5079H100.132ZM91.947 14.7877C91.8772 14.6486 91.816 14.466 91.685 14.3617C91.4841 14.1965 91.2744 14.3095 91.0735 14.4052C90.794 14.5443 90.5145 14.6747 90.2437 14.8225C90.6281 14.7355 91.0386 14.6921 91.4055 14.8312C91.6413 14.9268 91.816 15.0398 92.0693 14.9703C92.0257 14.9007 91.9907 14.8399 91.947 14.779V14.7877ZM91.947 14.7877C91.8772 14.6486 91.816 14.466 91.685 14.3617C91.4841 14.1965 91.2744 14.3095 91.0735 14.4052C90.794 14.5443 90.5145 14.6747 90.2437 14.8225C90.6281 14.7355 91.0386 14.6921 91.4055 14.8312C91.6413 14.9268 91.816 15.0398 92.0693 14.9703C92.0257 14.9007 91.9907 14.8399 91.947 14.779V14.7877ZM100.132 24.5079C100.123 24.4209 100.123 24.5079 100.097 24.5513C100.079 24.5774 100.053 24.6035 100.027 24.6383C99.957 24.6991 99.8871 24.7513 99.8085 24.7861C99.9395 24.7426 100.079 24.7252 100.193 24.6991C100.167 24.6383 100.149 24.5687 100.123 24.5079H100.132ZM100.132 24.5079C100.123 24.4209 100.123 24.5079 100.097 24.5513C100.079 24.5774 100.053 24.6035 100.027 24.6383C99.957 24.6991 99.8871 24.7513 99.8085 24.7861C99.9395 24.7426 100.079 24.7252 100.193 24.6991C100.167 24.6383 100.149 24.5687 100.123 24.5079H100.132ZM91.947 14.7877C91.8772 14.6486 91.816 14.466 91.685 14.3617C91.4841 14.1965 91.2744 14.3095 91.0735 14.4052C90.794 14.5443 90.5145 14.6747 90.2437 14.8225C90.6281 14.7355 91.0386 14.6921 91.4055 14.8312C91.6413 14.9268 91.816 15.0398 92.0693 14.9703C92.0257 14.9007 91.9907 14.8399 91.947 14.779V14.7877ZM91.947 14.7877C91.8772 14.6486 91.816 14.466 91.685 14.3617C91.4841 14.1965 91.2744 14.3095 91.0735 14.4052C90.794 14.5443 90.5145 14.6747 90.2437 14.8225C90.6281 14.7355 91.0386 14.6921 91.4055 14.8312C91.6413 14.9268 91.816 15.0398 92.0693 14.9703C92.0257 14.9007 91.9907 14.8399 91.947 14.779V14.7877ZM91.947 14.7877C91.8772 14.6486 91.816 14.466 91.685 14.3617C91.4841 14.1965 91.2744 14.3095 91.0735 14.4052C90.794 14.5443 90.5145 14.6747 90.2437 14.8225C90.6281 14.7355 91.0386 14.6921 91.4055 14.8312C91.6413 14.9268 91.816 15.0398 92.0693 14.9703C92.0257 14.9007 91.9907 14.8399 91.947 14.779V14.7877ZM91.947 14.7877C91.8772 14.6486 91.816 14.466 91.685 14.3617C91.4841 14.1965 91.2744 14.3095 91.0735 14.4052C90.794 14.5443 90.5145 14.6747 90.2437 14.8225C90.6281 14.7355 91.0386 14.6921 91.4055 14.8312C91.6413 14.9268 91.816 15.0398 92.0693 14.9703C92.0257 14.9007 91.9907 14.8399 91.947 14.779V14.7877ZM91.947 14.7877C91.8772 14.6486 91.816 14.466 91.685 14.3617C91.4841 14.1965 91.2744 14.3095 91.0735 14.4052C90.794 14.5443 90.5145 14.6747 90.2437 14.8225C90.6281 14.7355 91.0386 14.6921 91.4055 14.8312C91.6413 14.9268 91.816 15.0398 92.0693 14.9703C92.0257 14.9007 91.9907 14.8399 91.947 14.779V14.7877Z" fill="white"/>
<path d="M73.8286 16.4049C68.7536 17.7786 63.3641 19.187 58.1231 17.796C56.9264 17.483 55.721 17.0309 54.6728 16.3614C54.2011 16.0571 53.7644 15.692 53.4324 15.2399C52.7773 14.3357 53.1878 13.3271 53.7644 12.5273C55.2318 10.4928 57.7999 9.293 60.2457 8.96262C60.3855 8.94523 60.3505 8.15405 60.2282 8.15405C57.5029 8.25838 54.3321 9.47558 53.1005 12.0925C52.096 14.2313 52.7948 16.7092 54.7514 18.0133C57.2147 19.6478 60.5776 19.9261 63.4514 19.7522C67.0153 19.5348 70.4656 18.4741 73.8548 17.4308C74.0732 17.3613 73.9247 16.3788 73.8286 16.4049Z" fill="white"/>
<path d="M65.3553 115.763C65.5562 115.902 70.3331 118.962 73.0752 118.919L73.8611 120.318C73.8611 120.318 66.9709 118.188 64.875 116.902L65.3553 115.763Z" fill="white"/>
<path d="M105.524 93.6015C105.559 87.1069 105.498 80.3862 104.415 73.9612C105.219 75.1088 106.162 76.1 106.633 77.465C107.053 78.6735 107.175 79.9602 107.227 81.2209C107.367 84.9333 107.236 88.6544 106.86 92.3495C106.511 95.8533 105.952 99.3397 105.175 102.765C105.463 99.7222 105.507 96.6618 105.524 93.6015Z" fill="white"/>
<path d="M104.21 72.8477C104.28 73.2216 104.349 73.5867 104.419 73.9606C104.341 73.8563 104.271 73.7519 104.201 73.6389C104.122 73.5172 104.026 73.0477 103.983 72.5782C104.053 72.4304 104.131 72.4304 104.21 72.839V72.8477Z" fill="white"/>
<path d="M105.072 103.704C104.897 105.295 104.652 106.895 104.294 108.46C104.032 109.625 103.77 111.346 102.976 112.268C102.871 112.39 102.784 111.981 102.731 111.503C102.74 111.477 102.749 111.433 102.749 111.407C103.709 108.573 104.521 105.678 105.176 102.757C105.141 103.078 105.107 103.383 105.072 103.704Z" fill="white"/>
<path d="M104.42 73.9611C105.503 80.3861 105.564 87.1068 105.529 93.6014C105.512 96.6531 105.477 99.7134 105.18 102.765C104.525 105.686 103.713 108.582 102.752 111.416C102.944 110.155 103.11 108.886 103.241 107.617C103.713 105.426 104.202 103.252 104.394 100.974C104.647 98.0615 104.708 95.1229 104.708 92.2016C104.708 85.8722 104.176 79.5863 103.879 73.2742C103.87 73.0743 103.914 72.7526 103.984 72.5874C104.018 73.0569 104.123 73.5264 104.202 73.6481C104.272 73.7611 104.342 73.8655 104.42 73.9698V73.9611Z" fill="white"/>
<path d="M103.237 107.616C103.106 108.894 102.94 110.155 102.748 111.416C102.739 111.433 102.739 111.45 102.731 111.468C102.678 110.981 102.652 110.424 102.678 110.32C102.844 109.416 103.045 108.512 103.246 107.616H103.237Z" fill="white"/>
<path d="M102.749 111.416C102.749 111.416 102.74 111.488 102.731 111.516V111.479C102.731 111.479 102.74 111.443 102.749 111.425V111.416Z" fill="white"/>
<path d="M107.638 91.3234C106.974 99.383 105.167 107.295 102.398 114.885C102.407 114.641 102.407 114.241 102.311 114.268C102.302 114.268 102.293 114.276 102.285 114.276C102.433 113.346 102.599 112.433 102.73 111.503C102.782 111.981 102.87 112.39 102.975 112.268C103.761 111.338 104.031 109.616 104.293 108.46C104.651 106.895 104.896 105.295 105.07 103.704C105.105 103.382 105.14 103.078 105.175 102.756C105.944 99.3308 106.511 95.8444 106.861 92.3406C107.236 88.6543 107.367 84.9244 107.227 81.212C107.184 79.9513 107.062 78.6646 106.634 77.4561C106.162 76.0911 105.21 75.1086 104.415 73.9523C104.346 73.5785 104.276 73.2133 104.206 72.8394C104.127 72.4308 104.049 72.4308 103.979 72.5786C103.944 72.1004 103.979 71.6223 104.206 71.5875C105.577 71.3353 106.389 73.2828 106.808 74.3696C107.402 75.8911 107.664 77.5343 107.804 79.1428C108.162 83.1682 107.961 87.298 107.638 91.3147V91.3234Z" fill="white"/>
<path d="M102.382 115.059C102.312 115.277 102.233 115.469 102.119 115.643C102.224 115.39 102.312 115.146 102.4 114.894C102.4 114.981 102.391 115.042 102.382 115.059Z" fill="white"/>
<path d="M102.042 115.763C102.13 115.267 102.199 114.78 102.287 114.285C102.296 114.285 102.304 114.276 102.313 114.276C102.409 114.25 102.409 114.65 102.4 114.893C102.304 115.145 102.226 115.389 102.121 115.641C102.103 115.676 102.077 115.728 102.042 115.763Z" fill="white"/>
<path d="M102.018 115.79C101.93 115.381 101.861 114.964 101.782 114.546C101.939 114.442 102.114 114.355 102.288 114.285C102.201 114.781 102.131 115.268 102.044 115.763L102.018 115.79Z" fill="white"/>
<path d="M102.047 115.763C102.047 115.763 102.037 115.821 102.027 115.859C102.027 115.84 102.018 115.821 102.018 115.802L102.047 115.773V115.763Z" fill="white"/>
<path d="M101.789 116.037C101.877 115.958 101.948 115.888 102.019 115.791C102.019 115.808 102.028 115.826 102.028 115.844C102.036 115.817 102.036 115.791 102.045 115.756C102.072 115.72 102.098 115.668 102.125 115.633C102.089 115.756 102.036 115.879 101.992 116.002C101.913 116.213 101.842 116.151 101.789 116.028V116.037Z" fill="white"/>
<path d="M102.285 114.285C102.11 114.363 101.935 114.442 101.778 114.546L101.726 114.268C102.075 113.337 102.416 112.416 102.73 111.477V111.512C102.599 112.442 102.442 113.355 102.285 114.285Z" fill="white"/>
<path d="M101.781 114.545C101.86 114.963 101.93 115.38 102.017 115.789C101.947 115.884 101.877 115.954 101.79 116.032C101.746 115.936 101.712 115.806 101.694 115.754C101.581 115.424 101.598 114.989 101.65 114.624C101.685 114.598 101.738 114.571 101.781 114.545Z" fill="white"/>
<path d="M100.339 117.276C100.357 117.363 100.383 117.423 100.374 117.484C99.8328 119.788 99.7717 122.127 99.6669 124.483C99.6232 125.657 99.5183 126.822 99.1515 127.952C98.9156 128.682 98.8894 129.395 99.0729 130.126C100.182 134.36 100.855 138.672 101.728 142.958C102.008 144.323 102.418 145.671 102.82 147.01C102.969 147.479 102.873 147.792 102.602 148.14C101.781 149.157 100.663 149.505 99.431 149.601C98.409 149.67 97.4045 149.497 96.4087 149.244C95.9982 149.14 95.6837 148.923 95.5177 148.558C95.1509 147.792 94.7578 147.027 94.4608 146.236C93.7271 144.28 93.0807 142.28 92.3207 140.333C91.6307 138.568 90.862 136.846 90.1108 135.116C88.8704 132.273 88.652 129.291 89.0189 126.257C89.1325 125.283 89.1063 124.361 88.8267 123.414C88.3551 121.771 88.0231 120.11 87.9008 118.406C87.8921 118.241 87.8921 118.067 87.8921 117.876C88.1105 117.849 88.3288 117.806 88.5298 117.763C90.2593 118.293 91.9975 118.302 93.7358 118.215C95.8147 118.093 97.8674 117.771 99.9027 117.345C100.034 117.319 100.173 117.31 100.322 117.293L100.339 117.276Z" fill="white"/>
<path d="M101.718 114.259L101.771 114.537C101.727 114.554 101.675 114.58 101.64 114.615L101.666 114.415C102.731 108.173 103.867 101.695 102.347 95.4269C100.941 89.6366 97.9109 84.194 94.9504 79.0731C94.9242 79.0296 94.9592 78.8557 94.9592 78.8557C98.3912 84.081 101.683 89.2714 102.906 95.4965C103.692 99.5132 103.64 103.556 103.229 107.599C103.028 108.494 102.836 109.399 102.662 110.303C102.644 110.416 102.662 110.964 102.714 111.45C102.391 112.389 102.059 113.311 101.71 114.241L101.718 114.259Z" fill="white"/>
<path d="M101.687 115.754C101.705 115.806 101.731 115.946 101.783 116.033C101.513 116.276 101.172 116.424 100.735 116.528C99.9755 116.693 99.1634 116.65 98.3949 116.519C97.836 116.424 97.3819 116.172 96.8317 116.024C96.3426 115.893 95.8623 115.746 95.382 115.563C94.7533 115.328 94.142 115.05 93.5394 114.728C93.5568 114.468 93.5306 114.198 93.5132 114.024C94.1594 114.337 94.8406 114.607 95.5305 114.824C95.9846 114.963 96.43 115.085 96.8928 115.181C97.1548 115.233 97.3644 115.198 97.6264 115.189C97.8534 115.181 98.0718 115.224 98.2814 115.259C99.0411 115.346 99.8358 115.346 100.578 115.146C100.98 115.033 101.303 114.815 101.644 114.624C101.6 114.989 101.574 115.433 101.687 115.754Z" fill="white"/>
<path d="M93.5157 113.999V114.026C93.2706 113.912 93.043 113.79 92.8066 113.66C92.9467 113.529 93.078 113.407 93.2093 113.276C93.4107 113.076 93.4982 113.895 93.507 113.999H93.5157Z" fill="white"/>
<path d="M92.7918 113.659H92.8014L92.7822 113.678L92.7918 113.659Z" fill="white"/>
<path d="M93.5183 114.025C93.5358 114.19 93.5621 114.469 93.5445 114.731C93.2907 114.6 93.0368 114.461 92.783 114.312C92.6604 114.243 92.7567 113.772 92.783 113.685L92.8005 113.667H92.8092C93.0456 113.798 93.2732 113.92 93.5183 114.034V114.025Z" fill="white"/>
<path d="M88.5541 117.756C88.3421 117.8 88.1302 117.844 87.9094 117.87C87.9183 117.765 87.9182 117.659 87.9182 117.536C88.1302 117.624 88.3421 117.686 88.5541 117.756Z" fill="white"/>
<path d="M93.5398 114.728C93.5398 114.954 93.5049 115.18 93.3914 115.285C92.0378 116.528 90.3436 117.38 88.5446 117.754C88.335 117.684 88.1254 117.624 87.9158 117.537C87.9158 117.658 87.9159 117.763 87.9071 117.867C86.0033 118.137 84.0384 117.876 82.3093 116.989C82.1696 116.919 82.1434 116.589 82.1521 116.259C82.2569 116.059 82.3443 115.859 82.4229 115.65C85.9684 116.78 89.9768 116.137 92.7801 113.685C92.7539 113.772 92.6578 114.25 92.7801 114.311C93.0333 114.459 93.2866 114.598 93.5398 114.728Z" fill="white"/>
<path d="M82.4244 115.65C82.3361 115.861 82.2566 116.063 82.1506 116.266C82.1683 115.923 82.2389 115.606 82.2743 115.606C82.3184 115.624 82.3802 115.633 82.4244 115.65Z" fill="white"/>
<path d="M74.0856 119.832C73.9981 120.041 73.9543 120.181 73.8843 120.294C73.6392 120.268 73.4028 120.215 73.1577 120.163L73.4729 120.05C73.6392 119.98 73.8143 119.928 74.0856 119.832Z" fill="white"/>
<path d="M73.1569 120.162C73.4015 120.215 73.6373 120.267 73.8819 120.293C73.8819 120.302 73.8819 120.31 73.8731 120.319C72.9997 121.849 72.2747 123.44 71.7156 125.101C71.2701 126.422 70.6412 127.64 69.9337 128.831C67.3569 133.204 65.4439 137.855 64.1074 142.75C63.4261 145.228 63.2602 147.775 63.2689 150.349C63.2776 151.036 63.2602 151.723 63.2252 152.418C63.1029 154.574 61.4433 155.948 59.2945 155.696C58.1764 155.565 57.1369 155.192 56.1586 154.644C55.818 154.444 55.652 154.227 55.6607 153.818C55.7131 152.253 55.7131 150.688 55.783 149.123C55.914 146.437 56.0538 143.75 56.2285 141.063C56.4556 137.629 56.674 134.178 57.4514 130.796C57.7746 129.422 58.1939 128.092 58.8228 126.822C59.3294 125.796 59.8273 124.753 60.3339 123.718C60.465 123.458 60.6484 123.205 60.7707 123.006C61.5044 122.997 62.177 123.023 62.8409 122.997C65.0246 122.892 67.1123 122.301 69.1737 121.623C70.5189 121.18 71.8292 120.658 73.1569 120.154V120.162Z" fill="white"/>
<path d="M89.5502 92.6537C90.2839 90.5149 90.8691 88.2109 91.8387 86.1765C92.0134 85.7852 92.1532 87.4719 92.0746 87.7501C91.4631 90.0802 90.5285 92.3668 89.7423 94.6447C88.9911 96.8356 88.2312 99.0266 87.4712 101.226C86.0038 105.486 84.5363 109.747 83.0426 113.998C82.8417 114.554 82.6583 115.102 82.4312 115.65C82.3875 115.633 82.3263 115.624 82.2827 115.607C82.2477 115.607 82.1778 115.928 82.1604 116.259C81.7586 117.18 81.217 118.023 80.4134 118.693C79.2342 119.684 77.7492 120.214 76.2293 120.362C75.4432 120.441 74.6658 120.406 73.8971 120.293C73.967 120.18 74.0106 120.041 74.098 119.832C73.8272 119.928 73.6525 119.98 73.4865 120.049L73.1721 120.162C70.8835 119.693 68.6998 118.536 66.6995 117.302C66.7082 117.198 66.7082 117.093 66.6995 117.006C69.7305 118.293 72.8401 119.432 76.1944 118.823C77.8715 118.528 79.5748 117.78 80.7366 116.519C82.0555 115.085 82.5272 113.076 83.1387 111.277C84.5537 107.112 85.995 102.948 87.4363 98.7831C88.1438 96.74 88.8514 94.6968 89.5589 92.6624L89.5502 92.6537Z" fill="white"/>
<path d="M66.6809 117.006C66.6897 117.102 66.6897 117.206 66.6809 117.302C66.2268 117.032 65.7902 116.745 65.3535 116.476V116.441C65.7989 116.632 66.2355 116.815 66.6809 117.006Z" fill="white"/>
<path d="M59.7201 112.494C59.8602 112.538 59.8164 113.008 59.7902 113.121C59.7551 113.27 59.6939 113.418 59.6238 113.575C59.4225 113.461 59.2299 113.339 59.0286 113.235C59.1074 113.113 59.1774 112.982 59.2737 112.869C59.3875 112.738 59.5275 112.616 59.6501 112.494C59.6588 112.494 59.6676 112.485 59.6763 112.477C59.6851 112.485 59.7026 112.485 59.7201 112.494Z" fill="white"/>
<path d="M59.1339 114.346C58.9069 114.668 58.6711 114.989 58.4353 115.32C58.0423 115.859 57.6581 116.407 57.2214 116.928C57.4223 116.537 57.5009 116.067 57.4747 115.572C57.728 115.163 57.9987 114.755 58.2781 114.346L58.9593 113.337C58.9593 113.337 58.9942 113.268 59.0292 113.233C59.23 113.337 59.4221 113.459 59.623 113.572C59.492 113.842 59.3261 114.103 59.1427 114.346H59.1339Z" fill="white"/>
<path d="M59.0189 113.233C58.8006 113.111 58.5736 112.99 58.3552 112.877C57.6479 112.529 57.0715 112.538 56.3292 112.39C56.1546 112.433 56.0148 112.381 55.8926 112.216C56.2157 111.72 56.5388 111.242 56.8794 110.764C57.5082 110.86 58.2243 111.173 58.6085 111.381C59.9359 112.085 61.1672 112.972 62.4161 113.816C63.822 114.763 65.3154 115.633 66.5991 116.746C66.634 116.772 66.6515 116.876 66.669 117.006C66.2236 116.815 65.7869 116.633 65.3416 116.441V116.476C65.7782 116.746 66.2149 117.032 66.669 117.302C66.669 117.528 66.634 117.745 66.5904 117.745C64.0753 116.728 61.9357 114.955 59.6041 113.572C59.6827 113.424 59.735 113.277 59.77 113.12C59.7962 113.007 59.8486 112.538 59.7001 112.494C59.6827 112.485 59.6652 112.485 59.6565 112.477C59.6477 112.485 59.639 112.494 59.6303 112.494C59.508 112.616 59.3683 112.738 59.2547 112.868C59.1587 112.981 59.0888 113.111 59.0102 113.233H59.0189Z" fill="white"/>
<path d="M57.4757 115.572C57.5019 116.068 57.4233 116.537 57.2224 116.928C57.1525 117.024 57.0739 117.12 56.9953 117.207C56.9255 117.276 56.8905 116.972 56.8818 116.937C56.8731 116.798 56.8556 116.598 56.9255 116.468C57.1001 116.155 57.2835 115.868 57.4669 115.572H57.4757Z" fill="white"/>
<path d="M70.7169 85.9766C69.7124 96.0097 62.4187 102.922 56.8807 110.755C56.6885 110.729 56.5051 110.72 56.3391 110.746C61.4927 102.748 69.1621 95.4098 70.6121 85.6462C70.647 85.4114 70.7256 85.8983 70.7169 85.9766Z" fill="white"/>
<path d="M58.3572 112.876C58.5842 112.989 58.8113 113.111 59.0208 113.233C58.9946 113.267 58.9772 113.302 58.951 113.337L58.2698 114.346C57.9991 114.754 57.7284 115.163 57.4664 115.571V115.502C57.3965 114.624 57.021 113.937 56.5233 113.215C56.3835 113.015 56.2438 112.833 56.1128 112.624C56.0255 112.494 55.9556 112.346 55.8857 112.207C56.008 112.372 56.139 112.433 56.3224 112.381C57.0647 112.528 57.6411 112.52 58.3484 112.868L58.3572 112.876Z" fill="white"/>
<path d="M56.2377 120.312C56.2377 120.312 56.2468 120.402 56.2559 120.439C56.2468 120.393 56.2377 120.339 56.2195 120.294V120.266C56.2195 120.266 56.2377 120.294 56.2377 120.312Z" fill="white"/>
<path d="M56.1843 120.093C56.1843 120.093 56.203 120.148 56.2123 120.195V120.213C56.2123 120.213 56.1936 120.13 56.1843 120.093Z" fill="white"/>
<path d="M56.1562 119.997C56.1834 120.042 56.2014 120.123 56.2105 120.204C56.2014 120.168 56.1924 120.132 56.1834 120.105C56.1834 120.096 56.1743 120.087 56.1743 120.078C56.1653 120.051 56.1653 120.033 56.1562 119.997Z" fill="white"/>
<path d="M55.9319 118.206C55.9048 118.287 55.8867 118.35 55.8506 118.422C55.8596 118.35 55.8687 118.296 55.8777 118.224C55.8867 118.224 55.9048 118.215 55.9229 118.206H55.9319Z" fill="white"/>
<path d="M55.8971 112.207C55.8622 112.251 55.8273 112.312 55.7923 112.355C55.7836 112.355 55.6351 111.842 55.7399 111.677C55.9408 111.364 56.1242 111.051 56.3425 110.738C56.5084 110.712 56.7005 110.721 56.8839 110.747C56.5433 111.225 56.2202 111.703 55.8971 112.19V112.207Z" fill="white"/>
<path d="M55.8574 118.235C55.8663 118.155 55.884 118.085 55.8928 118.006C55.8928 118.085 55.884 118.147 55.8751 118.226C55.8663 118.235 55.8574 118.235 55.8574 118.235Z" fill="white"/>
<path d="M55.8609 118.232C55.8609 118.232 55.8697 118.232 55.8785 118.224C55.8697 118.294 55.8609 118.346 55.8521 118.416C55.8433 118.434 55.8345 118.46 55.8257 118.487C55.8433 118.399 55.8521 118.329 55.8609 118.241V118.232Z" fill="white"/>
<path d="M55.2733 117.927C55.3257 117.588 55.4218 117.267 55.6314 116.988C55.6401 116.98 55.6576 116.962 55.6751 116.954C55.7624 116.997 55.7536 116.98 55.8148 116.954C55.8322 116.962 55.841 116.971 55.8497 116.98C55.8235 117.023 55.8235 117.049 55.8497 117.014C55.8672 116.997 55.8847 117.006 55.8934 117.023C55.9283 117.049 55.9458 117.136 55.9632 117.171C56.0069 117.371 56.0156 117.58 55.9982 117.788C55.9894 117.936 55.9545 118.066 55.9108 118.197C55.8934 118.206 55.8759 118.214 55.8672 118.214C55.8759 118.136 55.8846 118.075 55.8846 117.997C55.8759 118.075 55.8584 118.145 55.8497 118.223C55.6489 118.301 55.4393 118.353 55.2209 118.379C55.2297 118.223 55.2384 118.066 55.2646 117.91L55.2733 117.927Z" fill="white"/>
<path d="M55.6175 119.077V119.096C55.6175 119.096 55.6083 119.141 55.5901 119.168V119.032C55.5901 119.032 55.6083 119.041 55.6083 119.059C55.6083 119.059 55.6175 119.068 55.6175 119.077Z" fill="white"/>
<path d="M55.5796 118.991V118.962H55.5893V119.01C55.5893 119.01 55.5893 119.001 55.5796 118.991Z" fill="white"/>
<path d="M55.5796 118.989C55.5796 118.989 55.5891 118.999 55.5891 119.008C55.5796 118.999 55.5796 118.989 55.5796 118.989Z" fill="white"/>
<path d="M55.593 119.193H55.5796L55.593 119.18V119.193Z" fill="white"/>
<path d="M55.3972 120.206C55.6773 120.293 55.9575 120.38 56.2288 120.467C56.2376 120.563 56.2376 120.659 56.2376 120.737C56.2376 120.789 56.2288 121.234 56.1063 121.234C56.0012 121.243 55.8612 121.06 55.7911 120.981C55.6948 120.859 55.6248 120.728 55.546 120.598C55.476 120.476 55.4235 120.336 55.3972 120.206Z" fill="white"/>
<path d="M55.583 119.197H55.5918V119.179H55.583V119.197ZM55.583 118.988C55.583 118.988 55.583 118.997 55.5918 119.005V118.971H55.583V118.988ZM55.2687 119.631C55.1988 119.223 55.1901 118.797 55.2337 118.388C55.452 118.362 55.6704 118.301 55.8625 118.232C55.8538 118.319 55.845 118.388 55.8276 118.475C55.8363 118.458 55.845 118.432 55.8538 118.406C55.8101 118.64 55.7228 118.858 55.6267 119.092H55.618V119.075L55.6092 119.058C55.6092 119.04 55.6005 119.032 55.5918 119.023V119.162C55.5918 119.162 55.618 119.127 55.618 119.11H55.6267C55.6267 119.11 55.6354 119.145 55.6442 119.162C55.6791 119.275 55.7402 119.397 55.8014 119.501C55.8712 119.623 55.9498 119.727 56.0371 119.831C56.107 119.901 56.1419 119.979 56.1681 120.075C56.1681 120.084 56.1769 120.092 56.1769 120.101C56.1856 120.136 56.1856 120.179 56.2031 120.214C56.2031 120.231 56.2118 120.249 56.2118 120.266V120.292C56.2118 120.292 56.2205 120.362 56.2205 120.388V120.475C55.9498 120.388 55.6791 120.301 55.3909 120.214C55.3211 120.023 55.2861 119.831 55.2599 119.64L55.2687 119.631Z" fill="white"/>
<path d="M53.8772 106.373C55.8338 104.46 57.6856 102.461 59.4414 100.357C62.979 96.114 65.7655 91.2713 66.176 85.6722C66.211 85.2201 66.3507 85.6983 66.3507 85.8809C66.4643 91.4626 63.8089 96.5226 60.411 100.8C58.5329 103.156 56.3667 105.313 54.113 107.33C52.0341 109.173 49.6495 111.346 47.0028 112.311C46.9853 112.311 46.9591 112.111 46.994 112.094C49.3001 110.173 51.7196 108.477 53.8685 106.373H53.8772Z" fill="white"/>
<path d="M54.0595 118.267C54.4612 118.389 54.8629 118.424 55.2297 118.389C55.1947 118.798 55.2035 119.224 55.2646 119.632C55.2908 119.824 55.3345 120.015 55.3956 120.206C53.7713 119.685 52.0946 119.119 50.6624 118.198C49.9637 117.754 49.3175 117.224 48.7673 116.607C48.3918 116.189 47.7805 115.442 47.5535 114.772C50.3043 114.416 51.6492 117.546 54.0507 118.267H54.0595Z" fill="white"/>
<path d="M56.2882 121.283C53.8168 121.136 51.0485 120.918 49.1185 119.188C47.8086 118.014 47.1623 116.493 47.0051 114.85L47.2758 114.824C47.3719 114.806 47.4767 114.789 47.564 114.78C47.7911 115.458 48.4024 116.197 48.7779 116.615C49.3193 117.232 49.9743 117.762 50.6729 118.206C52.1051 119.127 53.7731 119.684 55.4062 120.214C55.4324 120.344 55.4935 120.483 55.5546 120.605C55.6332 120.736 55.7031 120.866 55.7992 120.988C55.869 121.066 56.0087 121.249 56.1135 121.24C56.2358 121.24 56.2445 120.796 56.2445 120.744C56.2445 120.657 56.2445 120.57 56.2358 120.475C56.2445 120.475 56.2533 120.483 56.262 120.483C56.4105 120.527 56.393 121.292 56.2882 121.292V121.283Z" fill="white"/>
<path d="M47.5671 114.787C47.4699 114.795 47.3639 114.813 47.2756 114.831C47.3463 114.628 47.4169 114.444 47.4876 114.241C47.4788 114.409 47.5053 114.593 47.5759 114.778L47.5671 114.787Z" fill="white"/>
<path d="M55.2302 118.389C54.8634 118.423 54.4705 118.389 54.06 118.267C51.6497 117.545 50.3049 114.415 47.5627 114.772C47.4929 114.581 47.4667 114.407 47.4754 114.242C47.4056 114.441 47.3357 114.624 47.2658 114.824L46.9951 114.85C46.9427 114.25 46.9427 113.642 46.9951 113.033C47.0038 112.929 47.0213 112.442 47.2047 112.433C50.2612 112.146 51.51 115.667 54.0251 116.659C54.9682 117.032 56.4179 116.902 56.9768 115.928C57.2301 115.476 56.7847 115.12 56.479 114.694C56.2258 114.328 55.9463 113.972 55.7629 113.572C55.4747 112.929 55.3962 112.068 55.5883 111.381C55.7018 110.981 55.9813 110.79 56.3393 110.755C56.121 111.068 55.9376 111.381 55.7367 111.694C55.6319 111.851 55.7804 112.372 55.7891 112.372C55.8241 112.329 55.859 112.268 55.8939 112.224C55.9638 112.364 56.0337 112.511 56.121 112.642C56.252 112.85 56.3917 113.033 56.5314 113.233C57.0292 113.955 57.4047 114.641 57.4746 115.52V115.589C57.2825 115.885 57.1078 116.18 56.9331 116.485C56.8545 116.615 56.8808 116.815 56.8895 116.954C56.8982 116.989 56.9331 117.293 57.003 117.224C57.0816 117.128 57.1602 117.032 57.2301 116.945C56.9768 117.537 56.514 117.989 55.9289 118.223C55.9638 118.093 56.0075 117.963 56.0162 117.815C56.0337 117.606 56.0249 117.398 55.9813 117.198C55.9725 117.163 55.9551 117.076 55.9114 117.05C55.9027 117.032 55.8852 117.024 55.8677 117.041C55.8415 117.067 55.8415 117.05 55.8677 117.006C55.859 116.998 55.8503 116.989 55.8328 116.98C55.7629 117.006 55.7804 117.024 55.6931 116.98C55.6756 116.989 55.6581 117.006 55.6494 117.015C55.4398 117.285 55.3525 117.615 55.2914 117.954C55.2652 118.11 55.2564 118.267 55.2477 118.423L55.2302 118.389Z" fill="white"/>
<path d="M105.538 71.5701C104.21 71.5962 94.0604 74.0827 87.9197 72.4917C87.9197 72.4917 102.437 73.9871 103.966 80.273C105.494 86.5676 107.137 79.8122 107.137 79.8122L105.547 71.5701H105.538Z" fill="white"/>
<path d="M67.8442 80.9247C64.3065 88.9234 57.8426 95.4962 50.0772 99.5477C46.3212 101.504 42.2419 102.86 38.0666 103.556C36.4419 103.825 33.5768 104.573 32.1443 103.373C30.9389 102.365 32.2142 99.8781 32.7994 98.7913C33.4021 97.6698 34.197 96.6786 35.0531 95.7397C35.2103 95.5658 35.0531 94.6094 34.9657 94.679C32.5286 96.67 30.4322 100.574 31.3057 103.808C32.2055 107.173 37.8832 105.599 40.2416 105.112C48.0332 103.504 55.2745 99.1652 60.6553 93.3748C63.7737 90.0189 66.2369 86.1325 68.0014 81.9245C68.0975 81.7072 67.9403 80.6986 67.8442 80.916V80.9247Z" fill="white"/>
<path d="M50.1208 162.72C41.0976 164.581 30.8427 160.955 25.2698 153.6C25.2698 153.6 25.2174 153.791 25.261 153.844C30.93 161.616 40.6783 165.485 50.1382 163.338C50.2605 163.312 50.1907 162.703 50.1208 162.712V162.72Z" fill="white"/>
<path d="M40.1251 166.32C37.9855 165.85 35.7935 165.007 34.2216 163.424C34.1605 163.364 34.143 163.624 34.143 163.642C34.143 163.746 34.1255 163.929 34.2041 164.024C34.929 164.946 35.8023 165.685 36.8502 166.215C37.3393 166.467 37.8894 166.615 38.4309 166.728C39.016 166.841 39.5487 166.833 40.1338 166.754C40.2036 166.746 40.1949 166.328 40.1251 166.32Z" fill="white"/>
<path d="M0.751421 131.186C12.037 122.205 28.7121 124.214 37.6043 135.525C37.6043 135.525 37.6305 135.412 37.6043 135.386C33.5251 129.978 27.3756 126.205 20.6148 125.257C13.5307 124.266 6.26319 126.422 0.71648 130.865C0.655335 130.917 0.716479 131.204 0.742684 131.178L0.751421 131.186Z" fill="white"/>
<path d="M19.7769 122.248C21.6196 121.796 23.7242 122.535 25.008 123.9C25.0254 123.918 25.0778 123.587 25.0254 123.509C24.7285 123.083 24.3879 122.709 23.9425 122.431C23.5496 122.179 23.1129 121.988 22.6588 121.857C21.7069 121.579 20.6764 121.692 19.7682 122.066C19.7333 122.083 19.7507 122.257 19.7682 122.248H19.7769Z" fill="white"/>
<path d="M72.5684 146.922C75.5295 145.575 78.9536 145.618 82.0371 146.566C85.6708 147.687 88.4224 149.939 91.1302 152.495C96.7206 157.764 105.77 157.764 112.749 155.599C112.854 155.564 112.793 155.078 112.741 155.086C108.888 155.938 104.818 156.225 100.896 155.747C99.0179 155.521 97.0874 155.165 95.3142 154.469C93.3489 153.695 91.8814 152.33 90.379 150.904C85.7145 146.453 78.744 143.08 72.5596 146.583C72.4897 146.627 72.5596 146.922 72.5596 146.914L72.5684 146.922Z" fill="white"/>
<path d="M20.3258 113.67C20.317 113.452 20.3783 113.173 20.4483 112.868C20.4571 112.868 20.4746 112.877 20.4834 112.886C20.4046 113.139 20.3433 113.391 20.3345 113.67C20.3345 113.714 20.3258 113.688 20.3258 113.661V113.67Z" fill="white"/>
<path d="M22.2346 116.241C21.9988 116.598 21.4224 116.754 21.0382 116.867C20.5055 117.024 19.9466 117.111 19.4051 117.215C17.4577 117.597 15.5015 117.589 14.0082 116.119C13.9209 116.032 13.851 115.954 13.7724 115.867C12.5236 114.415 10.5762 111.059 10.5762 111.059C13.0476 111.981 15.6063 111.112 18.0865 110.668C18.9336 110.52 20.357 110.233 20.6539 111.303C20.8111 111.885 20.6365 112.372 20.4967 112.885C20.488 112.876 20.4705 112.868 20.4618 112.868C20.619 112.146 20.7937 111.338 19.9378 111.294C19.4488 111.277 18.9423 111.442 18.462 111.52C17.8943 111.607 17.3354 111.694 16.7678 111.79C15.1173 112.077 13.3882 112.311 11.7726 111.894C12.0957 112.146 12.3751 112.468 12.6459 112.816C12.9341 112.946 13.2397 113.042 13.5716 113.094C14.8815 113.329 15.9294 112.798 17.152 112.442C18.331 112.103 19.5012 112.285 20.4618 112.876C20.3919 113.172 20.3308 113.459 20.3396 113.676C20.3396 113.702 20.3483 113.728 20.3483 113.685C20.357 113.407 20.4269 113.155 20.4967 112.903C21.0818 113.259 21.5971 113.772 21.9726 114.407C22.2521 114.894 22.6014 115.711 22.2433 116.25L22.2346 116.241Z" fill="white"/>
<path d="M24.9738 114.954C24.7468 115.111 24.511 115.25 24.249 115.363C24.0132 115.45 23.7774 115.519 23.5329 115.554C23.2011 115.606 22.843 115.65 22.5199 115.58C22.4937 115.45 22.4588 115.319 22.4238 115.198C22.843 115.163 23.2535 115.163 23.6726 115.067C23.9346 115.015 24.1879 114.937 24.4324 114.841C24.6595 114.754 24.8778 114.667 25.0961 114.563C25.1485 114.537 25.0961 114.702 25.0961 114.72C25.0786 114.789 25.0437 114.911 24.9826 114.954H24.9738Z" fill="white"/>
<path d="M51.1462 146.671C51.1462 146.671 51.3751 146.601 51.2959 146.662C51.2519 146.697 51.199 146.723 51.155 146.767C51.1286 146.776 51.111 146.767 51.0846 146.767C51.0582 146.767 51.0494 146.75 51.0229 146.75L51.1462 146.68V146.671Z" fill="white"/>
<path d="M54.6923 146.967C54.596 146.993 54.4997 147.037 54.421 147.072C54.4035 147.08 54.386 147.089 54.3684 147.098C54.2284 146.976 54.0971 146.871 53.9482 146.758C53.992 146.775 54.0533 146.784 54.0971 146.793C54.0971 146.793 54.0971 146.801 54.1058 146.801C54.3072 146.854 54.4997 146.906 54.7011 146.958L54.6923 146.967Z" fill="white"/>
<path d="M54.7016 146.966C54.7016 146.966 54.5531 147.062 54.4483 147.088H54.4395C54.4395 147.088 54.3696 147.105 54.3609 147.105C52.2558 146.549 50.1856 145.845 48.1853 144.958C49.1723 145.68 50.2642 146.227 51.4434 146.584C51.4434 146.592 51.2687 146.732 51.1464 146.749C51.1901 146.714 51.2425 146.679 51.2862 146.645C51.3648 146.592 51.1639 146.645 51.1377 146.653C51.1028 146.679 51.0591 146.705 51.0154 146.732C51.0416 146.74 51.0504 146.749 51.0678 146.749C51.094 146.758 51.1115 146.758 51.1464 146.749C50.3254 147.288 49.4169 147.731 48.4386 147.871C47.338 148.027 46.3509 147.679 45.4687 147.018C44.5079 146.271 43.7217 145.297 42.9006 144.384C41.8786 143.28 40.7606 142.211 39.8696 141.011H39.8608C39.8172 140.941 40.2365 140.811 40.2976 140.82C41.9922 141.115 43.7567 141.15 45.4687 141.019C46.744 140.924 48.2814 140.541 49.3907 141.393C49.8973 141.776 50.238 142.35 50.4476 142.932C50.5699 143.271 50.6485 143.61 50.701 143.958C50.7272 144.158 50.7446 144.358 50.797 144.549C50.797 144.549 50.5525 145.427 52.3082 145.914C53.0769 146.132 53.6621 146.471 54.0989 146.775C54.0552 146.766 53.994 146.758 53.9504 146.74C54.0989 146.853 54.2299 146.958 54.3697 147.079C54.3871 147.071 54.4046 147.062 54.4221 147.053C54.5094 147.018 54.5968 146.975 54.6928 146.949H54.7016V146.966Z" fill="white"/>
<path d="M43.3147 146.568C43.3147 146.568 43.1645 146.665 43.0586 146.692H43.0497C43.0497 146.692 43.0409 146.674 43.0321 146.674C42.9349 146.586 42.8201 146.498 42.7053 146.41C42.9084 146.463 43.1027 146.516 43.3058 146.568H43.3147Z" fill="white"/>
<path d="M101.775 38.3926C101.775 38.3926 111.914 42.0442 105.844 68.2138L101.854 67.1271L105.975 59.0588C105.975 59.0588 106.106 49.3734 105.975 49.1908C105.844 49.0083 104.36 44.2873 104.142 43.6961C103.923 43.1049 101.775 38.3926 101.775 38.3926Z" fill="white"/>
<path d="M105.537 38.6015C105.537 38.6015 109.388 44.9048 109.388 47.1218V49.9909L116.671 45.3134C116.671 45.3134 110.252 38.2885 105.537 38.6015Z" fill="white"/>
<path d="M111.589 58.024L111.467 57.2328L110.62 51.7033L115.816 47.9561C115.816 47.9561 117.074 49.8862 116.593 53.303C116.113 56.7199 113.668 58.9804 113.668 58.9804" fill="white"/>
</svg>
