<svg width="94" height="18" viewBox="0 0 94 18" fill="none" xmlns="http://www.w3.org/2000/svg">
<path fill-rule="evenodd" clip-rule="evenodd" d="M1.65747 1.64459L1.65698 1.64508C0.997665 2.29787 0.654471 3.13322 0.479469 4.31604C0.302977 5.50899 0.302238 7.01716 0.302238 8.99664C0.302238 10.9761 0.302977 12.4843 0.479474 13.6776C0.654476 14.8609 0.997697 15.6972 1.65723 16.3517C2.31504 17.006 3.15704 17.3468 4.34895 17.5205C5.55105 17.6956 7.07084 17.6964 9.06551 17.6964C11.0602 17.6964 12.58 17.6956 13.7825 17.5205C14.9748 17.3468 15.8175 17.0062 16.4771 16.3517C17.1367 15.6971 17.4799 14.8616 17.6548 13.6789C17.8313 12.486 17.8321 10.9777 17.8321 8.99664C17.8321 7.01553 17.8313 5.50731 17.6548 4.31441C17.4799 3.13167 17.1367 2.29612 16.4771 1.64157C15.8176 0.988701 14.9756 0.648921 13.7838 0.475667C12.5817 0.300908 11.0618 0.300179 9.06551 0.300179C7.06915 0.300179 5.5494 0.300912 4.34773 0.47606C3.15632 0.649708 2.31533 0.990257 1.65747 1.64459ZM16.6908 1.42949C18.1343 2.86199 18.1343 5.05156 18.1343 8.99664C18.1343 12.9418 18.1343 15.1313 16.6908 16.5638C15.2473 17.9963 13.0376 17.9963 9.06551 17.9963C5.09339 17.9963 2.88373 17.9963 1.44351 16.5638C0 15.1313 0 12.9385 0 8.99664C0 5.05481 0 2.86199 1.44351 1.43275C2.88373 0.000244141 5.0901 0.000244141 9.06551 0.000244141C13.0409 0.000244141 15.2473 0.000244141 16.6908 1.42949Z" fill="#0A0D18"/>
<path d="M8.6826 14.6837C8.04241 14.1935 7.57027 13.4621 7.4182 12.6101H5.35352V3.64851C6.46589 4.20309 7.25817 5.4328 7.35421 6.70267L7.66627 9.21835L7.51424 9.19425C7.17815 9.19425 6.89003 9.5077 6.89003 9.82116C6.89003 10.1105 7.11413 10.3597 7.40221 10.424L7.77835 10.5124C8.40251 9.3309 8.75467 8.17353 8.75467 7.03222C8.75467 6.00346 8.61862 4.9827 8.60259 3.93786C8.60259 3.47169 8.77865 3.04572 9.06673 2.71619C9.35486 3.05375 9.53092 3.47169 9.53092 3.93786C9.53092 4.9827 9.37884 6.01146 9.37884 7.03222C9.37884 8.16548 9.73095 9.3309 10.3552 10.5124L10.7313 10.424C11.0194 10.3597 11.2435 10.1105 11.2435 9.82116C11.2435 9.5077 10.9554 9.19425 10.6193 9.19425L10.4672 9.21835L10.7793 6.70267C10.9314 5.4328 11.6676 4.20309 12.7799 3.64851V12.6101H10.7153C10.5632 13.454 10.1151 14.2176 9.45086 14.6837C9.29883 14.7962 9.16277 14.9329 9.07477 15.1097C8.97073 14.9248 8.83468 14.7962 8.6826 14.6837ZM6.32984 9.51575C6.41789 9.17815 6.66597 8.88884 6.97008 8.71199L6.72196 6.63837C6.63396 5.99541 6.36985 5.4167 5.96974 4.9425V9.5077H6.32984V9.51575ZM7.37819 11.9832C7.37819 11.6697 7.42623 11.3804 7.49022 11.0911L7.20213 11.0268C6.778 10.8901 6.44991 10.5606 6.33788 10.1346H5.98572V11.9832H7.37819ZM8.74663 11.9832C8.74663 11.6054 8.45855 11.2679 8.08241 11.2277C8.01843 11.4688 7.97039 11.718 7.97039 11.9832H8.74663ZM8.74663 12.6101H8.05844C8.17046 13.1004 8.41055 13.5424 8.74663 13.9282V12.6101ZM9.72296 10.6731C9.4589 10.1828 9.21082 9.66845 9.05874 9.138C8.90671 9.6765 8.65863 10.1828 8.39452 10.6731C8.65863 10.7374 8.88268 10.9142 9.05874 11.1152C9.2348 10.9142 9.4589 10.7374 9.72296 10.6731ZM10.1471 11.9832C10.1471 11.718 10.0991 11.4688 10.0351 11.2277C9.65893 11.2759 9.37085 11.6054 9.37085 11.9832H10.1471ZM10.0591 12.6101H9.37085V13.9282C9.70697 13.5424 9.94706 13.1004 10.0591 12.6101ZM12.1477 11.9832V10.1346H11.7956C11.6836 10.5606 11.3555 10.8901 10.9314 11.0268L10.6432 11.0911C10.7073 11.3804 10.7553 11.6697 10.7553 11.9832H12.1477ZM12.1477 9.51575V4.95055C11.7476 5.4167 11.4595 5.99541 11.3955 6.64642L11.1474 8.72004C11.4595 8.89685 11.6996 9.1862 11.7876 9.52376H12.1477V9.51575Z" fill="#0A0D18"/>
<path d="M30.1425 18C34.1257 18 36.34 18 37.7861 16.5681C39.2323 15.1362 39.2323 12.9451 39.2323 9C39.2323 5.05488 39.2323 2.86378 37.7861 1.43189C36.34 0 34.1257 0 30.1425 0C26.1593 0 23.9451 0 22.4989 1.43189C21.0527 2.86378 21.0527 5.05619 21.0527 9C21.0527 12.9438 21.0527 15.1362 22.4989 16.5681C23.9451 18 26.1593 18 30.1425 18Z" fill="#0A0D18"/>
<path d="M30.3283 11.7745C30.8689 11.7745 31.3322 11.645 31.7184 11.386C32.1238 11.1085 32.4327 10.72 32.6451 10.2206L34.2378 10.7478C33.9869 11.5247 33.5042 12.126 32.7899 12.5515C32.0948 12.9769 31.2743 13.1897 30.3283 13.1897C29.0348 13.1897 27.9826 12.7919 27.1717 11.9965C26.3801 11.201 25.9844 10.1651 25.9844 8.88864C25.9844 7.61222 26.3801 6.57626 27.1717 5.78082C27.9826 4.98539 29.0348 4.58765 30.3283 4.58765C31.2743 4.58765 32.0948 4.8004 32.7899 5.22586C33.5042 5.65132 33.9869 6.25254 34.2378 7.02949L32.6451 7.55673C32.4327 7.05725 32.1238 6.67805 31.7184 6.41904C31.3322 6.14158 30.8689 6.0028 30.3283 6.0028C29.6333 6.0028 29.0637 6.19706 28.6197 6.58553C28.1756 6.95551 27.8861 7.47349 27.7509 8.13946H31.4288V9.47137H27.722C27.8185 10.1928 28.0984 10.7571 28.5618 11.164C29.0251 11.571 29.614 11.7745 30.3283 11.7745Z" fill="white"/>
<path d="M52.5425 14.4874C55.6855 14.4874 57.8374 12.2724 57.8374 9.0201C57.8374 5.71174 55.7421 3.55286 52.5425 3.55286C49.399 3.55286 47.2754 5.76781 47.2754 9.0201C47.2754 12.3285 49.3707 14.4874 52.5425 14.4874ZM52.5425 12.6089C50.7015 12.6089 49.484 11.207 49.484 9.0201C49.484 6.8332 50.7015 5.43134 52.5425 5.43134C54.383 5.43134 55.6005 6.8332 55.6005 9.0201C55.6005 11.207 54.383 12.6089 52.5425 12.6089Z" fill="#0A0D18"/>
<path d="M63.2114 14.4874C65.1085 14.4874 66.6097 13.5622 67.091 11.9641L65.1651 11.3753C64.8253 12.2725 64.1458 12.8052 63.1831 12.8052C61.8239 12.8052 60.9745 11.7678 60.9745 10.1417C60.9745 8.51551 61.8239 7.47811 63.1831 7.47811C64.1458 7.47811 64.8253 8.01083 65.1368 8.90801L67.091 8.31922C66.6097 6.72111 65.1085 5.7959 63.2114 5.7959C60.6347 5.7959 58.8792 7.53418 58.8792 10.1417C58.8792 12.7491 60.6347 14.4874 63.2114 14.4874Z" fill="#0A0D18"/>
<path d="M69.6891 10.7865H76.0039C76.0888 10.5061 76.0888 10.3379 76.0888 10.1417C76.0888 7.50615 74.4465 5.7959 71.9265 5.7959C69.3494 5.7959 67.6505 7.56222 67.6505 10.1417C67.6505 12.6369 69.1512 14.4874 72.0681 14.4874C73.767 14.4874 74.9845 13.8706 75.7491 13.0015L74.4749 11.7958C73.9652 12.3846 73.1724 12.8052 72.0681 12.8052C70.7368 12.8052 69.8873 12.0482 69.6891 10.7865ZM71.9265 7.42204C73.0308 7.42204 73.7953 8.09494 74.0218 9.30055H69.7175C69.944 8.12297 70.7368 7.42204 71.9265 7.42204Z" fill="#0A0D18"/>
<path d="M84.9451 5.93604H77.8375V10.2257C77.8375 12.2724 77.6393 12.5248 76.9598 12.5248H76.4784V14.3472C76.7049 14.3752 77.0447 14.4033 77.3562 14.4033C79.1688 14.4033 79.8484 13.45 79.8484 10.45V7.75843H82.9064V14.3472H84.9451V5.93604Z" fill="#0A0D18"/>
<path d="M93.999 5.93604H90.0061C87.9958 5.93604 86.6933 7.02946 86.6933 8.71172C86.6933 9.83318 87.2879 10.6743 88.3356 11.0949L86.1836 14.3472H88.4488L90.3176 11.3753H91.9887V14.3472H93.999V5.93604ZM90.2327 9.86122C89.2983 9.86122 88.7603 9.44069 88.7603 8.71172C88.7603 8.01079 89.2983 7.56218 90.2327 7.56218H91.9887V9.86122H90.2327Z" fill="#0A0D18"/>
</svg>
