<svg width="235" height="58" viewBox="0 0 235 58" fill="none" xmlns="http://www.w3.org/2000/svg">
<g clip-path="url(#clip0_810_7812)">
<path d="M61.6676 0H60.6399V58H61.6676V0Z" fill="black"/>
<path d="M124.839 32.6897H123.48V34.0593H124.839V32.6897Z" fill="black"/>
<path d="M186.472 48.2658C186.534 48.2169 186.582 48.154 186.616 48.0771C186.644 48.0002 186.665 47.9024 186.665 47.7976C186.665 47.6159 186.61 47.4692 186.492 47.3643C186.375 47.2595 186.175 47.2036 185.878 47.2036H184.913V49.4398H185.182V48.4125H185.678L186.313 49.4398H186.637L185.968 48.4125C186.065 48.4055 186.161 48.3986 186.237 48.3706C186.334 48.3496 186.41 48.3147 186.472 48.2658ZM185.851 48.1889C185.761 48.1889 185.678 48.1889 185.603 48.1889H185.189V47.3993H185.823C185.892 47.3993 185.954 47.4063 186.023 47.4133C186.092 47.4202 186.147 47.4412 186.203 47.4622C186.251 47.4901 186.299 47.5251 186.334 47.574C186.361 47.6229 186.382 47.6928 186.382 47.7836C186.382 47.8954 186.354 47.9793 186.306 48.0352C186.258 48.0911 186.196 48.126 186.113 48.147C186.03 48.1819 185.941 48.1889 185.851 48.1889Z" fill="black"/>
<path d="M187.051 46.91C186.872 46.7283 186.658 46.5885 186.417 46.4837C186.175 46.3789 185.92 46.323 185.644 46.323C185.368 46.323 185.113 46.3719 184.872 46.4837C184.63 46.5885 184.416 46.7353 184.237 46.91C184.058 47.0917 183.913 47.3013 183.81 47.5459C183.706 47.7905 183.651 48.049 183.651 48.3216C183.651 48.6011 183.699 48.8596 183.81 49.1042C183.913 49.3488 184.058 49.5654 184.237 49.7401C184.416 49.9218 184.63 50.0685 184.872 50.1734C185.113 50.2782 185.368 50.3271 185.644 50.3271C185.92 50.3271 186.175 50.2782 186.417 50.1734C186.658 50.0685 186.872 49.9218 187.051 49.7401C187.23 49.5584 187.368 49.3418 187.472 49.1042C187.575 48.8596 187.624 48.6011 187.624 48.3216C187.624 48.049 187.575 47.7835 187.472 47.5459C187.375 47.2943 187.23 47.0917 187.051 46.91ZM187.189 49.0064C187.106 49.223 186.989 49.4047 186.844 49.5584C186.699 49.7122 186.52 49.8379 186.32 49.9288C186.113 50.0196 185.892 50.0616 185.651 50.0616C185.41 50.0616 185.189 50.0126 184.982 49.9288C184.775 49.8379 184.603 49.7122 184.451 49.5584C184.299 49.4047 184.189 49.216 184.099 49.0064C184.016 48.7897 183.975 48.5661 183.975 48.3216C183.975 48.077 184.016 47.8464 184.099 47.6367C184.182 47.4201 184.299 47.2384 184.451 47.0847C184.603 46.9309 184.775 46.8122 184.982 46.7143C185.189 46.6235 185.41 46.5815 185.651 46.5815C185.892 46.5815 186.113 46.6305 186.32 46.7143C186.527 46.8052 186.699 46.9309 186.844 47.0847C186.989 47.2384 187.106 47.4201 187.189 47.6367C187.272 47.8534 187.313 48.077 187.313 48.3216C187.32 48.5661 187.272 48.7967 187.189 49.0064Z" fill="black"/>
<path d="M95.5326 37.8327H94.6567C93.2014 37.8327 92.1944 38.3288 91.622 39.3281C91.0495 40.3274 90.7667 41.6341 90.7667 43.2484V50.1734H89.408V36.512H90.5805L90.7943 39.2303C91.1116 38.3847 91.5875 37.7209 92.2289 37.2387C92.8703 36.7565 93.767 36.512 94.9119 36.512H95.5257L95.5326 37.8327Z" fill="black"/>
<path d="M101.947 50.3342C100.692 50.3342 99.5744 50.0407 98.6088 49.4467C97.6432 48.8528 96.8914 48.0282 96.3603 46.966C95.8292 45.9038 95.5671 44.681 95.5671 43.3043C95.5671 41.9417 95.8361 40.7328 96.381 39.6776C96.919 38.6294 97.6777 37.8118 98.6571 37.2248C99.6296 36.6448 100.754 36.3513 102.009 36.3513C103.52 36.3513 104.775 36.7636 105.789 37.5812C106.803 38.3988 107.423 39.5029 107.679 40.9075H106.32C106.092 39.8802 105.589 39.0696 104.802 38.4687C104.023 37.8677 103.071 37.5602 101.961 37.5602C100.988 37.5602 100.126 37.8048 99.3675 38.287C98.6157 38.7692 98.0225 39.454 97.6018 40.3205C97.1742 41.187 96.9673 42.1793 96.9673 43.2973C96.9673 44.4084 97.1811 45.4077 97.6018 46.2882C98.0294 47.1687 98.6157 47.8535 99.3675 48.3496C100.119 48.8458 100.981 49.0904 101.961 49.0904C103.078 49.0904 104.023 48.7899 104.802 48.1889C105.582 47.5879 106.085 46.7773 106.32 45.7501H107.679C107.41 47.1687 106.768 48.2867 105.747 49.1043C104.713 49.9219 103.451 50.3342 101.947 50.3342Z" fill="black"/>
<path d="M121.197 42.5146V50.1664H119.845V42.5705C119.845 40.9702 119.473 39.7474 118.741 38.8948C118.01 38.0423 116.983 37.616 115.672 37.616C114.238 37.616 113.1 38.1401 112.272 39.1953C111.437 40.2435 111.024 41.6621 111.024 43.437V50.1734H109.665V31.3059H111.024V39.7404C111.43 38.6992 112.044 37.8746 112.858 37.2596C113.672 36.6517 114.686 36.3442 115.893 36.3442C117.507 36.3442 118.797 36.8543 119.762 37.8816C120.714 38.9088 121.197 40.4531 121.197 42.5146Z" fill="black"/>
<path d="M124.846 36.512V50.1734H123.487V36.512H124.846Z" fill="black"/>
<path d="M126.391 37.7768V36.512H128.943V32.6826H130.301V36.512H133.888V37.7768H130.301V46.966C130.301 47.6648 130.446 48.1609 130.729 48.4614C131.012 48.7549 131.495 48.9086 132.164 48.9086H134.129V50.1735H132.108C130.97 50.1735 130.163 49.9219 129.674 49.4188C129.184 48.9156 128.943 48.105 128.943 46.9939V37.7838L126.391 37.7768Z" fill="black"/>
<path d="M137.971 37.2248C138.923 36.6448 139.999 36.3513 141.199 36.3513C142.385 36.3513 143.44 36.6029 144.364 37.12C145.289 37.6301 146.02 38.3708 146.558 39.3422C147.096 40.3135 147.385 41.4595 147.42 42.7872C147.42 43.0388 147.413 43.2275 147.392 43.3532H136.412C136.398 43.4231 136.384 43.5349 136.384 43.6747C136.398 44.7369 136.626 45.6732 137.053 46.4908C137.481 47.3084 138.067 47.9443 138.812 48.4055C139.557 48.8667 140.399 49.0904 141.337 49.0904C142.433 49.0904 143.392 48.7759 144.206 48.161C145.02 47.539 145.565 46.7005 145.827 45.6453H147.206C146.889 47.0429 146.213 48.1749 145.171 49.0414C144.137 49.9079 142.888 50.3342 141.433 50.3342C140.178 50.3342 139.054 50.0407 138.067 49.4467C137.081 48.8528 136.322 48.0282 135.777 46.966C135.24 45.9038 134.964 44.6949 134.964 43.3323C134.964 41.9696 135.226 40.7537 135.75 39.6985C136.288 38.6294 137.019 37.8118 137.971 37.2248ZM144.537 38.7691C143.682 37.9655 142.578 37.5602 141.226 37.5602C140.412 37.5602 139.654 37.7559 138.964 38.1402C138.274 38.5246 137.709 39.0696 137.26 39.7684C136.819 40.4672 136.564 41.2778 136.488 42.1932H146.013C145.896 40.7258 145.399 39.5867 144.537 38.7691Z" fill="black"/>
<path d="M155.352 50.3342C154.097 50.3342 152.979 50.0407 152.014 49.4467C151.048 48.8528 150.296 48.0282 149.765 46.966C149.234 45.9038 148.972 44.681 148.972 43.3043C148.972 41.9417 149.241 40.7328 149.786 39.6776C150.324 38.6294 151.082 37.8118 152.062 37.2248C153.034 36.6448 154.159 36.3513 155.414 36.3513C156.924 36.3513 158.18 36.7636 159.194 37.5812C160.207 38.3988 160.828 39.5029 161.083 40.9075H159.725C159.497 39.8802 158.993 39.0696 158.207 38.4687C157.421 37.8677 156.476 37.5602 155.366 37.5602C154.393 37.5602 153.531 37.8048 152.772 38.287C152.02 38.7692 151.427 39.454 151.007 40.3205C150.579 41.187 150.372 42.1793 150.372 43.2973C150.372 44.4084 150.586 45.4077 151.007 46.2882C151.434 47.1687 152.02 47.8535 152.772 48.3496C153.524 48.8458 154.386 49.0904 155.366 49.0904C156.483 49.0904 157.428 48.7899 158.207 48.1889C158.987 47.5879 159.49 46.7773 159.725 45.7501H161.083C160.814 47.1687 160.173 48.2867 159.152 49.1043C158.124 49.9219 156.855 50.3342 155.352 50.3342Z" fill="black"/>
<path d="M161.414 37.7768V36.512H163.966V32.6826H165.325V36.512H168.912V37.7768H165.325V46.966C165.325 47.6648 165.47 48.1609 165.753 48.4614C166.035 48.7549 166.518 48.9086 167.187 48.9086H169.153V50.1735H167.132C165.994 50.1735 165.187 49.9219 164.697 49.4188C164.208 48.9156 163.966 48.105 163.966 46.9939V37.7838L161.414 37.7768Z" fill="black"/>
<path d="M172.402 48.2937C173.181 48.8597 174.209 49.1392 175.485 49.1392C176.602 49.1392 177.526 48.9016 178.25 48.4125C178.982 47.9303 179.34 47.2874 179.34 46.4978C179.34 45.8688 179.168 45.3797 178.823 45.0303C178.478 44.6809 178.03 44.4293 177.478 44.2756C176.926 44.1219 176.195 43.9751 175.271 43.8284C174.14 43.6676 173.215 43.486 172.505 43.2763C171.795 43.0667 171.208 42.7243 170.746 42.2351C170.284 41.7529 170.057 41.0751 170.057 40.2156C170.057 39.4609 170.27 38.7831 170.712 38.1961C171.146 37.6021 171.739 37.1409 172.491 36.8055C173.243 36.4701 174.098 36.3093 175.057 36.3093C176.595 36.3093 177.857 36.6587 178.823 37.3435C179.788 38.0354 180.333 39.0416 180.458 40.3484H179.099C178.975 39.4679 178.554 38.7691 177.837 38.259C177.119 37.7419 176.223 37.4903 175.133 37.4903C174.016 37.4903 173.112 37.7349 172.422 38.217C171.733 38.6992 171.388 39.3281 171.388 40.1038C171.388 40.6978 171.56 41.152 171.905 41.4804C172.25 41.8019 172.671 42.0255 173.167 42.1513C173.664 42.277 174.381 42.4028 175.326 42.5286C176.478 42.6893 177.423 42.892 178.168 43.1366C178.913 43.3811 179.519 43.7585 179.988 44.2826C180.458 44.7997 180.692 45.5125 180.692 46.4069C180.692 47.5949 180.189 48.5382 179.188 49.251C178.188 49.9568 176.947 50.3202 175.478 50.3202C173.774 50.3202 172.415 49.9428 171.381 49.1741C170.353 48.4125 169.822 47.3363 169.788 45.9527H171.146C171.202 46.952 171.615 47.7346 172.402 48.2937Z" fill="black"/>
<path d="M80.9313 31.3059H79.2346L72.0547 50.1664H73.5445L76.2275 43.0527H76.1999L80.0554 32.8922L80.0623 32.8992L83.9109 43.0457H83.8902L86.5732 50.1594H88.1182L80.9313 31.3059Z" fill="black"/>
<path d="M74.3652 7.65869L80.0553 23.745L85.7179 7.65869H88.1112L81.4141 26.5192H78.6207L71.9236 7.65869H74.3652Z" fill="black"/>
<path d="M87.3733 23.3188C86.8008 22.2566 86.5181 21.0337 86.5181 19.6571C86.5181 18.2804 86.8008 17.0506 87.3733 15.9954C87.9458 14.9332 88.732 14.1086 89.7528 13.5147C90.7736 12.9207 91.9392 12.6272 93.2497 12.6272C94.5671 12.6272 95.7327 12.9207 96.7466 13.5147C97.7673 14.1086 98.5605 14.9332 99.1261 15.9954C99.6916 17.0576 99.9813 18.2804 99.9813 19.6571C99.9813 21.0337 99.6985 22.2636 99.1261 23.3188C98.5536 24.3809 97.7673 25.2055 96.7466 25.7995C95.7258 26.3935 94.5602 26.687 93.2497 26.687C91.9323 26.687 90.7667 26.3935 89.7528 25.7995C88.732 25.2055 87.9389 24.3739 87.3733 23.3188ZM97.1811 22.2636C97.5535 21.4879 97.7397 20.6214 97.7397 19.6501C97.7397 18.6788 97.5535 17.8123 97.1811 17.0366C96.8086 16.2609 96.2844 15.66 95.6016 15.2337C94.9188 14.8005 94.1325 14.5908 93.2497 14.5908C92.36 14.5908 91.5806 14.8074 90.8978 15.2337C90.2149 15.667 89.6839 16.2679 89.3183 17.0366C88.9459 17.8053 88.7596 18.6788 88.7596 19.6501C88.7596 20.6144 88.9459 21.4879 89.3183 22.2636C89.6908 23.0323 90.2149 23.6402 90.8978 24.0665C91.5806 24.4997 92.3669 24.7094 93.2497 24.7094C94.1394 24.7094 94.9257 24.4927 95.6016 24.0665C96.2844 23.6402 96.8155 23.0323 97.1811 22.2636Z" fill="black"/>
<path d="M102.181 12.7739L106.278 24.0106L110.348 12.7739H112.637L107.561 26.5192H104.926L99.8501 12.7739H102.181Z" fill="black"/>
<path d="M116.5 7.65869V20.1601L123.39 12.7809H125.997L120.783 18.4131L126.37 26.5192H123.735L119.21 19.9994L116.5 22.8784V26.5122H114.32V7.65869H116.5Z" fill="black"/>
<path d="M154.214 8.37146C155.152 8.84664 155.876 9.52447 156.379 10.391C156.883 11.2645 157.138 12.2847 157.138 13.4517C157.138 14.6187 156.883 15.6389 156.366 16.5264C155.855 17.4069 155.131 18.0847 154.2 18.5599C153.269 19.0351 152.193 19.2727 150.972 19.2727H146.13V26.5262H143.813V7.65869H150.972C152.193 7.65869 153.276 7.89628 154.214 8.37146ZM150.758 17.1134C151.979 17.1134 152.958 16.778 153.683 16.1141C154.414 15.4503 154.772 14.5558 154.772 13.4447C154.772 12.3336 154.414 11.4462 153.696 10.7893C152.979 10.1324 152.007 9.80399 150.786 9.80399H146.123V17.1064H150.758V17.1134Z" fill="black"/>
<path d="M170.539 26.5191H169.346C168.477 26.5191 167.856 26.3374 167.484 25.981C167.111 25.6246 166.911 25.0935 166.897 24.3877C165.849 25.9181 164.339 26.6798 162.352 26.6798C160.842 26.6798 159.635 26.3234 158.724 25.6036C157.814 24.8839 157.352 23.9056 157.352 22.6617C157.352 21.2781 157.821 20.2159 158.745 19.4822C159.676 18.7415 161.028 18.3781 162.801 18.3781H166.787V17.4347C166.787 16.5333 166.491 15.8345 165.89 15.3313C165.297 14.8282 164.47 14.5767 163.408 14.5767C162.47 14.5767 161.69 14.7933 161.083 15.2126C160.469 15.6318 160.09 16.1979 159.952 16.8967H157.773C157.931 15.548 158.524 14.4998 159.538 13.7451C160.559 12.9904 161.883 12.613 163.511 12.613C165.249 12.613 166.594 13.0393 167.539 13.8918C168.491 14.7444 168.96 15.9742 168.96 17.5675V23.5003C168.96 24.1641 169.263 24.4995 169.863 24.4995H170.532L170.539 26.5191ZM162.587 20.2439C160.566 20.2439 159.552 21.0056 159.552 22.5359C159.552 23.2207 159.821 23.7658 160.345 24.1781C160.876 24.5904 161.594 24.8 162.504 24.8C163.835 24.8 164.884 24.4436 165.642 23.7309C166.401 23.0251 166.787 22.0817 166.787 20.9147V20.2439H162.587Z" fill="black"/>
<path d="M179.05 14.9332H177.961C176.664 14.9332 175.74 15.3734 175.181 16.2539C174.622 17.1344 174.346 18.2175 174.346 19.5173V26.5262H172.167V12.7739H174.057L174.346 14.8493C174.74 14.2204 175.243 13.7173 175.864 13.3399C176.485 12.9626 177.34 12.7739 178.443 12.7739H179.057V14.9332H179.05Z" fill="black"/>
<path d="M182.43 8.93042V12.7878H185.858V14.8143H182.43V22.9203C182.43 23.4933 182.54 23.9056 182.761 24.1502C182.982 24.3948 183.368 24.5136 183.913 24.5136H186.278V26.5401H183.782C182.506 26.5401 181.595 26.2536 181.057 25.6736C180.519 25.1005 180.243 24.1921 180.243 22.9552V8.93042H182.43Z" fill="black"/>
<path d="M199.48 18.8673V26.5192H197.3V19.0001C197.3 17.5816 196.99 16.4984 196.355 15.7577C195.721 15.017 194.817 14.6396 193.631 14.6396C192.355 14.6396 191.355 15.0869 190.631 15.9883C189.899 16.8898 189.541 18.1126 189.541 19.65V26.5192H187.361V12.7808H189.251L189.541 14.6396C190.569 13.291 192.058 12.6201 194.01 12.6201C195.659 12.6201 196.983 13.1232 197.983 14.1295C198.976 15.1358 199.48 16.7151 199.48 18.8673Z" fill="black"/>
<path d="M204.425 13.4936C205.397 12.9136 206.522 12.6201 207.777 12.6201C209.018 12.6201 210.115 12.8787 211.074 13.4028C212.025 13.9199 212.784 14.6746 213.336 15.6669C213.888 16.6522 214.177 17.8122 214.212 19.1399C214.212 19.3355 214.198 19.65 214.164 20.0832H203.632V20.2719C203.666 21.6206 204.073 22.6967 204.852 23.5073C205.632 24.311 206.653 24.7163 207.915 24.7163C208.887 24.7163 209.715 24.4717 210.398 23.9755C211.081 23.4794 211.536 22.7946 211.77 21.9141H213.977C213.708 23.3117 213.046 24.4647 211.977 25.3452C210.915 26.2326 209.611 26.6799 208.067 26.6799C206.722 26.6799 205.542 26.3864 204.528 25.8064C203.514 25.2264 202.728 24.3948 202.176 23.3257C201.618 22.2565 201.342 21.0336 201.342 19.65C201.342 18.2524 201.611 17.0155 202.156 15.9604C202.694 14.8982 203.452 14.0806 204.425 13.4936ZM210.66 15.5271C209.908 14.8842 208.956 14.5558 207.798 14.5558C206.77 14.5558 205.866 14.8982 205.087 15.583C204.308 16.2678 203.866 17.1553 203.756 18.2524H211.95C211.846 17.0854 211.419 16.177 210.66 15.5271Z" fill="black"/>
<path d="M223.123 14.9332H222.033C220.737 14.9332 219.812 15.3734 219.254 16.2539C218.702 17.1344 218.419 18.2175 218.419 19.5173V26.5262H216.24V12.7739H218.13L218.419 14.8493C218.812 14.2204 219.316 13.7173 219.937 13.3399C220.557 12.9626 221.413 12.7739 222.516 12.7739H223.13V14.9332H223.123Z" fill="black"/>
<path d="M226.786 24.0174C227.468 24.5345 228.351 24.8001 229.427 24.8001C230.379 24.8001 231.165 24.6044 231.752 24.2201C232.345 23.8357 232.648 23.3256 232.648 22.6967C232.648 22.1586 232.503 21.7464 232.221 21.4598C231.938 21.1733 231.565 20.9777 231.117 20.8659C230.662 20.7541 230.02 20.6492 229.186 20.5444C228.013 20.3977 227.061 20.209 226.317 19.9784C225.572 19.7478 224.972 19.3704 224.509 18.8603C224.047 18.3502 223.82 17.6444 223.82 16.743C223.82 15.9394 224.047 15.2126 224.496 14.5907C224.944 13.9688 225.565 13.4726 226.344 13.1232C227.124 12.7738 227.999 12.5991 228.979 12.5991C230.572 12.5991 231.876 12.9765 232.876 13.7312C233.876 14.4859 234.434 15.562 234.538 16.9666H232.358C232.269 16.2468 231.924 15.6529 231.324 15.1847C230.724 14.7165 229.965 14.4859 229.062 14.4859C228.137 14.4859 227.393 14.6815 226.827 15.0659C226.254 15.4502 225.972 15.9603 225.972 16.5892C225.972 17.0574 226.103 17.4138 226.372 17.6654C226.641 17.917 226.979 18.0847 227.393 18.1755C227.806 18.2664 228.448 18.3642 229.289 18.469C230.476 18.6157 231.455 18.8114 232.227 19.063C233 19.3145 233.621 19.7198 234.09 20.2719C234.559 20.8239 234.793 21.5856 234.793 22.536C234.793 23.3606 234.552 24.0943 234.076 24.7232C233.6 25.3521 232.952 25.8343 232.138 26.1767C231.324 26.5191 230.42 26.6868 229.427 26.6868C227.655 26.6868 226.227 26.2745 225.158 25.45C224.089 24.6254 223.544 23.4724 223.523 22.0049H225.703C225.737 22.8225 226.103 23.4933 226.786 24.0174Z" fill="black"/>
<path d="M135.453 15.4012V12.7808H133.777V15.4012C133.777 17.26 132.281 18.7764 130.446 18.7764H127.86V20.4745H130.446C133.205 20.4745 135.453 18.1964 135.453 15.4012Z" fill="black"/>
<path d="M135.233 18.8254L135.184 18.8813C134.978 19.1329 134.095 19.9924 133.826 20.2091L133.771 20.258V26.5332H135.447V20.5375H141.364V18.8394L135.233 18.8254Z" fill="black"/>
<path d="M23.7607 25.7577L24.6297 24.6116C27.1265 21.3343 28.4439 17.428 28.4439 13.3261V3.85742H22.6985V13.3261C22.6985 20.342 17.0636 26.0512 10.1388 26.0512H0.800049V31.8651H10.1457C14.1185 31.8651 17.9188 30.5724 21.126 28.1196L22.1054 27.3719C22.6847 26.8687 23.2365 26.3307 23.7607 25.7577Z" fill="black"/>
<path d="M50.3768 26.5684H26.4299L23.2158 29.7688V54.0799H27.9404L27.9335 31.3481H50.3768V26.5684Z" fill="black"/>
</g>
<defs>
<clipPath id="clip0_810_7812">
<rect width="234" height="58" fill="white" transform="translate(0.800049)"/>
</clipPath>
</defs>
</svg>
