<svg width="165" height="72" viewBox="0 0 165 72" fill="none" xmlns="http://www.w3.org/2000/svg">
<g clip-path="url(#clip0_810_7778)">
<path d="M159.094 0C156.046 0 153.566 2.49956 153.566 5.57105C153.566 8.64254 156.046 11.1421 159.094 11.1421C162.141 11.1421 164.621 8.64254 164.621 5.57105C164.6 2.49956 162.12 0 159.094 0ZM162.183 5.57105C162.183 7.28685 160.796 8.68491 159.094 8.68491C157.391 8.68491 156.004 7.28685 156.004 5.57105C156.004 3.85525 157.391 2.45719 159.094 2.45719C160.796 2.43601 162.183 3.83407 162.183 5.57105Z" fill="#F6921E"/>
<path d="M14.6819 32.3884L9.3434 30.7361C5.32905 29.4864 3.94189 28.0036 4.00494 25.1015C4.04698 23.1739 4.80361 21.6488 6.27484 20.5261C7.61996 19.5093 9.17526 19.0221 11.1509 19.0221C11.277 19.0221 11.4031 19.0221 11.5292 19.0221C14.1144 19.1068 15.6697 19.6364 16.9097 20.9074C17.9186 21.9241 18.5071 23.3646 18.6121 25.0592L18.6752 26.2666H21.3654L21.2814 24.9109V24.8897C21.0712 22.4749 20.2095 20.4837 18.7382 19.0009C17.0568 17.3063 14.6819 16.459 11.4872 16.3743C11.3821 16.3743 11.277 16.3743 11.1719 16.3743C8.39761 16.3743 5.98059 17.2004 4.15206 18.7467C2.26048 20.3566 1.27266 22.6232 1.27266 25.271C1.27266 27.4528 1.9242 29.1898 3.29034 30.5243C4.53038 31.7529 6.37993 32.7061 9.13323 33.5323L13.2106 34.782C14.9971 35.3328 16.9938 36.0106 18.1708 37.0274C19.3057 38.0018 19.7681 39.1669 19.7681 41.0309C19.7681 45.0768 16.4473 47.7882 11.5292 47.7882C8.71287 47.7882 6.31687 47.068 5.11887 45.8394C3.89985 44.5896 3.39543 43.2551 3.39543 41.2216V39.993H0.600098V40.8403C0.600098 41.9206 0.600098 45.2251 2.76491 47.4281C4.76157 49.4616 7.662 50.4996 11.3821 50.4996C14.2825 50.4996 17.0148 49.6947 18.9274 48.2966C21.2604 46.5808 22.5004 44.0601 22.5004 41.0309C22.5004 38.7432 21.9119 37.0274 20.6508 35.6505C19.4108 34.316 17.5192 33.2781 14.6819 32.3884Z" fill="#58595B"/>
<path d="M65.9016 19.2762H76.8097V50.2877H79.8783V19.2762H90.7654V16.6072H65.9016V19.2762Z" fill="#58595B"/>
<path d="M102.556 47.6187C101.442 47.6187 100.539 46.7078 100.539 45.5851V16.6072H97.47V45.6698C97.47 48.2118 99.5297 50.2877 102.052 50.2877H114.515V47.6187H102.556Z" fill="#58595B"/>
<path d="M38.2636 44.1871L37.7172 45.9029L37.1497 44.1023L28.5956 16.9249L28.4905 16.6072H25.3799L36.0988 50.2877H39.3145L50.2647 16.6072H47.1751L38.2636 44.1871Z" fill="#58595B"/>
<path d="M59.2602 16.6284H56.1917V50.2877H59.2602V16.6284Z" fill="#58595B"/>
<path d="M0.705078 64.7979C1.35662 64.692 2.0502 64.6284 2.84887 64.6284C4.36213 64.6284 5.5181 64.9885 6.21168 65.6028C6.88424 66.1959 7.24154 67.0009 7.24154 68.1024C7.24154 69.1615 6.90526 70.1147 6.14863 70.8138C5.41301 71.5128 4.17298 71.9153 2.55462 71.9153C1.90308 71.9153 1.31459 71.8941 0.705078 71.8517V64.7979ZM1.29357 71.4492C1.62985 71.4916 2.11325 71.5128 2.63869 71.5128C5.30792 71.5128 6.63203 70.2207 6.63203 68.1447C6.65305 66.323 5.47606 65.0733 2.80683 65.0733C2.15529 65.0733 1.65087 65.1368 1.29357 65.2003V71.4492Z" fill="#58595B"/>
<path d="M21.2181 68.3141H17.8973V71.4492H21.6174V71.8728H17.3088V64.6919H21.4073V65.1155H17.8973V67.8693H21.2181V68.3141Z" fill="#58595B"/>
<path d="M33.5975 71.8728L30.8442 64.6919H31.4537L32.925 68.5471C33.3243 69.5851 33.6606 70.496 33.8918 71.3009H33.9338C34.186 70.496 34.5643 69.5639 34.9847 68.5471L36.6031 64.6919H37.2336L34.144 71.8728H33.5975Z" fill="#58595B"/>
<path d="M50.6429 68.3141H47.3221V71.4492H51.0422V71.8728H46.7336V64.6919H50.8321V65.1155H47.3221V67.8693H50.6429V68.3141Z" fill="#58595B"/>
<path d="M61.1306 64.6919H61.7191V71.4492H65.4182V71.8728H61.1306V64.6919Z" fill="#58595B"/>
<path d="M77.9026 71.9999C75.8639 71.9999 74.2666 70.6018 74.2666 68.3776C74.2666 66.0264 75.927 64.5859 78.0077 64.5859C80.1095 64.5859 81.6438 66.0052 81.6438 68.2082C81.6227 70.7501 79.8152 71.9999 77.9026 71.9999ZM77.9447 71.5762C79.9203 71.5762 81.0132 70.0299 81.0132 68.2505C81.0132 66.7466 80.0464 65.0096 77.9657 65.0096C75.8639 65.0096 74.8761 66.6618 74.8761 68.3353C74.8761 69.9663 75.969 71.5762 77.9447 71.5762Z" fill="#58595B"/>
<path d="M91.7112 64.7767C92.1946 64.692 92.8041 64.6284 93.4977 64.6284C94.4855 64.6284 95.2421 64.8614 95.6835 65.2427C96.0828 65.5816 96.335 66.0477 96.335 66.6408C96.335 67.2551 96.1459 67.7211 95.7466 68.0812C95.2211 68.6108 94.3384 68.8861 93.3085 68.8861C92.9302 68.8861 92.5939 68.865 92.2997 68.8014V71.8729H91.7112V64.7767ZM92.2997 68.3566C92.5939 68.4413 92.9512 68.4625 93.3505 68.4625C94.8428 68.4625 95.7255 67.8482 95.7255 66.7043C95.7255 65.5816 94.7797 65.0733 93.4556 65.0733C92.9092 65.0733 92.5099 65.1156 92.2787 65.158V68.3566H92.2997Z" fill="#58595B"/>
<path d="M113.422 68.4836C113.338 67.4033 113.254 66.09 113.254 65.3062H113.233C112.918 66.09 112.581 66.9161 112.119 67.9964L110.375 71.894H109.975L108.336 68.0811C107.874 66.9584 107.516 66.09 107.264 65.3062H107.243C107.222 66.1535 107.159 67.4033 107.054 68.5895L106.802 71.894H106.213L106.823 64.7131H107.495L109.261 68.8437C109.66 69.7546 109.933 70.4748 110.164 71.1738H110.206C110.417 70.5171 110.711 69.8181 111.131 68.8437L113.002 64.6919H113.695L114.242 71.8728H113.674L113.422 68.4836Z" fill="#58595B"/>
<path d="M128.555 68.3141H125.234V71.4492H128.954V71.8728H124.646V64.6919H128.744V65.1155H125.234V67.8693H128.555V68.3141Z" fill="#58595B"/>
<path d="M139.022 71.8728V64.6919H139.568L142.805 68.9284C143.477 69.8181 143.961 70.496 144.381 71.195H144.402C144.318 70.2206 144.297 69.4156 144.297 68.293V64.7131H144.865V71.894H144.318L141.145 67.721C140.535 66.8949 139.968 66.1535 139.526 65.3909L139.505 65.4121C139.568 66.3018 139.589 67.0644 139.589 68.2718V71.894H139.022V71.8728Z" fill="#58595B"/>
<path d="M157.097 65.1155H154.385V64.6919H160.397V65.1155H157.685V71.8728H157.097V65.1155Z" fill="#58595B"/>
<path d="M155.731 50.2878H125.844C123.238 50.2878 121.094 48.1484 121.094 45.5006V21.1193C121.094 18.9586 122.25 16.9463 124.099 15.866L138.076 7.62589C138.706 7.2446 139.442 7.05396 140.199 7.05396C140.892 7.05396 141.607 7.22342 142.216 7.58352L157.349 15.9295C159.283 16.9886 160.481 19.0434 160.481 21.2675V45.5217C160.46 48.1272 158.337 50.2878 155.731 50.2878ZM140.199 9.72298C139.925 9.72298 139.652 9.78652 139.421 9.9348L125.423 18.1537C124.394 18.768 123.742 19.8907 123.742 21.0981V45.5006C123.742 46.6656 124.688 47.5976 125.823 47.5976H155.71C156.866 47.5976 157.79 46.6444 157.79 45.5006V21.2675C157.79 20.0178 157.118 18.8739 156.025 18.2808L140.892 9.9348C140.703 9.78652 140.451 9.72298 140.199 9.72298Z" fill="#F6921E"/>
</g>
<defs>
<clipPath id="clip0_810_7778">
<rect width="164" height="72" fill="white" transform="translate(0.600098)"/>
</clipPath>
</defs>
</svg>
