<svg width="127" height="102" viewBox="0 0 127 102" fill="none" xmlns="http://www.w3.org/2000/svg">
<g clip-path="url(#clip0_810_7732)">
<path d="M116.688 102H9.71239C4.45132 102 0.199951 97.8024 0.199951 92.608V82.6913C0.199951 77.4969 4.45132 73.2993 9.71239 73.2993H116.688C121.949 73.2993 126.2 77.4969 126.2 82.6913V92.608C126.2 97.8024 121.949 102 116.688 102ZM9.71239 75.608C5.77987 75.608 2.5382 78.8086 2.5382 82.6913V92.608C2.5382 96.4907 5.77987 99.6913 9.71239 99.6913H116.688C120.62 99.6913 123.862 96.4907 123.862 92.608V82.6913C123.862 78.8086 120.62 75.608 116.688 75.608H9.71239Z" fill="#EA3B44"/>
<path d="M9.02161 49.7932C9.92502 49.7932 10.7753 50.0031 11.6256 50.3179C12.4758 50.6327 13.1667 51.1574 13.8575 51.787C14.4952 52.4166 15.0267 53.0987 15.3987 53.9383C15.7707 54.7778 15.9832 55.6173 15.9832 56.6142V62.1759C15.9832 63.0679 15.7707 63.9599 15.3987 64.7469C15.0267 65.5864 14.4952 66.2685 13.9107 66.8981C13.273 67.5278 12.5821 68.0525 11.7319 68.3673C10.8816 68.7345 10.0313 68.9444 9.07475 68.9444H3.44168C2.91026 68.9444 2.43198 68.7345 2.00685 68.3673C1.58171 67.9475 1.36914 67.4753 1.36914 66.8981V51.787C1.36914 51.2623 1.58171 50.7901 1.9537 50.3704C2.37884 49.9506 2.85712 49.7407 3.44168 49.7407H9.02161V49.7932ZM5.46108 53.8858V64.9043H8.96847C9.34046 64.9043 9.71245 64.8518 10.0844 64.6944C10.4033 64.537 10.7222 64.3796 10.9879 64.1173C11.2536 63.8549 11.413 63.5926 11.5724 63.2253C11.7319 62.9105 11.785 62.5432 11.785 62.1759V56.6666C11.785 56.2994 11.7319 55.9321 11.5724 55.6173C11.413 55.3024 11.2536 54.9876 10.9879 54.7253C10.7222 54.4629 10.4033 54.3055 10.0844 54.1481C9.7656 53.9907 9.34046 53.9383 8.96847 53.9383L5.46108 53.8858Z" fill="#31354A"/>
<path d="M55.5741 49.7932C56.3713 49.7932 57.1684 49.9506 57.9124 50.2654C58.6564 50.5803 59.2941 51.0525 59.8255 51.5772C60.3569 52.1543 60.782 52.784 61.154 53.5185C61.4729 54.2531 61.6855 55.0401 61.7386 55.8796V66.9506C61.7386 67.5278 61.526 68 61.154 68.4198C60.7289 68.8395 60.2506 68.9969 59.7192 68.9969C59.1346 68.9969 58.6564 68.787 58.2312 68.4198C57.8061 68 57.6467 67.5278 57.6467 66.9506V56.142C57.6467 55.5648 57.4341 55.0926 57.0621 54.6728C56.6901 54.2531 56.1587 54.0957 55.6273 54.0957C55.0427 54.0957 54.5644 54.3056 54.1393 54.6728C53.7141 55.0926 53.5547 55.5648 53.5547 56.142V66.9506C53.5547 67.5278 53.3422 68 52.9702 68.4198C52.545 68.8395 52.0667 68.9969 51.5353 68.9969C50.9508 68.9969 50.5256 68.787 50.1005 68.4198C49.6753 68 49.5159 67.5278 49.5159 66.9506V56.142C49.5159 55.5648 49.3033 55.0926 48.9314 54.6728C48.5062 54.2531 48.0279 54.0957 47.4434 54.0957C46.8588 54.0957 46.4337 54.3056 46.0085 54.6728C45.5834 55.0926 45.424 55.5648 45.424 56.142V66.9506C45.424 67.5278 45.2114 68 44.8394 68.4198C44.4143 68.8395 43.936 68.9969 43.3514 68.9969C42.7669 68.9969 42.3417 68.787 41.9166 68.4198C41.4915 68 41.332 67.5278 41.332 66.9506V55.8796C41.332 55.0926 41.4915 54.358 41.8103 53.571C42.1292 52.8364 42.5543 52.1543 43.1389 51.6296C43.7234 51.0525 44.3611 50.6327 45.1051 50.2654C45.8491 49.9506 46.6462 49.7932 47.4965 49.7932C48.2936 49.7932 48.9845 49.9506 49.6753 50.213C50.3662 50.4753 51.0039 50.8426 51.6416 51.3673C52.2262 50.8951 52.8639 50.5278 53.5547 50.2654C54.0861 49.9506 54.8301 49.7932 55.5741 49.7932Z" fill="#31354A"/>
<path d="M69.0191 49.8457C69.5505 49.8457 70.0288 50.0556 70.4539 50.4229C70.8791 50.8426 71.0385 51.3148 71.0385 51.8395V66.9506C71.0385 67.5278 70.8259 68 70.4539 68.3673C70.0288 68.7871 69.5505 68.9445 69.0191 68.9445C68.4345 68.9445 67.9562 68.7346 67.5311 68.3673C67.106 67.9476 66.9465 67.4753 66.9465 66.9506V51.8395C66.9465 51.3148 67.1591 50.8426 67.5311 50.4229C67.9031 50.0031 68.4345 49.8457 69.0191 49.8457Z" fill="#31354A"/>
<path d="M83.3142 49.8457C84.2708 49.8457 85.2274 50.0556 86.0776 50.3704C86.9811 50.6852 87.725 51.2099 88.4159 51.8395C89.0536 52.4692 89.585 53.2037 90.0102 54.0432C90.4353 54.9352 90.5947 55.8272 90.5947 56.8241V66.9506C90.5947 67.4753 90.3822 67.8951 90.0102 68.3148C89.6382 68.6821 89.1599 68.892 88.6285 68.892C88.097 68.892 87.6188 68.6821 87.1936 68.3673C86.7685 68.0525 86.6091 67.5803 86.6091 67.0556V57.0864C86.6091 56.6142 86.5028 56.1945 86.3434 55.7747C86.1308 55.355 85.9182 54.9877 85.5994 54.7253C85.2805 54.4105 84.9085 54.2006 84.4834 53.9908C84.0582 53.7809 83.58 53.7284 83.1548 53.7284C82.7297 53.7284 82.2514 53.8334 81.8794 53.9908C81.4543 54.1482 81.1354 54.4105 80.8166 54.6729C80.4977 54.9352 80.2852 55.3025 80.0726 55.6698C79.86 56.0895 79.8069 56.5093 79.8069 56.929V66.9506C79.8069 67.4753 79.5943 67.8951 79.2223 68.3148C78.7972 68.7346 78.3189 68.892 77.7875 68.892C77.256 68.892 76.7778 68.6821 76.3526 68.3673C75.9275 68 75.7681 67.5803 75.7681 67.0556V57.0864C75.8212 56.0895 75.9806 55.1451 76.3526 54.2531C76.7246 53.3611 77.256 52.6266 77.8938 51.9445C78.5315 51.3148 79.3286 50.7901 80.232 50.4229C81.2949 50.0556 82.2514 49.8457 83.3142 49.8457Z" fill="#31354A"/>
<path d="M105.421 64.9568C106.006 64.9568 106.431 65.1667 106.856 65.534C107.281 65.9537 107.441 66.4259 107.441 66.9506C107.441 67.5278 107.228 68 106.856 68.4198C106.431 68.8395 105.953 68.9969 105.421 68.9969H96.7593C96.2279 68.9969 95.7496 68.787 95.3245 68.4198C94.8993 68 94.6868 67.5278 94.6868 66.9506V51.8395C94.6868 51.3148 94.8993 50.8426 95.2713 50.4228C95.6433 50.0031 96.1747 49.7932 96.7593 49.7932H105.421C106.006 49.7932 106.431 50.0031 106.856 50.3704C107.281 50.7901 107.441 51.2623 107.441 51.8395C107.441 52.4167 107.228 52.8889 106.856 53.2562C106.431 53.6235 105.953 53.8333 105.421 53.8333H98.7256V57.2438H103.349C103.88 57.2438 104.359 57.4537 104.784 57.821C105.209 58.2407 105.368 58.713 105.368 59.2901C105.368 59.8673 105.156 60.287 104.784 60.7068C104.359 61.1265 103.88 61.284 103.349 61.284H98.7256V64.8519L105.421 64.9568Z" fill="#31354A"/>
<path d="M122.958 49.7932C123.543 49.7932 124.021 50.0031 124.446 50.3704C124.871 50.7901 125.031 51.2623 125.031 51.8395C125.031 52.4167 124.818 52.8889 124.446 53.2562C124.021 53.6235 123.543 53.8333 122.958 53.8333H119.557V66.9506C119.557 67.5278 119.345 68 118.973 68.4198C118.601 68.8395 118.069 68.9969 117.485 68.9969C116.9 68.9969 116.422 68.787 115.997 68.4198C115.625 68 115.412 67.5278 115.412 66.9506V53.8858H111.958C111.373 53.8858 110.948 53.6759 110.523 53.3086C110.098 52.9414 109.938 52.4167 109.938 51.892C109.938 51.3148 110.151 50.8426 110.523 50.4228C110.948 50.0031 111.426 49.8457 111.958 49.8457L122.958 49.7932Z" fill="#31354A"/>
<path d="M28.3654 68.9969C22.998 68.9969 18.6404 64.6944 18.6404 59.3951C18.6404 54.0957 22.998 49.7932 28.3654 49.7932C33.7327 49.7932 38.0904 54.0957 38.0904 59.3951C38.0904 64.6944 33.7327 68.9969 28.3654 68.9969ZM28.3654 53.6235C25.1769 53.6235 22.5198 56.1944 22.5198 59.3951C22.5198 62.5432 25.1237 65.1667 28.3654 65.1667C31.5539 65.1667 34.211 62.5957 34.211 59.3951C34.211 56.2469 31.6071 53.6235 28.3654 53.6235Z" fill="#31354A"/>
<path d="M63.2265 92.1882C62.0574 92.1882 61.1539 93.1326 61.1539 94.2869C61.1539 95.4412 62.1105 96.3332 63.2265 96.3332C64.3956 96.3332 65.3522 95.3888 65.3522 94.2869C65.299 93.0801 64.3425 92.1882 63.2265 92.1882ZM74.3863 84.9999C71.5698 81.6943 67.531 79.8579 63.2265 79.8579C58.922 79.8579 54.83 81.7468 52.0666 84.9999C51.6946 85.4196 51.7478 86.1017 52.1729 86.469C52.3855 86.6264 52.5981 86.7314 52.8106 86.7314C53.0763 86.7314 53.3952 86.6264 53.6078 86.3641C55.9992 83.5308 59.5065 81.9567 63.1733 81.9567C66.8933 81.9567 70.3475 83.5832 72.7389 86.3641C72.9515 86.6264 73.2172 86.7314 73.5361 86.7314C73.8018 86.7314 74.0143 86.6264 74.1738 86.469C74.7052 86.1017 74.7583 85.4196 74.3863 84.9999ZM63.2265 83.9505C60.1442 83.9505 57.2214 85.2622 55.2552 87.6233C54.8832 88.0431 54.9363 88.7252 55.3614 89.0925C55.574 89.2499 55.7866 89.3548 55.9992 89.3548C56.2649 89.3548 56.5837 89.2499 56.7963 88.9875C58.3906 87.1511 60.7288 86.0493 63.1733 86.0493C65.6179 86.0493 67.9561 87.1511 69.5504 88.9875C69.763 89.2499 70.0287 89.3548 70.3475 89.3548C70.6132 89.3548 70.8258 89.2499 70.9852 89.0925C71.4104 88.7252 71.4635 88.0956 71.0915 87.6233C69.1784 85.3147 66.3087 83.9505 63.2265 83.9505ZM63.2265 88.0956C61.3665 88.0956 59.6128 88.8826 58.4437 90.2993C58.0717 90.719 58.1248 91.4011 58.55 91.7684C58.7625 91.9258 58.9751 92.0307 59.1877 92.0307C59.4534 92.0307 59.7722 91.9258 59.9848 91.6635C60.7819 90.719 61.9511 90.1943 63.1733 90.1943C64.3956 90.1943 65.5647 90.719 66.3619 91.6635C66.5744 91.9258 66.8401 92.0307 67.159 92.0307C67.4247 92.0307 67.6373 91.9258 67.7967 91.7684C68.2218 91.4011 68.275 90.7715 67.903 90.2993C66.787 88.8826 65.0865 88.0956 63.2265 88.0956Z" fill="#31354A"/>
<path d="M5.99247 45.4907C2.43195 45.4907 1.31596 44.284 0.997111 43.287C0.678258 42.2901 0.890827 40.6636 3.81364 38.6173L55.7335 2.2037C57.7529 0.787037 60.41 0 63.2266 0C66.0431 0 68.7002 0.787037 70.7196 2.2037L122.639 38.6173C125.509 40.6636 125.722 42.2901 125.403 43.287C125.084 44.284 123.968 45.4907 120.407 45.4907H5.99247ZM63.2266 2.30864C60.8883 2.30864 58.7095 2.93827 57.0621 4.09259L5.1422 40.5062C3.44165 41.713 3.17594 42.4475 3.22908 42.6049C3.28222 42.7099 3.91993 43.1821 6.04561 43.1821H120.461C122.586 43.1821 123.171 42.7099 123.224 42.6049C123.277 42.5 123.011 41.713 121.311 40.5062L69.3379 4.04012C67.7436 2.93827 65.5117 2.30864 63.2266 2.30864Z" fill="#EA3B44"/>
</g>
<defs>
<clipPath id="clip0_810_7732">
<rect width="126" height="102" fill="white" transform="translate(0.199951)"/>
</clipPath>
</defs>
</svg>
