<svg width="213" height="60" viewBox="0 0 213 60" fill="none" xmlns="http://www.w3.org/2000/svg">
<g clip-path="url(#clip0_810_7743)">
<path d="M41.5327 43.17C41.3743 43.0631 41.2687 43.0097 41.1103 42.9028C40.3182 42.422 39.6318 41.7274 38.9982 41.0328C37.5725 39.43 36.5693 37.3997 36.1997 35.2626C35.9885 33.9803 30.8139 35.2091 31.0779 36.6517C31.7115 40.1245 34.0876 43.5974 37.2029 45.2537C39.7902 46.6428 45.5456 46.2688 46.3377 42.7425C46.6017 41.5671 42.6415 42.048 41.5327 43.17Z" fill="#EB5F0A"/>
<path d="M27.5929 33.7133H24.372V46.3223H17.5077V14.4791C20.2006 14.1051 24.0024 13.5174 28.8602 13.5174C34.4572 13.5174 36.9389 14.4791 38.9454 16.0285C40.7406 17.3642 42.0079 19.715 42.0079 22.8139C42.0079 26.7142 39.8958 33.7133 27.5929 33.7133ZM24.5304 28.4773H27.7513C31.5531 28.4773 34.6156 27.1416 34.6156 23.829C34.6156 20.8905 32.6091 18.9671 28.3322 18.9671C26.5369 18.9671 25.2696 19.1273 24.5304 19.3411V28.4773ZM30.0218 0C13.6532 0 0.399902 13.4105 0.399902 30.0267C0.399902 46.5895 13.6532 60.0534 30.0218 60.0534C46.3904 60.0534 59.6965 46.6429 59.6965 30.0267C59.6965 13.4105 46.4432 0 30.0218 0ZM30.0218 53.7489C17.0325 53.7489 6.52493 43.1166 6.52493 29.9199C6.52493 16.7765 17.0325 6.14426 30.0218 6.14426C43.0111 6.14426 53.5715 16.7765 53.5715 29.9199C53.5715 43.0632 43.0639 53.7489 30.0218 53.7489Z" fill="#2EA836"/>
<path d="M83.4045 36.3846C83.4045 36.7586 83.2989 37.2395 82.5597 37.2395H78.3884C77.5963 37.2395 77.4907 36.7586 77.4907 36.3846V7.9073C77.4907 7.10588 77.9659 6.99902 78.3884 6.99902H85.5694C87.5231 6.99902 90.2688 7.10588 92.2753 8.22787C93.9121 9.13616 95.813 11.1664 95.813 15.4407C95.813 21.2644 92.0113 25.1646 85.8334 25.1646H83.5101V36.3846H83.4045ZM83.4045 20.4095H84.7774C87.3119 20.4095 89.7936 20.0355 89.7936 15.7613C89.7936 11.7007 86.9951 11.6473 85.3582 11.6473H83.4573V20.4095H83.4045Z" fill="#2EA836"/>
<path d="M106.057 36.3846C106.057 36.7586 105.951 37.2395 105.159 37.2395H100.988C100.196 37.2395 100.09 36.7586 100.09 36.3846V7.9073C100.09 7.10588 100.565 6.99902 100.988 6.99902H108.169C110.862 6.99902 113.871 7.21274 116.036 9.18958C118.148 11.1664 118.412 13.8378 118.412 15.4407C118.412 17.2038 118.096 19.1273 116.987 20.7835C116.142 22.1192 115.086 22.8138 113.343 23.7221L119.838 35.5297C119.996 35.9037 120.208 36.1175 120.208 36.3312C120.208 36.6517 119.944 36.7586 119.627 36.812L115.667 37.934C115.033 38.0943 114.822 38.2546 114.03 36.6517L108.116 24.7372H106.004V36.3846H106.057ZM107.166 20.1424C109.753 20.1424 112.393 19.7684 112.393 15.6544C112.393 11.7541 109.911 11.7007 107.641 11.7007H106.004V20.1958H107.166V20.1424Z" fill="#2EA836"/>
<path d="M135.415 27.5688C135.415 27.9962 135.573 28.4771 134.517 28.4771H123.851C122.795 28.4771 122.953 27.9962 122.953 27.5688V24.3631C122.953 23.9357 122.848 23.4548 123.851 23.4548H134.517C135.573 23.4548 135.415 23.9357 135.415 24.3631V27.5688Z" fill="#2EA836"/>
<path d="M155.69 31.95C155.902 31.95 156.324 32.0035 156.377 32.4309C156.377 32.4843 156.377 32.4843 156.377 32.5378C156.377 32.8583 156.324 32.9652 156.271 33.1255L155.426 36.4915C155.268 37.1326 155.162 37.2929 154.476 37.2929H139.955C139.163 37.2929 139.058 36.812 139.058 36.438V7.9073C139.058 7.10588 139.533 6.99902 139.955 6.99902H144.127C144.919 6.99902 145.024 7.47988 145.024 7.9073V32.0035H155.69V31.95Z" fill="#2EA836"/>
<path d="M157.011 19.5546C156.535 19.5546 156.377 19.4478 156.377 18.9135V16.0283C156.377 15.5475 156.535 15.3872 157.011 15.3872H165.3C165.881 15.3872 165.934 15.4941 165.934 16.0283V36.5982C165.934 37.186 165.829 37.186 165.3 37.186H160.971C160.39 37.186 160.337 37.0791 160.337 36.5982V19.5012H157.011V19.5546Z" fill="#2EA836"/>
<path d="M163.083 5.28931C165.036 5.28931 166.673 6.94559 166.673 8.92243C166.673 10.8993 165.036 12.5556 163.083 12.5556C161.129 12.5556 159.492 10.8993 159.492 8.92243C159.492 6.89216 161.129 5.28931 163.083 5.28931Z" fill="#2EA836"/>
<path d="M199.675 27.836C199.675 31.0417 200.836 33.3391 204.48 33.3391C206.486 33.3391 208.017 32.698 208.862 32.324C209.39 32.0568 209.76 31.8965 210.024 31.8965C210.288 31.8965 210.393 32.0568 210.499 32.2705L211.608 34.8885C211.713 35.0488 211.713 35.1557 211.713 35.316C211.713 35.7434 211.344 36.064 211.027 36.2777C209.39 37.3997 206.539 38.0408 204.057 38.0408C194.711 38.0408 194.13 29.9731 194.13 26.9277C194.13 19.9286 197.563 14.6926 203.688 14.6926C209.179 14.6926 211.133 18.3792 211.925 21.7986C212.347 23.6686 212.4 25.2714 212.4 26.4469C212.4 27.836 211.977 27.836 211.397 27.836H199.675ZM206.486 23.7754C206.539 22.6 206.38 21.852 206.328 21.5315C205.958 19.8752 205.113 18.8066 203.371 18.8066C200.889 18.8066 199.939 20.73 199.675 23.7754H206.486Z" fill="#2EA836"/>
<path d="M183.94 30.6144V32.4844L189.484 36.1175V34.2475L183.94 30.6144ZM172.006 20.3562L177.656 24.0427V21.1576C179.293 19.6082 180.56 19.341 181.352 19.341C183.781 19.341 183.94 21.4247 183.94 23.0276V28.1033L189.484 31.7364V21.1576C189.484 17.7916 187.794 14.6928 183.834 14.6928C181.775 14.6928 179.504 15.3339 177.128 17.7382C177.023 16.8299 176.758 16.1353 176.547 15.601C176.125 14.5859 175.966 14.479 175.069 14.7996L171.742 15.9216C171.32 16.0285 171.267 16.2956 171.267 16.5093C171.267 16.8833 171.425 17.097 171.689 17.9519C171.795 18.593 171.954 19.341 172.006 20.3562ZM183.94 34.9955V36.6518C183.94 37.2395 184.045 37.2395 184.573 37.2395H187.425L183.94 34.9955ZM172.112 23.2947V24.7907L177.656 28.4238V26.5538L172.112 22.9207C172.112 23.0276 172.112 23.1879 172.112 23.2947ZM172.112 27.3018V36.6518C172.112 37.2395 172.27 37.2395 172.746 37.2395H177.075C177.656 37.2395 177.709 37.1326 177.709 36.6518V30.8815L172.112 27.3018Z" fill="#2EA836"/>
<path d="M77.1739 46.5361C77.1739 46.2155 77.1739 45.7881 76.8571 45.2004C76.8043 45.0935 76.7515 45.0401 76.7515 44.9867C76.7515 44.9332 76.8043 44.8798 76.8043 44.8798L77.4379 44.5058C77.4907 44.4524 77.5963 44.4524 77.7019 44.5593C77.8603 44.7195 78.0187 45.0401 78.0715 45.3607L78.1771 45.2538C78.5995 44.9332 79.286 44.4524 80.078 44.4524C80.8172 44.4524 82.4541 44.8264 82.4541 48.1389C82.4541 51.4515 80.7644 51.8789 79.8668 51.8789C79.0747 51.8789 78.4411 51.5049 78.2827 51.3981V54.3901C78.2827 54.4435 78.2827 54.5503 78.1771 54.5503L77.4907 54.7106C77.3851 54.7641 77.1739 54.8175 77.1739 54.6038V46.5361ZM78.2827 50.3829C78.6523 50.5967 79.286 50.8638 79.814 50.8638C81.2396 50.8638 81.2924 49.4747 81.2924 48.0321C81.2924 46.6964 81.1868 45.3607 79.8668 45.3607C79.286 45.3607 78.7051 45.7881 78.2827 46.0552V50.3829Z" fill="#646363"/>
<path d="M91.2192 51.024C91.2192 51.0775 91.2192 51.0775 91.2192 51.1309C91.2192 51.1843 91.1136 51.2912 90.6912 51.5049C90.2688 51.7186 89.688 51.8789 89.0544 51.8789C87.6287 51.8789 85.8862 51.024 85.8862 48.1389C85.8862 45.7881 87.1535 44.3989 88.7903 44.3989C90.0048 44.3989 91.3776 45.0401 91.3776 48.0321V48.0855C91.3776 48.2992 91.3248 48.3526 91.2192 48.3526H87.0479V48.406C87.0479 50.1158 88.0511 50.8103 89.0544 50.8103C89.6352 50.8103 90.1632 50.5966 90.6384 50.276C90.6912 50.2226 90.744 50.2226 90.7968 50.2226C90.7968 50.2226 90.7968 50.2226 90.8496 50.2226C90.8496 50.2226 90.9024 50.2226 90.9024 50.276L91.2192 51.024ZM90.216 47.4443C90.216 47.3375 90.216 46.7498 90.0048 46.2155C89.7408 45.5209 89.2128 45.3072 88.7375 45.3072C87.9455 45.3072 87.1535 45.8949 87.1535 47.4443H90.216Z" fill="#646363"/>
<path d="M95.6018 51.6652C95.4434 51.6652 95.4434 51.5583 95.4434 51.5583V44.7729C95.4434 44.6661 95.4962 44.6126 95.549 44.6126L95.8658 44.5592L96.341 44.4524C96.3938 44.4524 96.4466 44.4524 96.4466 44.4524C96.5522 44.4524 96.5522 44.5592 96.5522 44.5592V47.5512H97.1858C97.7138 47.5512 97.9779 47.2841 98.0835 46.7498L98.2947 46.0018C98.4003 45.4675 98.6115 44.8264 99.2451 44.5592C99.4563 44.5058 99.7731 44.3989 99.9843 44.3989C100.037 44.3989 100.143 44.3989 100.196 44.5058L100.354 45.1469C100.407 45.3072 100.248 45.3072 100.143 45.3072L99.9315 45.3606C99.7731 45.4141 99.6147 45.4141 99.5091 45.5744C99.4563 45.6278 99.4035 45.7346 99.2979 46.1621L99.1395 46.7498C99.0339 47.1238 98.8755 47.7115 98.1891 47.9252C98.8227 48.0855 99.0339 48.5663 99.1395 48.8869L99.6147 50.276C99.6675 50.3829 99.7203 50.5966 99.8259 50.7035C99.8787 50.7569 100.037 50.8103 100.248 50.8638L100.407 50.9172C100.565 50.9172 100.618 50.9172 100.565 51.1309L100.354 51.772C100.301 51.8789 100.248 51.8789 100.143 51.8789C99.6675 51.8789 99.4035 51.8255 99.2451 51.7186C98.6643 51.4515 98.5587 50.9706 98.3475 50.276L98.0835 49.2075C97.8723 48.5129 97.6082 48.4595 97.1858 48.4595H96.5522V51.5049C96.5522 51.5049 96.5522 51.6117 96.3938 51.6117H95.6018V51.6652Z" fill="#646363"/>
<path d="M108.749 51.4516C108.749 51.5585 108.749 51.6119 108.591 51.6119H107.852C107.693 51.6119 107.693 51.505 107.693 51.4516V45.5211H105.898V45.7348C105.898 46.6965 105.792 48.4596 105.687 49.1542C105.581 50.0091 105.37 51.1845 104.367 51.6653C104.05 51.8256 103.786 51.8256 103.522 51.879C103.469 51.879 103.469 51.879 103.416 51.879C103.311 51.879 103.258 51.7722 103.258 51.7188L103.1 51.131C103.047 50.9173 103.205 50.9173 103.311 50.8639H103.469C103.733 50.8105 104.367 50.7036 104.578 49.5282C104.736 48.6199 104.789 46.4828 104.789 45.2539V44.8265C104.789 44.6662 104.789 44.6128 105 44.6128H108.538C108.697 44.6128 108.749 44.7731 108.749 44.8265V51.4516Z" fill="#646363"/>
<path d="M117.726 49.7418C117.726 50.1158 117.779 50.5432 117.884 50.8103C117.937 50.9172 118.043 51.1309 118.095 51.2378C118.148 51.2912 118.148 51.2912 118.148 51.3446C118.148 51.398 118.095 51.398 118.043 51.4515L117.409 51.8255C117.303 51.8789 117.198 51.9323 117.039 51.6117C116.934 51.398 116.881 51.3446 116.775 50.9706V50.9172L116.723 50.9706C116.406 51.2912 115.825 51.8789 114.769 51.8789C113.343 51.8789 112.815 50.8103 112.815 49.7952C112.815 48.8335 113.29 47.8183 114.874 47.4443C115.35 47.3375 116.036 47.2306 116.564 47.2306H116.617V46.6963C116.617 46.1086 116.511 45.3606 115.402 45.3606C114.927 45.3606 114.294 45.5209 113.818 45.7346C113.713 45.7881 113.66 45.8415 113.607 45.8415C113.554 45.8415 113.502 45.7881 113.502 45.7881L113.29 45.2004C113.29 45.1469 113.29 45.1469 113.29 45.0935C113.29 44.9866 113.502 44.8798 113.607 44.8264C114.188 44.5592 114.927 44.3989 115.561 44.3989C116.987 44.3989 117.726 45.0935 117.726 46.4292V49.7418ZM116.617 48.1389H116.564C114.188 48.1389 113.924 49.1006 113.924 49.7418C113.924 50.5966 114.505 50.9172 114.98 50.9172C115.614 50.9172 116.3 50.3295 116.564 50.1158L116.67 50.0089V48.1389H116.617Z" fill="#646363"/>
<path d="M124.907 47.9788C125.013 48.2994 125.118 48.7268 125.171 48.994H125.224C125.277 48.7802 125.382 48.246 125.488 47.9788L126.597 44.7731C126.597 44.7197 126.649 44.6663 126.702 44.6663H127.705C127.758 44.6663 127.811 44.6663 127.811 44.7731L128.181 51.5585C128.181 51.6119 128.181 51.6654 128.075 51.6654H127.23C127.125 51.6654 127.125 51.6119 127.125 51.5585L126.966 46.4828C126.966 46.376 126.966 46.2691 126.966 45.9485H126.913C126.861 46.2691 126.808 46.376 126.808 46.4828L125.593 50.0625C125.541 50.2228 125.488 50.2228 125.435 50.2228H124.854C124.748 50.2228 124.748 50.2228 124.696 50.0625L123.481 46.4828C123.481 46.4294 123.428 46.3225 123.323 45.9485C123.323 46.2157 123.323 46.3225 123.323 46.4828L123.164 51.5585C123.164 51.6119 123.164 51.6654 123.059 51.6654H122.214C122.108 51.6654 122.108 51.5585 122.108 51.5585L122.478 44.7731C122.478 44.7197 122.478 44.6663 122.584 44.6663H123.587C123.64 44.6663 123.692 44.6663 123.745 44.7731L124.907 47.9788Z" fill="#646363"/>
<path d="M133.778 51.4515C133.778 51.5583 133.778 51.6117 133.619 51.6117H132.88C132.722 51.6117 132.722 51.5049 132.722 51.4515V44.7729C132.722 44.6661 132.774 44.6126 132.827 44.6126L133.144 44.5592L133.619 44.4524C133.672 44.4524 133.725 44.4524 133.725 44.4524C133.831 44.4524 133.831 44.5592 133.831 44.5592V47.5512H136.629V44.7729C136.629 44.6661 136.682 44.6126 136.735 44.6126L137.527 44.3989C137.579 44.3989 137.632 44.3989 137.632 44.3989C137.738 44.3989 137.738 44.5058 137.738 44.5058V51.4515C137.738 51.5583 137.738 51.6117 137.579 51.6117H136.84C136.735 51.6117 136.682 51.6118 136.682 51.4515V48.4595H133.883V51.4515H133.778Z" fill="#646363"/>
<path d="M146.556 49.7418C146.556 50.1158 146.608 50.5432 146.714 50.8103C146.767 50.9172 146.872 51.1309 146.925 51.2378C146.978 51.2912 146.978 51.3446 146.978 51.3446C146.978 51.398 146.925 51.398 146.872 51.4515L146.239 51.8255C146.133 51.8789 146.08 51.9323 145.869 51.6117C145.764 51.398 145.711 51.3446 145.605 50.9706V50.9172L145.552 50.9706C145.236 51.2912 144.655 51.8789 143.599 51.8789C142.173 51.8789 141.645 50.8103 141.645 49.7952C141.645 48.8335 142.12 47.8183 143.704 47.4443C144.18 47.3375 144.919 47.2306 145.394 47.2306H145.447V46.6963C145.447 46.1086 145.341 45.3606 144.232 45.3606C143.757 45.3606 143.123 45.5209 142.648 45.7346C142.543 45.7881 142.49 45.8415 142.437 45.8415C142.384 45.8415 142.331 45.7881 142.331 45.7881L142.12 45.2004C142.12 45.1469 142.12 45.1469 142.12 45.0935C142.12 44.9866 142.331 44.8798 142.437 44.8264C143.018 44.5592 143.757 44.3989 144.444 44.3989C145.922 44.3989 146.608 45.0935 146.608 46.4292V49.7418H146.556ZM145.5 48.1389H145.447C143.071 48.1389 142.807 49.1006 142.807 49.7418C142.807 50.5966 143.387 50.9172 143.863 50.9172C144.496 50.9172 145.183 50.3295 145.447 50.1158L145.552 50.0089V48.1389H145.5Z" fill="#646363"/>
<path d="M160.971 49.7418C160.971 50.1158 161.023 50.5432 161.129 50.8103C161.182 50.9172 161.287 51.1309 161.34 51.2378C161.393 51.2912 161.393 51.3446 161.393 51.3446C161.393 51.398 161.34 51.398 161.287 51.4515L160.654 51.8255C160.548 51.8789 160.443 51.9323 160.284 51.6117C160.179 51.398 160.126 51.3446 160.02 50.9706V50.9172L159.967 50.9706C159.651 51.2912 159.07 51.8789 158.014 51.8789C156.588 51.8789 156.06 50.8103 156.06 49.7952C156.06 48.8335 156.535 47.8183 158.119 47.4443C158.595 47.3375 159.281 47.2306 159.809 47.2306H159.862V46.6963C159.862 46.1086 159.756 45.3606 158.647 45.3606C158.172 45.3606 157.539 45.5209 157.063 45.7346C156.958 45.7881 156.905 45.8415 156.852 45.8415C156.799 45.8415 156.746 45.7881 156.746 45.7881L156.535 45.2004C156.535 45.1469 156.535 45.1469 156.535 45.0935C156.535 44.9866 156.746 44.8798 156.852 44.8264C157.433 44.5592 158.172 44.3989 158.806 44.3989C160.284 44.3989 160.971 45.0935 160.971 46.4292V49.7418ZM159.915 48.1389H159.862C157.486 48.1389 157.222 49.1006 157.222 49.7418C157.222 50.5966 157.803 50.9172 158.278 50.9172C158.911 50.9172 159.598 50.3295 159.862 50.1158L159.967 50.0089V48.1389H159.915Z" fill="#646363"/>
<path d="M165.512 44.8265C165.512 44.7731 165.512 44.6128 165.67 44.6128H169.155C169.366 44.6128 169.313 44.7731 169.313 44.8799L169.208 45.4676C169.155 45.6279 169.049 45.6279 168.997 45.6279H166.568V51.505C166.568 51.6119 166.568 51.6653 166.409 51.6653H165.67C165.512 51.6653 165.512 51.5585 165.512 51.505V44.8265Z" fill="#646363"/>
<path d="M177.762 51.024C177.762 51.0775 177.762 51.0775 177.762 51.1309C177.762 51.1843 177.656 51.2912 177.234 51.5049C176.811 51.7186 176.23 51.8789 175.597 51.8789C174.171 51.8789 172.429 51.024 172.429 48.1389C172.429 45.7881 173.696 44.3989 175.333 44.3989C176.547 44.3989 177.92 45.0401 177.92 48.0321V48.0855C177.92 48.2992 177.867 48.3526 177.762 48.3526H173.59V48.406C173.59 50.1158 174.594 50.8103 175.597 50.8103C176.178 50.8103 176.706 50.5966 177.181 50.276C177.234 50.2226 177.287 50.2226 177.339 50.2226C177.339 50.2226 177.339 50.2226 177.392 50.2226C177.392 50.2226 177.445 50.2226 177.445 50.276L177.762 51.024ZM176.758 47.4443C176.758 47.3375 176.758 46.7498 176.547 46.2155C176.283 45.5209 175.755 45.3072 175.28 45.3072C174.488 45.3072 173.696 45.8949 173.643 47.4443H176.758Z" fill="#646363"/>
<path d="M183.095 51.4515C183.095 51.5583 183.095 51.6117 182.936 51.6117H182.197C182.039 51.6117 182.039 51.5049 182.039 51.4515V44.7729C182.039 44.6661 182.091 44.6126 182.144 44.6126L182.461 44.5592L182.936 44.4524C182.989 44.4524 183.042 44.4524 183.042 44.4524C183.147 44.4524 183.147 44.5592 183.147 44.5592V47.5512H185.946V44.7729C185.946 44.6661 185.999 44.6126 186.052 44.6126L186.844 44.3989C186.896 44.3989 186.949 44.3989 186.949 44.3989C187.055 44.3989 187.055 44.5058 187.055 44.5058V51.4515C187.055 51.5583 187.055 51.6117 186.896 51.6117H186.157C186.052 51.6117 185.999 51.6118 185.999 51.4515V48.4595H183.095V51.4515Z" fill="#646363"/>
<path d="M195.292 50.7569V44.7729C195.292 44.6661 195.345 44.6126 195.397 44.6126L196.189 44.3989C196.242 44.3989 196.295 44.3989 196.295 44.3989C196.401 44.3989 196.401 44.5058 196.401 44.5058V50.7569H197.087C197.351 50.7569 197.298 50.8638 197.298 50.9706V53.642C197.298 53.8023 197.193 53.8023 197.14 53.8023H196.401C196.295 53.8023 196.242 53.8023 196.242 53.642V51.6652H191.754C191.596 51.6652 191.596 51.5583 191.596 51.5049V44.7729C191.596 44.6661 191.648 44.6126 191.701 44.6126L192.493 44.3989C192.546 44.3989 192.599 44.3989 192.599 44.3989C192.705 44.3989 192.705 44.5058 192.705 44.5058V50.7569H195.292Z" fill="#646363"/>
<path d="M202.631 51.4516C202.631 51.6118 202.526 51.6118 202.473 51.6118H201.734C201.628 51.6118 201.575 51.6118 201.575 51.4516V45.521H200.467C200.361 45.521 200.308 45.521 200.308 45.3607V44.8264C200.308 44.6662 200.414 44.6662 200.467 44.6662H202.526C202.684 44.6662 202.737 44.8264 202.737 44.8799V51.4516H202.631ZM201.998 41.1399C202.526 41.1399 202.895 41.5139 202.895 42.0482C202.895 42.5825 202.473 42.9565 201.998 42.9565C201.47 42.9565 201.1 42.5825 201.1 42.0482C201.1 41.5139 201.47 41.1399 201.998 41.1399Z" fill="#646363"/>
<path d="M211.555 44.6128C211.713 44.6128 211.713 44.7196 211.713 44.773V51.4516C211.713 51.6119 211.608 51.6119 211.555 51.6119H210.816C210.657 51.6119 210.657 51.505 210.657 51.4516V48.6199H209.865C209.443 48.6199 209.126 48.6733 208.915 49.3679L208.704 50.2227C208.492 51.0242 208.387 51.3981 207.806 51.6653C207.648 51.7187 207.384 51.8256 206.908 51.8256C206.856 51.8256 206.75 51.8256 206.697 51.7187L206.486 51.0776C206.433 50.8639 206.539 50.8639 206.644 50.8639L206.803 50.8104C207.014 50.757 207.172 50.7036 207.225 50.6502C207.331 50.5433 207.436 50.383 207.436 50.2227L207.753 49.1007C207.806 48.8336 208.017 48.4596 208.44 48.2459V48.1924C207.489 48.0322 207.014 47.2842 207.014 46.4827C207.014 46.0553 207.172 44.5593 209.496 44.5593H211.555V44.6128ZM210.605 45.521H209.601C209.337 45.521 208.176 45.521 208.176 46.5896C208.176 47.1239 208.545 47.7116 209.601 47.7116H210.605V45.521Z" fill="#646363"/>
</g>
<defs>
<clipPath id="clip0_810_7743">
<rect width="212" height="60" fill="white" transform="translate(0.399902)"/>
</clipPath>
</defs>
</svg>
