<svg width="64" height="64" viewBox="0 0 64 64" fill="none" xmlns="http://www.w3.org/2000/svg">
<circle cx="32" cy="32" r="31.5" stroke="white"/>
<path fill-rule="evenodd" clip-rule="evenodd" d="M43.8222 27.2375L43.8233 27.2483C43.8304 27.3281 43.9998 29.2228 44 31.1252V32.9035C44 34.8058 43.8304 36.7005 43.8233 36.7803L43.8206 36.8046C43.7971 36.9915 43.567 38.6565 42.7714 39.5129C41.8167 40.553 40.7401 40.6661 40.2224 40.7206L40.222 40.7206C40.1726 40.7257 40.1275 40.7304 40.0874 40.7356L40.0455 40.74C36.8727 40.9685 32.0812 40.9996 32.0332 40.9998L32.0259 41L32.0186 40.9998C31.7751 40.9964 26.0313 40.9113 24.1993 40.7387L24.1438 40.7311C24.088 40.7214 24.0069 40.7122 23.9126 40.7015L23.9049 40.7007C23.2875 40.6307 22.1396 40.5005 21.2317 39.5167C20.4003 38.6509 20.1981 36.9807 20.1778 36.7925L20.1765 36.7805C20.1694 36.7007 20 34.8058 20 32.9035V31.1252C20 29.2228 20.1694 27.3279 20.1765 27.2483L20.1793 27.224C20.2029 27.0369 20.4329 25.3719 21.2284 24.5158C22.1967 23.4611 23.2796 23.3372 23.8 23.2778C23.8073 23.2769 23.8145 23.2761 23.8215 23.2753C23.8541 23.2716 23.8844 23.2681 23.9124 23.2644L23.9547 23.26C27.1561 23.0315 31.9477 23.0004 31.9957 23.0002L31.9999 23L32.0041 23.0002C32.0521 23.0004 36.8437 23.0315 40.0166 23.26L40.0585 23.2644C40.0942 23.2691 40.1341 23.2736 40.1777 23.2785C40.7041 23.3378 41.7987 23.4614 42.7642 24.4793C43.5996 25.3447 43.8019 27.0462 43.8222 27.2375ZM30.2455 28.4104L35.83 31.202C36.1606 31.3672 36.365 31.6835 36.3637 32.0276C36.3621 32.3717 36.1552 32.6865 35.8237 32.8495L30.2389 35.5929C30.0856 35.6684 29.919 35.7059 29.7527 35.7059C29.5712 35.7059 29.3901 35.6611 29.2268 35.572C28.914 35.4013 28.7273 35.1005 28.7273 34.7677V29.2325C28.7273 28.8981 28.9151 28.5968 29.2301 28.4263C29.5448 28.2559 29.9244 28.2499 30.2455 28.4104Z" fill="white"/>
</svg>
