<?xml version="1.0" standalone="no"?>
<!DOCTYPE svg PUBLIC "-//W3C//DTD SVG 20010904//EN"
 "http://www.w3.org/TR/2001/REC-SVG-20010904/DTD/svg10.dtd">
<svg version="1.0" xmlns="http://www.w3.org/2000/svg"
 width="700.000000pt" height="700.000000pt" viewBox="0 0 700.000000 700.000000"
 preserveAspectRatio="xMidYMid meet">
<metadata>
Created by potrace 1.14, written by Peter Selinger 2001-2017
</metadata>
<g transform="translate(0.000000,700.000000) scale(0.100000,-0.100000)"
fill="#000000" stroke="none">
<path d="M3637 5789 c-114 -39 -171 -89 -212 -187 -37 -91 -31 -99 40 -46 90
68 106 72 50 14 -27 -28 -67 -60 -88 -71 -24 -12 -37 -26 -36 -37 5 -55 0 -62
-40 -62 -22 0 -67 -9 -100 -19 -75 -23 -164 -20 -229 9 -83 37 -99 65 -65 116
20 31 79 70 124 81 48 13 50 32 2 23 -98 -19 -153 -70 -153 -143 0 -64 46
-109 135 -132 l30 -8 -30 -8 c-133 -39 -320 -35 -367 8 -10 9 -18 27 -18 40 0
33 -14 29 -35 -11 -32 -59 0 -99 109 -138 l51 -19 -55 6 c-30 3 -65 13 -77 21
-18 11 -23 11 -23 2 0 -20 61 -55 111 -63 78 -14 193 -6 290 19 52 14 95 23
97 21 8 -8 -146 -75 -208 -92 -40 -10 -104 -17 -165 -17 -85 0 -106 3 -142 22
-45 24 -57 17 -23 -13 22 -20 140 -55 186 -55 17 0 42 -8 55 -18 72 -56 284
-46 411 19 57 29 83 61 113 138 25 62 45 84 45 48 0 -29 22 -87 31 -82 5 4 9
-1 9 -9 0 -19 99 -70 152 -80 61 -11 83 -36 83 -95 0 -28 2 -51 5 -52 6 -1 17
-3 75 -19 61 -16 185 -13 241 6 62 20 73 30 51 46 -19 14 -35 64 -29 90 2 10
17 20 37 24 18 3 44 17 56 30 22 23 23 31 21 149 -3 131 -11 177 -37 205 -9
10 -20 45 -25 78 -13 93 -33 126 -105 171 -34 22 -65 46 -68 54 -9 23 -111 57
-170 57 -29 -1 -78 -10 -110 -21z m116 -12 c18 -8 38 -21 45 -30 11 -13 10
-16 -7 -22 -11 -3 -29 -1 -40 4 -48 26 -174 -4 -260 -61 l-46 -31 45 47 c52
54 148 106 197 106 18 0 48 -6 66 -13z m107 -40 c0 -6 -9 0 -20 13 -11 13 -20
25 -20 28 0 3 9 -3 20 -13 11 -10 20 -23 20 -28z m-166 -59 c-44 -34 -70 -66
-100 -125 -28 -56 -42 -67 -133 -103 l-51 -20 0 23 c0 17 11 26 46 41 28 11
82 54 144 112 55 52 105 94 111 94 6 0 -1 -10 -17 -22z m327 -131 c-10 -9 -11
-8 -5 6 3 10 9 15 12 12 3 -3 0 -11 -7 -18z m-101 -51 c0 -5 -6 -3 -12 6 -19
23 -70 5 -114 -39 -20 -20 -32 -27 -26 -17 16 29 53 61 92 77 31 13 36 13 48
-1 6 -9 12 -20 12 -26z m170 -69 c0 -13 -50 24 -61 46 -9 15 -3 13 25 -9 20
-16 36 -32 36 -37z m-185 43 c4 -6 11 -8 16 -5 14 9 11 -11 -4 -23 -7 -6 -22
-9 -33 -6 -10 3 -37 -4 -58 -15 -22 -12 -42 -19 -44 -16 -8 8 20 36 57 55 41
22 57 24 66 10z m-360 -21 c-49 -33 -85 -50 -85 -40 0 5 12 14 28 19 15 6 36
17 47 26 11 8 25 15 30 16 6 0 -3 -9 -20 -21z m13 -82 c0 -18 -6 -23 -22 -22
-30 3 -73 -21 -81 -46 -10 -30 2 -84 23 -101 28 -26 120 -68 146 -68 21 0 36
-16 36 -39 0 -12 -90 -1 -120 14 -33 17 -57 50 -88 117 -26 57 -27 67 -6 96
11 16 77 59 110 72 1 0 2 -10 2 -23z m536 11 c-13 -23 -37 -48 -46 -48 -18 0
-6 26 20 42 34 20 35 21 26 6z m-506 -86 c3 -9 -2 -10 -20 -3 -29 11 -37 11
-67 -1 -21 -8 -22 -7 -11 7 16 19 91 17 98 -3z m501 -25 c-28 -21 -59 -36 -59
-29 0 9 37 30 54 31 5 1 7 0 5 -2z m18 -64 c4 -12 -43 -27 -57 -18 -16 10 -12
23 8 27 26 6 45 3 49 -9z m-932 -87 c-25 -37 -105 -65 -135 -46 -21 13 -6 25
65 49 81 27 89 27 70 -3z m606 -14 c32 -11 83 -24 115 -28 33 -3 66 -8 74 -10
8 -1 26 -3 40 -4 18 -1 4 -11 -55 -40 l-80 -38 -87 45 c-69 36 -89 52 -97 75
-12 35 -10 35 90 0z"/>
<path d="M3886 5461 c-3 -5 1 -11 9 -14 9 -4 12 -1 8 9 -6 16 -10 17 -17 5z"/>
<path d="M3606 4923 c-21 -14 -50 -29 -65 -33 l-26 -8 35 -16 c67 -30 100 -69
123 -147 37 -123 -16 -225 -140 -272 -26 -10 -57 -22 -68 -27 l-20 -8 20 -8
c42 -16 146 -87 170 -115 36 -43 32 -70 -15 -113 -22 -20 -45 -36 -50 -36 -6
0 -10 -3 -10 -8 0 -4 17 -7 38 -8 21 0 94 -15 163 -33 160 -40 250 -44 394
-18 103 19 97 14 111 97 4 25 8 47 9 50 2 6 15 92 21 138 7 53 6 183 -1 237
-12 93 -44 172 -89 222 l-43 47 -49 -21 c-61 -27 -150 -43 -228 -43 -94 0
-172 44 -228 127 l-14 22 -38 -26z m247 -149 c57 -19 160 -126 200 -207 24
-48 61 -166 54 -173 -5 -5 -90 80 -129 127 -38 47 -128 177 -128 185 0 3 -13
19 -30 37 -48 51 -41 57 33 31z m224 -52 c30 -41 74 -122 90 -167 19 -50 63
-225 62 -245 0 -35 -68 121 -84 195 -17 80 -78 225 -94 225 -5 0 -11 7 -14 14
-9 23 17 9 40 -22z m157 -59 c20 -64 25 -98 25 -192 0 -118 -6 -143 -14 -50
-3 50 -9 102 -21 189 -5 42 -14 88 -20 113 -3 9 -3 17 0 17 2 0 16 -35 30 -77z
m-436 -182 c46 -57 134 -121 235 -171 94 -48 106 -56 51 -37 -100 36 -254 104
-301 134 -76 48 -90 83 -85 203 l2 34 31 -59 c17 -33 47 -80 67 -104z"/>
<path d="M3437 4832 c-26 -15 -68 -40 -94 -56 -28 -17 -63 -30 -87 -31 -23 -1
-44 -3 -48 -4 -11 -2 -10 -49 2 -71 8 -16 -7 -27 -128 -95 -161 -91 -275 -170
-332 -227 -44 -45 -47 -56 -26 -96 37 -72 334 -298 524 -400 40 -21 88 -52
105 -69 32 -30 87 -63 106 -63 6 0 44 -16 85 -35 41 -19 78 -35 81 -35 14 0 2
32 -22 61 l-28 32 50 -7 c89 -13 139 -7 149 19 6 18 -47 65 -102 89 -23 10
-42 22 -42 25 0 4 25 6 57 6 33 0 58 5 60 11 4 13 -112 45 -182 49 -51 4 -65
10 -65 31 0 19 -4 18 -50 -8 -35 -21 -42 -21 -77 -9 -84 29 -141 78 -229 197
-83 112 -91 119 -174 152 -19 7 -10 8 36 5 61 -5 63 -5 167 57 137 82 157 99
161 135 7 66 -49 181 -84 172 -14 -4 -21 3 -29 24 -14 41 3 46 45 14 68 -52
111 -146 100 -221 -5 -42 -5 -43 22 -38 83 14 198 70 235 114 65 77 31 193
-78 266 -48 33 -59 34 -108 6z"/>
<path d="M4252 4853 c1 -4 23 -47 47 -95 34 -67 43 -97 43 -132 -1 -25 2 -46
5 -46 11 0 150 89 162 104 22 27 -147 150 -232 170 -16 4 -27 3 -25 -1z"/>
<path d="M4435 4576 c-33 -23 -60 -47 -60 -52 1 -5 5 -36 9 -69 5 -33 10 -67
11 -74 2 -16 -55 -152 -87 -210 -18 -32 -19 -41 -8 -91 7 -30 13 -59 14 -64 5
-21 134 215 174 319 18 47 35 128 37 185 1 31 -15 100 -24 99 -3 0 -33 -19
-66 -43z"/>
<path d="M4168 4024 c-63 -13 -151 -23 -213 -24 -38 -1 -36 -3 40 -29 146 -50
196 -90 216 -174 12 -50 16 -468 6 -512 -3 -11 -6 -30 -6 -42 -1 -13 -5 -23
-11 -23 -5 0 -7 20 -5 44 3 25 2 47 -3 50 -4 2 -8 -21 -8 -52 0 -32 -5 -88 -9
-127 -5 -38 -9 -84 -9 -102 -1 -17 -5 -29 -10 -25 -5 3 -7 -2 -3 -10 11 -30
-17 -52 -65 -52 -64 1 -115 13 -132 29 -12 12 -22 10 -71 -17 -50 -27 -69 -31
-131 -31 -41 -1 -76 1 -78 4 -3 2 12 54 34 114 141 403 200 581 200 603 0 14
-2 23 -5 20 -5 -5 -139 -391 -201 -578 -45 -136 -70 -180 -119 -207 -53 -29
-98 -35 -168 -22 -65 11 -118 37 -253 125 -50 32 -99 64 -109 70 -17 9 -12 19
52 100 141 179 232 330 248 409 5 29 5 29 -6 5 -7 -14 -23 -48 -36 -77 -20
-44 -135 -223 -164 -256 -6 -7 -35 -46 -65 -87 -30 -41 -60 -82 -66 -89 -21
-25 -20 -61 2 -96 l21 -33 -21 -15 c-30 -21 -61 -11 -118 39 -27 24 -63 49
-78 55 l-29 11 30 15 c47 24 113 79 201 167 100 101 133 143 178 232 43 82 58
131 62 200 1 29 12 70 23 93 12 22 21 48 21 58 0 10 -12 -4 -26 -32 -61 -118
-177 -252 -290 -336 -106 -78 -279 -155 -390 -174 -22 -3 -59 -10 -84 -14 -51
-8 -109 3 -111 22 -4 46 28 126 66 164 8 8 15 22 15 31 0 13 -6 11 -25 -10
-38 -41 -68 -105 -73 -158 -4 -42 -1 -52 22 -75 23 -23 33 -26 84 -24 85 4
214 36 302 76 51 23 168 92 199 117 76 62 167 158 208 219 26 37 49 64 51 58
7 -20 -29 -126 -65 -191 -66 -121 -186 -257 -329 -373 -60 -48 -73 -63 -76
-93 -5 -38 16 -110 39 -136 22 -25 77 -48 134 -57 56 -9 63 -4 49 35 -9 23 -7
29 10 41 11 8 18 19 15 24 -4 5 -1 9 4 9 6 0 21 16 33 35 13 19 27 35 32 35 5
0 37 -18 70 -39 64 -42 216 -111 244 -111 64 0 -136 -66 -228 -75 -36 -4 -65
-8 -66 -8 0 -1 -15 -33 -33 -72 -46 -97 -61 -176 -76 -405 -11 -163 -14 -286
-7 -297 11 -17 58 -33 98 -33 50 0 84 36 85 92 1 96 9 169 24 229 19 72 78
225 108 279 33 59 87 167 87 174 0 4 9 29 21 55 20 47 22 49 64 49 56 1 103
21 139 59 27 28 30 30 55 17 14 -8 45 -14 68 -14 23 0 44 -3 46 -7 3 -5 8 -30
11 -57 4 -27 10 -54 12 -58 3 -5 7 -62 8 -126 2 -116 2 -119 52 -242 28 -69
64 -160 79 -202 32 -84 48 -98 115 -98 79 0 111 32 91 93 -11 34 -38 158 -47
217 -3 19 -14 71 -24 114 -15 60 -17 90 -10 125 5 25 11 85 14 132 3 47 8 93
12 104 7 17 3 18 -52 10 -89 -12 -208 -15 -223 -6 -10 6 -5 11 16 15 16 4 45
19 63 35 31 26 36 27 61 14 15 -8 52 -19 82 -25 47 -10 59 -9 79 4 14 9 25 22
26 30 1 7 13 46 26 87 14 40 24 77 21 81 -3 5 0 10 6 12 7 2 12 22 13 45 0 23
4 39 7 37 5 -3 30 119 44 211 2 17 7 50 10 75 11 74 13 324 3 385 -9 61 -43
141 -61 147 -7 2 -38 -1 -69 -8z m29 -846 c-3 -8 -6 -5 -6 6 -1 11 2 17 5 13
3 -3 4 -12 1 -19z m-20 -140 c-3 -8 -6 -5 -6 6 -1 11 2 17 5 13 3 -3 4 -12 1
-19z"/>
<path d="M4074 3675 c60 -121 106 -261 106 -322 0 -13 4 -23 10 -23 5 0 8 6 5
13 -2 6 -6 30 -9 52 -14 105 -55 215 -117 321 -66 110 -64 98 5 -41z"/>
<path d="M3361 3614 c0 -11 3 -14 6 -6 3 7 2 16 -1 19 -3 4 -6 -2 -5 -13z"/>
<path d="M2036 3054 c-33 -6 -79 -11 -103 -10 -24 0 -43 -2 -43 -7 0 -4 16
-32 36 -61 46 -69 87 -91 157 -82 89 12 108 37 67 89 -26 33 -69 42 -131 27
-48 -12 -99 -7 -99 8 0 5 17 8 38 7 20 -1 55 3 77 8 22 4 52 9 68 9 15 1 27 4
27 8 0 15 -36 16 -94 4z"/>
<path d="M2203 2953 c-13 -2 -23 -8 -23 -13 0 -5 14 -4 30 1 27 10 42 21 23
18 -5 -1 -18 -4 -30 -6z"/>
<path d="M2119 2778 c-11 -8 -11 -9 1 -5 22 6 82 -12 103 -31 16 -15 17 -15
12 0 -10 27 -93 52 -116 36z"/>
<path d="M1884 2680 c-77 -20 -160 -56 -171 -74 -4 -6 5 -3 19 6 95 62 305 91
443 62 89 -19 216 -80 280 -135 43 -37 45 -38 17 -8 -34 37 -163 119 -187 119
-7 0 -16 4 -20 9 -10 17 -144 41 -227 40 -47 0 -114 -8 -154 -19z"/>
<path d="M1655 2575 c-16 -14 -26 -25 -21 -25 4 0 21 11 38 25 16 14 26 25 21
25 -4 -1 -21 -12 -38 -25z"/>
<path d="M2625 2287 c30 -43 131 -140 154 -149 17 -6 40 -5 68 3 48 13 50 16
26 36 -17 13 -17 13 2 5 25 -12 95 -32 95 -27 0 2 -20 13 -44 23 -35 16 -45
26 -50 53 -13 68 -23 73 -150 74 -111 1 -114 0 -101 -18z"/>
<path d="M3462 2179 c-33 -16 -34 -17 -7 -11 17 4 66 7 111 7 74 0 87 -3 155
-38 41 -21 104 -64 141 -96 37 -33 84 -69 105 -81 34 -18 38 -25 37 -58 -1
-72 13 -99 62 -123 25 -13 87 -65 139 -116 52 -52 113 -105 137 -118 24 -14
38 -25 31 -25 -31 0 -74 26 -133 84 -55 53 -124 114 -166 145 -5 5 -20 13 -31
20 -18 9 -22 8 -25 -7 -8 -34 12 -70 43 -77 32 -7 95 -52 156 -111 78 -74 107
-88 191 -88 90 -1 137 16 162 56 15 25 16 35 7 66 -14 43 -66 97 -130 134 -36
21 -47 33 -47 52 0 19 -7 27 -25 32 -14 3 -25 10 -25 15 0 5 -11 15 -25 21
-29 13 -35 53 -7 55 34 3 87 15 102 24 10 6 -6 7 -43 3 -33 -4 -66 -7 -75 -8
-11 -1 -18 8 -20 25 -4 38 -58 60 -118 47 -37 -8 -98 -6 -141 5 -4 1 -10 -10
-13 -25 -5 -26 -6 -27 -35 -13 -29 15 -56 35 -122 96 -124 112 -287 157 -391
108z"/>
<path d="M2290 1926 c54 -61 215 -159 282 -171 13 -3 46 -9 73 -14 60 -11 185
-7 210 7 13 6 -13 9 -83 7 -152 -5 -256 24 -382 104 -30 20 -57 38 -60 41 -3
3 -19 16 -35 30 l-30 25 25 -29z"/>
<path d="M3161 1884 c-48 -33 -85 -39 -123 -20 -17 9 -33 14 -36 12 -2 -3 -6
-31 -8 -63 -3 -32 -9 -82 -14 -112 -17 -93 -13 -133 20 -195 36 -67 33 -75 -5
-10 -51 88 -34 37 30 -85 70 -136 101 -175 153 -192 88 -29 239 56 226 129 -8
42 -29 85 -69 136 -20 27 -51 81 -67 120 -17 38 -37 80 -45 93 -10 15 -16 55
-19 114 -2 50 -4 93 -6 94 -2 2 -18 -8 -37 -21z m-117 -460 c3 -8 2 -12 -4 -9
-6 3 -10 10 -10 16 0 14 7 11 14 -7z"/>
<path d="M2470 1731 c0 -19 70 -63 110 -68 22 -3 40 -3 40 -1 0 3 -21 13 -47
23 -27 10 -60 27 -75 37 -16 11 -28 15 -28 9z"/>
</g>
</svg>
